<svg width="144" height="32" viewBox="0 0 144 32" fill="none" xmlns="http://www.w3.org/2000/svg">
<g clip-path="url(#clip0_307_18128)">
<path d="M144 14.5368V12.0043H140.855V8.06732L140.749 8.09992L137.795 9.00369L137.737 9.02138V12.0045H133.075V10.3426C133.075 9.56883 133.248 8.97667 133.589 8.58176C133.927 8.19158 134.412 7.99322 135.029 7.99322C135.474 7.99322 135.933 8.09783 136.396 8.30413L136.512 8.35595V5.68893L136.458 5.66887C136.026 5.51369 135.439 5.43555 134.711 5.43555C133.794 5.43555 132.96 5.63516 132.233 6.03077C131.506 6.42694 130.934 6.99249 130.533 7.71155C130.134 8.42978 129.931 9.25931 129.931 10.1773V12.0043H127.741V14.5368H129.931V25.2056H133.075V14.5368H137.737V21.3166C137.737 24.1089 139.054 25.5239 141.651 25.5239C142.078 25.5239 142.528 25.4739 142.986 25.3759C143.453 25.2754 143.771 25.1749 143.958 25.0677L144 25.0431V22.4873L143.872 22.5718C143.701 22.6855 143.489 22.7784 143.24 22.8475C142.99 22.9179 142.781 22.9531 142.619 22.9531C142.01 22.9531 141.56 22.7891 141.281 22.4656C140.998 22.139 140.855 21.5681 140.855 20.7693V14.5368H144ZM120.721 22.9535C119.58 22.9535 118.681 22.5752 118.047 21.8299C117.409 21.0809 117.086 20.0131 117.086 18.6563C117.086 17.2565 117.409 16.1609 118.047 15.3986C118.681 14.6414 119.572 14.2571 120.696 14.2571C121.786 14.2571 122.653 14.6241 123.275 15.3486C123.899 16.0769 124.217 17.1637 124.217 18.5798C124.217 20.0133 123.918 21.1145 123.331 21.8511C122.747 22.5821 121.869 22.9535 120.721 22.9535ZM120.861 11.6863C118.684 11.6863 116.955 12.3242 115.722 13.5822C114.49 14.8403 113.866 16.5814 113.866 18.7576C113.866 20.8245 114.475 22.487 115.678 23.6982C116.881 24.9098 118.518 25.5236 120.543 25.5236C122.653 25.5236 124.347 24.8768 125.58 23.6014C126.812 22.3274 127.436 20.6027 127.436 18.4774C127.436 16.3782 126.85 14.7033 125.694 13.5001C124.538 12.2964 122.912 11.6863 120.861 11.6863ZM108.797 11.6863C107.317 11.6863 106.092 12.0651 105.156 12.8119C104.215 13.5631 103.737 14.5484 103.737 15.7406C103.737 16.3604 103.84 16.9109 104.043 17.3778C104.247 17.8463 104.563 18.2587 104.983 18.6049C105.399 18.9483 106.042 19.3079 106.893 19.6739C107.609 19.9685 108.143 20.2177 108.482 20.4141C108.814 20.6066 109.049 20.8001 109.182 20.9886C109.311 21.173 109.377 21.4254 109.377 21.7369C109.377 22.6238 108.713 23.0553 107.346 23.0553C106.839 23.0553 106.261 22.9495 105.627 22.7408C104.998 22.5353 104.405 22.2343 103.867 21.8485L103.737 21.7549V24.7814L103.785 24.8037C104.23 25.009 104.79 25.1822 105.451 25.3184C106.111 25.4548 106.711 25.5241 107.231 25.5241C108.838 25.5241 110.132 25.1436 111.076 24.3923C112.026 23.6359 112.508 22.6274 112.508 21.3939C112.508 20.5041 112.249 19.741 111.738 19.1256C111.23 18.5152 110.349 17.9548 109.121 17.4594C108.142 17.0666 107.515 16.7405 107.257 16.4902C107.007 16.2484 106.881 15.9064 106.881 15.4733C106.881 15.0894 107.037 14.7818 107.358 14.5328C107.681 14.2824 108.131 14.1551 108.696 14.1551C109.219 14.1551 109.755 14.2379 110.288 14.4C110.821 14.5621 111.288 14.7793 111.679 15.045L111.807 15.1327V12.2618L111.758 12.2406C111.398 12.0861 110.923 11.9539 110.346 11.8466C109.771 11.7401 109.251 11.6863 108.797 11.6863ZM95.5421 22.9535C94.4014 22.9535 93.5015 22.5752 92.8677 21.8299C92.2297 21.0809 91.9071 20.0133 91.9071 18.6563C91.9071 17.2565 92.2301 16.1609 92.8684 15.3986C93.5022 14.6414 94.393 14.2571 95.5169 14.2571C96.6065 14.2571 97.4742 14.6241 98.0959 15.3486C98.7206 16.0769 99.0375 17.1637 99.0375 18.5798C99.0375 20.0133 98.7393 21.1145 98.1514 21.8511C97.5676 22.5821 96.6902 22.9535 95.5421 22.9535ZM95.6822 11.6863C93.5048 11.6863 91.7757 12.3242 90.5436 13.5822C89.3117 14.8403 88.6866 16.5814 88.6866 18.7576C88.6866 20.8253 89.2968 22.487 90.4995 23.6982C91.7022 24.9098 93.3388 25.5236 95.3638 25.5236C97.4736 25.5236 99.1686 24.8768 100.401 23.6014C101.633 22.3274 102.257 20.6027 102.257 18.4774C102.257 16.3782 101.671 14.7033 100.515 13.5001C99.3586 12.2964 97.7324 11.6863 95.6822 11.6863ZM83.9148 14.2905V12.0043H80.8095V25.2053H83.9148V18.4525C83.9148 17.3042 84.1751 16.3609 84.6889 15.6484C85.1961 14.9444 85.8719 14.5876 86.6972 14.5876C86.9769 14.5876 87.2908 14.6337 87.6309 14.725C87.9674 14.8157 88.2112 14.9142 88.355 15.0178L88.4855 15.1124V11.9818L88.4352 11.9602C88.146 11.8373 87.7369 11.7753 87.2192 11.7753C86.4389 11.7753 85.7406 12.0261 85.1424 12.5197C84.6174 12.9537 84.238 13.5486 83.9478 14.2905H83.9148ZM75.2486 11.6863C73.824 11.6863 72.5533 11.9918 71.4725 12.594C70.3894 13.1976 69.5518 14.0593 68.9819 15.155C68.4146 16.2481 68.1265 17.5249 68.1265 18.9488C68.1265 20.1961 68.4058 21.3407 68.9578 22.3495C69.5102 23.36 70.2919 24.1505 71.2815 24.6988C72.2697 25.2464 73.4118 25.524 74.6763 25.524C76.1521 25.524 77.412 25.229 78.4222 24.6471L78.463 24.6237V21.7788L78.3325 21.8741C77.8749 22.2074 77.3636 22.4735 76.8133 22.6652C76.2645 22.8567 75.7641 22.9535 75.3253 22.9535C74.1069 22.9535 73.1287 22.5723 72.4187 21.8206C71.7072 21.068 71.3464 20.0111 71.3464 18.6812C71.3464 17.343 71.7226 16.2589 72.4641 15.4591C73.2034 14.6616 74.1834 14.2571 75.3766 14.2571C76.3972 14.2571 77.3918 14.6027 78.3328 15.2852L78.463 15.3798V12.3823L78.421 12.3586C78.0669 12.1603 77.5839 11.9967 76.9844 11.8726C76.3873 11.7487 75.8034 11.6863 75.2486 11.6863ZM65.9878 12.0045H62.8826V25.2053H65.9878V12.0045ZM64.467 6.38083C63.9559 6.38083 63.5101 6.55482 63.1439 6.89958C62.7762 7.24532 62.5896 7.68063 62.5896 8.19436C62.5896 8.70002 62.7739 9.12739 63.1382 9.46394C63.5001 9.79951 63.9472 9.96959 64.4671 9.96959C64.9868 9.96959 65.4357 9.79951 65.8019 9.46449C66.1705 9.12739 66.3574 8.70016 66.3574 8.19436C66.3574 7.6986 66.1755 7.26775 65.8171 6.91351C65.4589 6.55997 65.0045 6.38083 64.467 6.38083ZM56.7192 11.0305V25.2053H59.8882V6.78494H55.5021L49.9271 20.467L44.5168 6.78494H39.9521V25.2051H42.9302V11.0291H43.0325L48.7455 25.2053H50.993L56.6169 11.0305H56.7192Z" fill="white"/>
<path d="M14.608 15.2374H0V0.629395H14.608V15.2374Z" fill="#F1511B"/>
<path d="M30.7366 15.2374H16.1289V0.629395H30.7366V15.2374Z" fill="#80CC28"/>
<path d="M14.6076 31.372H0V16.7642H14.6076V31.372Z" fill="#00ADEF"/>
<path d="M30.7366 31.372H16.1289V16.7642H30.7366V31.372Z" fill="#FBBC09"/>
</g>
<defs>
<clipPath id="clip0_307_18128">
<rect width="144" height="30.96" fill="white" transform="translate(0 0.52002)"/>
</clipPath>
</defs>
</svg>
