<svg width="20" height="20" viewBox="0 0 20 20" fill="none" xmlns="http://www.w3.org/2000/svg">
<path d="M7 14.9565V4.52177C7 4.40888 7.03661 4.29904 7.10435 4.20873C7.27724 3.97821 7.60426 3.93149 7.83478 4.10438L14.7913 9.32175C14.8308 9.35141 14.866 9.38655 14.8956 9.4261C15.0685 9.65662 15.0218 9.98364 14.7913 10.1565L7.83478 15.3739C7.74447 15.4416 7.63463 15.4782 7.52174 15.4782C7.23359 15.4782 7 15.2447 7 14.9565Z" fill="black"/>
<path d="M17.2221 8.68458C18.2586 9.25438 18.2586 10.7437 17.2221 11.3135L7.22259 16.8105C6.22292 17.36 5 16.6367 5 15.496L5 4.50214C5 3.36137 6.22292 2.63812 7.22259 3.18766L17.2221 8.68458Z" fill="black"/>
</svg>
