<svg width="20" height="20" viewBox="0 0 20 20" fill="none" xmlns="http://www.w3.org/2000/svg">
<path d="M10.5 18H8.5022C8.22606 18 8.0022 17.7761 8.0022 17.5V11H6.25C6.11193 11 6 10.8881 6 10.75V8.24959C6 8.11152 6.11193 7.99959 6.25 7.99959H8.0022V6.52041C8.0022 5.39796 8.33816 4.52041 9.01008 3.88776C9.64 3.29592 10.8399 3 11.8898 3C12.4265 3 12.9633 3 13.5 3C13.7761 3 14 3.22386 14 3.5V5.5C14 5.77614 13.7761 6 13.5 6C13 6 12.5 6 12 6C11.25 6 11 6.25 11 7V7.99959H13.7049C13.843 7.99959 13.9549 8.11152 13.9549 8.24959C13.9549 8.26336 13.9538 8.27711 13.9515 8.29069L13.5348 10.7911C13.5147 10.9116 13.4104 11 13.2882 11H11V17.5C11 17.7761 10.7761 18 10.5 18Z" fill="black"/>
</svg>
