<svg  viewBox="0 0 96 96" fill="none" xmlns="http://www.w3.org/2000/svg">
<g clip-path="url(#clip0_1311_3904)">
<g clip-path="url(#clip1_1311_3904)">
<path d="M7 37.7459V71.0585L7.01103 71.4665C7.22602 75.5238 10.5777 78.7431 14.6901 78.7431H81.3154L81.7234 78.7321C85.7806 78.5171 89.0055 75.1654 89.0055 71.053V32.112L88.9945 31.7041C88.7795 27.6468 85.4278 24.4274 81.3154 24.4274H49.7117H39.3319C37.1048 23.165 35.7262 17.25 33.1683 17.25H14.7617C10.4729 17.25 7 20.7229 7 25.0117V37.7459Z" fill="url(#paint0_radial_1311_3904)"/>
<path d="M39.0601 24.907L39.1866 24.9787H39.3319H49.7117H81.3154C85.1308 24.9787 88.2407 27.9634 88.4436 31.7265L88.4543 32.1193V71.053C88.4543 74.8677 85.4647 77.9781 81.7012 78.1812L81.308 78.1919H14.6901C10.8748 78.1919 7.76494 75.2072 7.56189 71.4443L7.55126 71.0511V37.7459V25.0117C7.55126 21.0274 10.7774 17.8013 14.7617 17.8013H33.1683C33.5791 17.8013 34.0077 18.0366 34.49 18.5654C34.9691 19.0907 35.425 19.822 35.8965 20.6405C36.0143 20.845 36.1334 21.0555 36.2536 21.2681C36.6023 21.8846 36.961 22.5187 37.3287 23.0767C37.8186 23.8202 38.3823 24.5228 39.0601 24.907Z" stroke="url(#paint1_radial_1311_3904)" stroke-opacity="0.7" stroke-width="1.10252"/>
<path d="M39.0601 24.907L39.1866 24.9787H39.3319H49.7117H81.3154C85.1308 24.9787 88.2407 27.9634 88.4436 31.7265L88.4543 32.1193V71.053C88.4543 74.8677 85.4647 77.9781 81.7012 78.1812L81.308 78.1919H14.6901C10.8748 78.1919 7.76494 75.2072 7.56189 71.4443L7.55126 71.0511V37.7459V25.0117C7.55126 21.0274 10.7774 17.8013 14.7617 17.8013H33.1683C33.5791 17.8013 34.0077 18.0366 34.49 18.5654C34.9691 19.0907 35.425 19.822 35.8965 20.6405C36.0143 20.845 36.1334 21.0555 36.2536 21.2681C36.6023 21.8846 36.961 22.5187 37.3287 23.0767C37.8186 23.8202 38.3823 24.5228 39.0601 24.907Z" stroke="url(#paint2_radial_1311_3904)" stroke-opacity="0.7" stroke-width="1.10252"/>
<path d="M7 34.2445V25.0117C7 20.7229 10.4729 17.25 14.7617 17.25H34.1683C36.7262 17.25 39.2454 17.917 41.467 19.1794L49.7062 24.4274L41.5 31.75C39 33.75 36.5112 34.25 34.1683 34.25H7V34.2445Z" fill="white"/>
<path d="M7.55126 33.6987V25.0117C7.55126 21.0274 10.7774 17.8013 14.7617 17.8013H34.1683C36.626 17.8013 39.0469 18.441 41.1827 19.6519L48.7957 24.5011L41.1441 31.3287C38.7692 33.2241 36.4161 33.6987 34.1683 33.6987H7.55126Z" stroke="url(#paint3_radial_1311_3904)" stroke-opacity="0.5" stroke-width="1.10252"/>
<path d="M7.55126 33.6987V25.0117C7.55126 21.0274 10.7774 17.8013 14.7617 17.8013H34.1683C36.626 17.8013 39.0469 18.441 41.1827 19.6519L48.7957 24.5011L41.1441 31.3287C38.7692 33.2241 36.4161 33.6987 34.1683 33.6987H7.55126Z" stroke="url(#paint4_radial_1311_3904)" stroke-opacity="0.5" stroke-width="1.10252"/>
</g>
</g>
<defs>
<radialGradient id="paint0_radial_1311_3904" cx="0" cy="0" r="1" gradientUnits="userSpaceOnUse" gradientTransform="translate(98.4286 26.2878) rotate(153.255) scale(143.45 118.513)">
<stop stop-color="white" stop-opacity="0.9"/>
<stop offset="1" stop-color="white" stop-opacity="0.05"/>
</radialGradient>
<radialGradient id="paint1_radial_1311_3904" cx="0" cy="0" r="1" gradientUnits="userSpaceOnUse" gradientTransform="translate(89.0055 17.4631) rotate(143.23) scale(102.373 36.9904)">
<stop offset="0.104014" stop-color="white" stop-opacity="0.8"/>
<stop offset="1" stop-color="white" stop-opacity="0.1"/>
</radialGradient>
<radialGradient id="paint2_radial_1311_3904" cx="0" cy="0" r="1" gradientUnits="userSpaceOnUse" gradientTransform="translate(6.99996 78.7431) rotate(-36.865) scale(102.5 37.1285)">
<stop offset="0.104014" stop-color="white" stop-opacity="0.7"/>
<stop offset="1" stop-color="white" stop-opacity="0"/>
</radialGradient>
<radialGradient id="paint3_radial_1311_3904" cx="0" cy="0" r="1" gradientUnits="userSpaceOnUse" gradientTransform="translate(49.7062 17.321) rotate(154.434) scale(47.3415 13.8878)">
<stop offset="0.104014" stop-color="white" stop-opacity="0.8"/>
<stop offset="1" stop-color="white" stop-opacity="0.1"/>
</radialGradient>
<radialGradient id="paint4_radial_1311_3904" cx="0" cy="0" r="1" gradientUnits="userSpaceOnUse" gradientTransform="translate(6.99998 37.7514) rotate(-25.6436) scale(47.3722 13.948)">
<stop offset="0.104014" stop-color="white" stop-opacity="0.7"/>
<stop offset="1" stop-color="white" stop-opacity="0"/>
</radialGradient>
<clipPath id="clip0_1311_3904">
<rect width="82" height="62" fill="white" transform="translate(7 17.25)"/>
</clipPath>
<clipPath id="clip1_1311_3904">
<rect width="82" height="61.4986" fill="white" transform="translate(7 17.25)"/>
</clipPath>
</defs>
</svg>
