<svg width="20" height="20" viewBox="0 0 20 20" fill="none" xmlns="http://www.w3.org/2000/svg">
<path fill-rule="evenodd" clip-rule="evenodd" d="M7.5 16C7.22386 16 7 15.8209 7 15.6L7 4.4C7 4.17909 7.22386 4 7.5 4C7.77614 4 8 4.17909 8 4.4L8 15.6C8 15.8209 7.77614 16 7.5 16Z" fill="black"/>
<path fill-rule="evenodd" clip-rule="evenodd" d="M12.5 16C12.2239 16 12 15.8209 12 15.6L12 4.4C12 4.17909 12.2239 4 12.5 4C12.7761 4 13 4.17909 13 4.4L13 15.6C13 15.8209 12.7761 16 12.5 16Z" fill="black"/>
</svg>
