<svg width="20" height="20" viewBox="0 0 20 20" fill="none" xmlns="http://www.w3.org/2000/svg">
<path d="M6.19083 5.48393C5.99557 5.28866 5.67899 5.28866 5.48373 5.48393C5.28846 5.67919 5.28846 5.99577 5.48373 6.19103L9.20714 9.91444L5.48374 13.6378C5.28847 13.8331 5.28847 14.1497 5.48374 14.345C5.679 14.5402 5.99558 14.5402 6.19084 14.345L9.91425 10.6216L13.6376 14.345C13.8329 14.5402 14.1495 14.5402 14.3448 14.345C14.54 14.1497 14.54 13.8331 14.3448 13.6378L10.6214 9.91444L14.3448 6.19103C14.54 5.99577 14.54 5.67919 14.3448 5.48393C14.1495 5.28866 13.8329 5.28866 13.6377 5.48393L9.91425 9.20734L6.19083 5.48393Z" fill="black"/>
</svg>
