<svg viewBox="0 0 96 96" fill="none" xmlns="http://www.w3.org/2000/svg">
<path d="M48 82C66.7777 82 82 66.7777 82 48C82 29.2223 66.7777 14 48 14C29.2223 14 14 29.2223 14 48C14 66.7777 29.2223 82 48 82Z" fill="url(#paint0_radial_374_5372)"/>
<path d="M81.5168 48C81.5168 66.5108 66.5108 81.5168 48 81.5168C29.4892 81.5168 14.4832 66.5108 14.4832 48C14.4832 29.4892 29.4892 14.4832 48 14.4832C66.5108 14.4832 81.5168 29.4892 81.5168 48Z" stroke="url(#paint1_radial_374_5372)" stroke-opacity="0.5" stroke-width="0.966382"/>
<path d="M81.5168 48C81.5168 66.5108 66.5108 81.5168 48 81.5168C29.4892 81.5168 14.4832 66.5108 14.4832 48C14.4832 29.4892 29.4892 14.4832 48 14.4832C66.5108 14.4832 81.5168 29.4892 81.5168 48Z" stroke="url(#paint2_radial_374_5372)" stroke-opacity="0.5" stroke-width="0.966382"/>
<path d="M60.6827 57.6309H57.0213C55.7249 57.6309 54.674 58.6818 54.674 59.9782C54.674 61.2746 55.7249 62.3255 57.0213 62.3255H66.6733C67.9697 62.3255 69.0207 61.2746 69.0207 59.9782V50.3261C69.0207 49.0298 67.9697 47.9788 66.6733 47.9788C65.3769 47.9788 64.326 49.0298 64.326 50.3261V54.635L50.2918 40.6008C49.3752 39.6842 47.8889 39.6842 46.9722 40.6008L42.4714 45.1017L31.8098 34.4402C30.8931 33.5235 29.4069 33.5235 28.4902 34.4402C27.5735 35.3569 27.5735 36.8431 28.4902 37.7598L40.8116 50.0811C41.7282 50.9978 43.2145 50.9978 44.1312 50.0811L48.632 45.5802L60.6827 57.6309Z" fill="white"/>
<defs>
<radialGradient id="paint0_radial_374_5372" cx="0" cy="0" r="1" gradientUnits="userSpaceOnUse" gradientTransform="translate(89.8137 23.9941) rotate(146.098) scale(127.983 121.804)">
<stop stop-color="white" stop-opacity="0.6"/>
<stop offset="1" stop-color="white" stop-opacity="0.05"/>
</radialGradient>
<radialGradient id="paint1_radial_374_5372" cx="0" cy="0" r="1" gradientUnits="userSpaceOnUse" gradientTransform="translate(82 14.2356) rotate(135.099) scale(96.0001 36.1701)">
<stop offset="0.104014" stop-color="white" stop-opacity="0.8"/>
<stop offset="1" stop-color="white" stop-opacity="0.1"/>
</radialGradient>
<radialGradient id="paint2_radial_374_5372" cx="0" cy="0" r="1" gradientUnits="userSpaceOnUse" gradientTransform="translate(14 82) rotate(-45) scale(96.1666 36.2875)">
<stop offset="0.104014" stop-color="white" stop-opacity="0.7"/>
<stop offset="1" stop-color="white" stop-opacity="0"/>
</radialGradient>
</defs>
</svg>
