<svg  viewBox="0 0 65 64" fill="none" xmlns="http://www.w3.org/2000/svg">
<path d="M62.5439 44.6394C63.2778 44.6394 63.8621 44.8719 64.2822 45.3464C64.7009 45.8193 64.9033 46.4755 64.9033 47.3005C64.9033 48.0175 64.7291 48.6202 64.374 49.1003L64.2109 49.2986C63.7503 49.8033 63.1441 50.0535 62.4033 50.0535C61.7759 50.0535 61.2529 49.8707 60.8418 49.5017L60.6729 49.3328C60.2411 48.852 60.0293 48.2178 60.0293 47.4412C60.0293 46.5909 60.2543 45.907 60.7148 45.4021L60.8955 45.2234C61.332 44.8334 61.8837 44.6394 62.5439 44.6394ZM63.3301 39.615L63.2314 39.7683L56.8105 49.8386L56.7812 49.8855H55.54L55.6387 49.7312L62.0527 39.6609L62.082 39.615H63.3301ZM62.502 45.6326C62.0812 45.6326 61.7571 45.7832 61.5205 46.0837L61.5215 46.0847C61.2868 46.3889 61.1631 46.8188 61.1631 47.3855C61.1631 47.9272 61.2858 48.3397 61.5195 48.6345L61.6104 48.7361C61.8315 48.9567 62.1169 49.0671 62.4736 49.0671C62.8846 49.0671 63.1982 48.9165 63.4258 48.616C63.6563 48.3068 63.7773 47.8767 63.7773 47.3152C63.7773 46.7574 63.6553 46.343 63.4268 46.0583V46.0574C63.2042 45.775 62.8998 45.6326 62.502 45.6326ZM56.5508 39.4539C57.2883 39.4539 57.8723 39.6833 58.2881 40.1531L58.4355 40.3376C58.7551 40.7872 58.9101 41.3757 58.9102 42.0935C58.9102 42.8145 58.736 43.4194 58.3809 43.9001L58.2178 44.0984C57.7571 44.6031 57.151 44.8533 56.4102 44.8533C55.6939 44.8532 55.1138 44.6176 54.6807 44.1404L54.6797 44.1394C54.248 43.6585 54.0371 43.022 54.0371 42.241C54.0372 41.3908 54.2596 40.7092 54.7158 40.2087C55.1725 39.7033 55.788 39.4539 56.5508 39.4539ZM56.5088 40.4255C56.0933 40.4255 55.7723 40.5786 55.5352 40.8845L55.5342 40.8855C55.2953 41.1897 55.1699 41.6172 55.1699 42.1785C55.17 42.7298 55.293 43.1467 55.5264 43.4412H55.5273C55.7593 43.7289 56.0729 43.8747 56.4805 43.8748C56.8915 43.8748 57.2051 43.7232 57.4326 43.4226L57.5137 43.3025C57.6911 43.0087 57.7842 42.6178 57.7842 42.1218C57.7842 41.5692 57.6627 41.1547 57.4336 40.865L57.4326 40.863C57.2096 40.5716 56.9055 40.4256 56.5088 40.4255Z" fill="url(#paint0_radial_1933_5346)"/>
<path d="M62.5439 44.6394C63.2778 44.6394 63.8621 44.8719 64.2822 45.3464C64.7009 45.8193 64.9033 46.4755 64.9033 47.3005C64.9033 48.0175 64.7291 48.6202 64.374 49.1003L64.2109 49.2986C63.7503 49.8033 63.1441 50.0535 62.4033 50.0535C61.7759 50.0535 61.2529 49.8707 60.8418 49.5017L60.6729 49.3328C60.2411 48.852 60.0293 48.2178 60.0293 47.4412C60.0293 46.5909 60.2543 45.907 60.7148 45.4021L60.8955 45.2234C61.332 44.8334 61.8837 44.6394 62.5439 44.6394ZM63.3301 39.615L63.2314 39.7683L56.8105 49.8386L56.7812 49.8855H55.54L55.6387 49.7312L62.0527 39.6609L62.082 39.615H63.3301ZM62.502 45.6326C62.0812 45.6326 61.7571 45.7832 61.5205 46.0837L61.5215 46.0847C61.2868 46.3889 61.1631 46.8188 61.1631 47.3855C61.1631 47.9272 61.2858 48.3397 61.5195 48.6345L61.6104 48.7361C61.8315 48.9567 62.1169 49.0671 62.4736 49.0671C62.8846 49.0671 63.1982 48.9165 63.4258 48.616C63.6563 48.3068 63.7773 47.8767 63.7773 47.3152C63.7773 46.7574 63.6553 46.343 63.4268 46.0583V46.0574C63.2042 45.775 62.8998 45.6326 62.502 45.6326ZM56.5508 39.4539C57.2883 39.4539 57.8723 39.6833 58.2881 40.1531L58.4355 40.3376C58.7551 40.7872 58.9101 41.3757 58.9102 42.0935C58.9102 42.8145 58.736 43.4194 58.3809 43.9001L58.2178 44.0984C57.7571 44.6031 57.151 44.8533 56.4102 44.8533C55.6939 44.8532 55.1138 44.6176 54.6807 44.1404L54.6797 44.1394C54.248 43.6585 54.0371 43.022 54.0371 42.241C54.0372 41.3908 54.2596 40.7092 54.7158 40.2087C55.1725 39.7033 55.788 39.4539 56.5508 39.4539ZM56.5088 40.4255C56.0933 40.4255 55.7723 40.5786 55.5352 40.8845L55.5342 40.8855C55.2953 41.1897 55.1699 41.6172 55.1699 42.1785C55.17 42.7298 55.293 43.1467 55.5264 43.4412H55.5273C55.7593 43.7289 56.0729 43.8747 56.4805 43.8748C56.8915 43.8748 57.2051 43.7232 57.4326 43.4226L57.5137 43.3025C57.6911 43.0087 57.7842 42.6178 57.7842 42.1218C57.7842 41.5692 57.6627 41.1547 57.4336 40.865L57.4326 40.863C57.2096 40.5716 56.9055 40.4256 56.5088 40.4255Z" stroke="url(#paint1_radial_1933_5346)" stroke-width="0.2"/>
<path d="M62.5439 44.6394C63.2778 44.6394 63.8621 44.8719 64.2822 45.3464C64.7009 45.8193 64.9033 46.4755 64.9033 47.3005C64.9033 48.0175 64.7291 48.6202 64.374 49.1003L64.2109 49.2986C63.7503 49.8033 63.1441 50.0535 62.4033 50.0535C61.7759 50.0535 61.2529 49.8707 60.8418 49.5017L60.6729 49.3328C60.2411 48.852 60.0293 48.2178 60.0293 47.4412C60.0293 46.5909 60.2543 45.907 60.7148 45.4021L60.8955 45.2234C61.332 44.8334 61.8837 44.6394 62.5439 44.6394ZM63.3301 39.615L63.2314 39.7683L56.8105 49.8386L56.7812 49.8855H55.54L55.6387 49.7312L62.0527 39.6609L62.082 39.615H63.3301ZM62.502 45.6326C62.0812 45.6326 61.7571 45.7832 61.5205 46.0837L61.5215 46.0847C61.2868 46.3889 61.1631 46.8188 61.1631 47.3855C61.1631 47.9272 61.2858 48.3397 61.5195 48.6345L61.6104 48.7361C61.8315 48.9567 62.1169 49.0671 62.4736 49.0671C62.8846 49.0671 63.1982 48.9165 63.4258 48.616C63.6563 48.3068 63.7773 47.8767 63.7773 47.3152C63.7773 46.7574 63.6553 46.343 63.4268 46.0583V46.0574C63.2042 45.775 62.8998 45.6326 62.502 45.6326ZM56.5508 39.4539C57.2883 39.4539 57.8723 39.6833 58.2881 40.1531L58.4355 40.3376C58.7551 40.7872 58.9101 41.3757 58.9102 42.0935C58.9102 42.8145 58.736 43.4194 58.3809 43.9001L58.2178 44.0984C57.7571 44.6031 57.151 44.8533 56.4102 44.8533C55.6939 44.8532 55.1138 44.6176 54.6807 44.1404L54.6797 44.1394C54.248 43.6585 54.0371 43.022 54.0371 42.241C54.0372 41.3908 54.2596 40.7092 54.7158 40.2087C55.1725 39.7033 55.788 39.4539 56.5508 39.4539ZM56.5088 40.4255C56.0933 40.4255 55.7723 40.5786 55.5352 40.8845L55.5342 40.8855C55.2953 41.1897 55.1699 41.6172 55.1699 42.1785C55.17 42.7298 55.293 43.1467 55.5264 43.4412H55.5273C55.7593 43.7289 56.0729 43.8747 56.4805 43.8748C56.8915 43.8748 57.2051 43.7232 57.4326 43.4226L57.5137 43.3025C57.6911 43.0087 57.7842 42.6178 57.7842 42.1218C57.7842 41.5692 57.6627 41.1547 57.4336 40.865L57.4326 40.863C57.2096 40.5716 56.9055 40.4256 56.5088 40.4255Z" stroke="url(#paint2_radial_1933_5346)" stroke-width="0.2"/>
<path d="M14.8408 13.0872C16.5026 13.0872 18.0732 13.404 19.5498 14.0393H19.5488C21.0509 14.6613 22.3598 15.6623 23.4746 17.0344H23.4736C24.6074 18.3924 25.4937 20.1446 26.1387 22.2825H26.1396C26.8043 24.4297 27.1328 27.0183 27.1328 30.0422C27.1328 33.6713 26.737 36.8052 25.9385 39.4387L25.9375 39.4377C25.1578 42.0647 24.0693 44.2369 22.667 45.9475L22.668 45.9485C21.2841 47.6569 19.6486 48.9259 17.7617 49.7493H17.7607C15.8968 50.553 13.8886 50.9543 11.7402 50.9543C11.0416 50.9543 10.3349 50.9115 9.62012 50.8264H9.61914C8.92379 50.7416 8.25314 50.6313 7.60742 50.4954L7.60645 50.4944C6.98023 50.359 6.40307 50.2148 5.87598 50.0618L5.86621 50.0598V50.0588C5.35754 49.8893 4.92902 49.7272 4.58301 49.5715L4.43848 49.5061V43.6379L4.81348 43.8704C5.15325 44.0807 5.57805 44.3021 6.08984 44.5334L6.48242 44.6917C6.87995 44.8457 7.30111 44.991 7.74609 45.1272H7.74707C8.36087 45.2931 8.992 45.4337 9.63965 45.55C10.2991 45.6488 10.9321 45.6985 11.5391 45.6985C12.9346 45.6985 14.1918 45.4278 15.3145 44.8909H15.3154L15.7344 44.677C16.693 44.1506 17.5223 43.4244 18.2227 42.4954C19.0233 41.4333 19.6419 40.1108 20.0723 38.5217V38.5198L20.2295 37.9065C20.5281 36.6329 20.6962 35.2101 20.7344 33.637C20.5307 33.921 20.2997 34.1974 20.04 34.4651L19.8506 34.6545C19.3478 35.1399 18.7683 35.5717 18.1143 35.9504L18.1094 35.9534C17.4522 36.3165 16.7199 36.6094 15.9141 36.8323L15.9131 36.8313C15.1169 37.0561 14.2633 37.1682 13.3535 37.1682C11.8127 37.1682 10.3706 36.9024 9.0293 36.3694L9.02539 36.3684C7.70208 35.8185 6.54873 35.0437 5.56738 34.0452C4.58461 33.0452 3.81144 31.8323 3.24609 30.4104L3.24512 30.4075C2.69524 28.9811 2.42192 27.3968 2.42188 25.6575C2.42188 23.749 2.73688 22.0195 3.37207 20.4739L3.62109 19.9006C4.22827 18.5888 5.02112 17.4568 6 16.5081C7.11588 15.4098 8.42859 14.5692 9.93555 13.9866L10.2207 13.8772C11.6509 13.3496 13.1919 13.0872 14.8408 13.0872ZM42.0605 13.0872C46.1095 13.0872 49.1717 14.667 51.208 17.8313C53.2323 20.977 54.2275 25.6639 54.2275 31.8567C54.2275 37.8048 53.1676 42.4284 51.0176 45.6975L50.8057 46.01C48.5235 49.2872 45.3136 50.9289 41.2041 50.929C37.3605 50.929 34.344 49.3521 32.1807 46.2102L32.1797 46.2092C30.0401 43.0766 28.9873 38.5754 28.9873 32.7385C28.9873 26.3329 30.0898 21.4454 32.3301 18.1106C34.5795 14.7623 37.8338 13.0872 42.0605 13.0872ZM41.7832 18.2415C40.7353 18.2415 39.8284 18.5296 39.0518 19.0999C38.2723 19.6723 37.61 20.5396 37.0742 21.72C35.9999 24.0868 35.4522 27.6672 35.4521 32.4866C35.4521 36.9944 35.9895 40.3401 37.041 42.55C37.5651 43.6515 38.2123 44.4615 38.9756 44.9963C39.7368 45.5296 40.6277 45.799 41.6572 45.7991C42.6683 45.7991 43.5435 45.5262 44.292 44.9846C45.043 44.4412 45.6807 43.6175 46.1973 42.4963C47.2333 40.2476 47.7627 36.844 47.7627 32.26C47.7627 27.5157 47.2434 23.9907 46.2266 21.6604C45.7193 20.498 45.0933 19.6443 44.3574 19.0823C43.6249 18.5229 42.77 18.2415 41.7832 18.2415ZM14.5381 18.3674C13.767 18.3674 13.0288 18.5283 12.3213 18.8499L12.3193 18.8508C11.6304 19.1553 11.019 19.5948 10.4873 20.1741L10.4883 20.175C10.0376 20.6821 9.66403 21.2844 9.37012 21.9846L9.24902 22.2903C8.94141 23.116 8.78615 24.0357 8.78613 25.052C8.78613 26.1733 8.93493 27.1538 9.22656 27.9963C9.53551 28.8403 9.95469 29.5487 10.4824 30.1252H10.4834C11.0114 30.6853 11.6431 31.1188 12.3818 31.425H12.3828C13.1413 31.7155 13.9766 31.8625 14.8906 31.8625C15.7004 31.8625 16.4401 31.717 17.1123 31.429C17.808 31.1212 18.4031 30.7183 18.9004 30.2209L19.0879 30.0237C19.5134 29.5542 19.8533 29.0165 20.1074 28.4094L20.209 28.1487C20.4306 27.5334 20.5419 26.88 20.542 26.1868C20.542 24.9986 20.3854 23.9235 20.0752 22.9602L20.0742 22.9563C19.8162 22.1106 19.466 21.3768 19.0254 20.7522L18.8311 20.4915C18.2982 19.8132 17.662 19.2907 16.9229 18.9211L16.9209 18.9202C16.2019 18.5528 15.4091 18.3674 14.5381 18.3674Z" fill="url(#paint3_radial_1933_5346)"/>
<path d="M14.8408 13.0872C16.5026 13.0872 18.0732 13.404 19.5498 14.0393H19.5488C21.0509 14.6613 22.3598 15.6623 23.4746 17.0344H23.4736C24.6074 18.3924 25.4937 20.1446 26.1387 22.2825H26.1396C26.8043 24.4297 27.1328 27.0183 27.1328 30.0422C27.1328 33.6713 26.737 36.8052 25.9385 39.4387L25.9375 39.4377C25.1578 42.0647 24.0693 44.2369 22.667 45.9475L22.668 45.9485C21.2841 47.6569 19.6486 48.9259 17.7617 49.7493H17.7607C15.8968 50.553 13.8886 50.9543 11.7402 50.9543C11.0416 50.9543 10.3349 50.9115 9.62012 50.8264H9.61914C8.92379 50.7416 8.25314 50.6313 7.60742 50.4954L7.60645 50.4944C6.98023 50.359 6.40307 50.2148 5.87598 50.0618L5.86621 50.0598V50.0588C5.35754 49.8893 4.92902 49.7272 4.58301 49.5715L4.43848 49.5061V43.6379L4.81348 43.8704C5.15325 44.0807 5.57805 44.3021 6.08984 44.5334L6.48242 44.6917C6.87995 44.8457 7.30111 44.991 7.74609 45.1272H7.74707C8.36087 45.2931 8.992 45.4337 9.63965 45.55C10.2991 45.6488 10.9321 45.6985 11.5391 45.6985C12.9346 45.6985 14.1918 45.4278 15.3145 44.8909H15.3154L15.7344 44.677C16.693 44.1506 17.5223 43.4244 18.2227 42.4954C19.0233 41.4333 19.6419 40.1108 20.0723 38.5217V38.5198L20.2295 37.9065C20.5281 36.6329 20.6962 35.2101 20.7344 33.637C20.5307 33.921 20.2997 34.1974 20.04 34.4651L19.8506 34.6545C19.3478 35.1399 18.7683 35.5717 18.1143 35.9504L18.1094 35.9534C17.4522 36.3165 16.7199 36.6094 15.9141 36.8323L15.9131 36.8313C15.1169 37.0561 14.2633 37.1682 13.3535 37.1682C11.8127 37.1682 10.3706 36.9024 9.0293 36.3694L9.02539 36.3684C7.70208 35.8185 6.54873 35.0437 5.56738 34.0452C4.58461 33.0452 3.81144 31.8323 3.24609 30.4104L3.24512 30.4075C2.69524 28.9811 2.42192 27.3968 2.42188 25.6575C2.42188 23.749 2.73688 22.0195 3.37207 20.4739L3.62109 19.9006C4.22827 18.5888 5.02112 17.4568 6 16.5081C7.11588 15.4098 8.42859 14.5692 9.93555 13.9866L10.2207 13.8772C11.6509 13.3496 13.1919 13.0872 14.8408 13.0872ZM42.0605 13.0872C46.1095 13.0872 49.1717 14.667 51.208 17.8313C53.2323 20.977 54.2275 25.6639 54.2275 31.8567C54.2275 37.8048 53.1676 42.4284 51.0176 45.6975L50.8057 46.01C48.5235 49.2872 45.3136 50.9289 41.2041 50.929C37.3605 50.929 34.344 49.3521 32.1807 46.2102L32.1797 46.2092C30.0401 43.0766 28.9873 38.5754 28.9873 32.7385C28.9873 26.3329 30.0898 21.4454 32.3301 18.1106C34.5795 14.7623 37.8338 13.0872 42.0605 13.0872ZM41.7832 18.2415C40.7353 18.2415 39.8284 18.5296 39.0518 19.0999C38.2723 19.6723 37.61 20.5396 37.0742 21.72C35.9999 24.0868 35.4522 27.6672 35.4521 32.4866C35.4521 36.9944 35.9895 40.3401 37.041 42.55C37.5651 43.6515 38.2123 44.4615 38.9756 44.9963C39.7368 45.5296 40.6277 45.799 41.6572 45.7991C42.6683 45.7991 43.5435 45.5262 44.292 44.9846C45.043 44.4412 45.6807 43.6175 46.1973 42.4963C47.2333 40.2476 47.7627 36.844 47.7627 32.26C47.7627 27.5157 47.2434 23.9907 46.2266 21.6604C45.7193 20.498 45.0933 19.6443 44.3574 19.0823C43.6249 18.5229 42.77 18.2415 41.7832 18.2415ZM14.5381 18.3674C13.767 18.3674 13.0288 18.5283 12.3213 18.8499L12.3193 18.8508C11.6304 19.1553 11.019 19.5948 10.4873 20.1741L10.4883 20.175C10.0376 20.6821 9.66403 21.2844 9.37012 21.9846L9.24902 22.2903C8.94141 23.116 8.78615 24.0357 8.78613 25.052C8.78613 26.1733 8.93493 27.1538 9.22656 27.9963C9.53551 28.8403 9.95469 29.5487 10.4824 30.1252H10.4834C11.0114 30.6853 11.6431 31.1188 12.3818 31.425H12.3828C13.1413 31.7155 13.9766 31.8625 14.8906 31.8625C15.7004 31.8625 16.4401 31.717 17.1123 31.429C17.808 31.1212 18.4031 30.7183 18.9004 30.2209L19.0879 30.0237C19.5134 29.5542 19.8533 29.0165 20.1074 28.4094L20.209 28.1487C20.4306 27.5334 20.5419 26.88 20.542 26.1868C20.542 24.9986 20.3854 23.9235 20.0752 22.9602L20.0742 22.9563C19.8162 22.1106 19.466 21.3768 19.0254 20.7522L18.8311 20.4915C18.2982 19.8132 17.662 19.2907 16.9229 18.9211L16.9209 18.9202C16.2019 18.5528 15.4091 18.3674 14.5381 18.3674Z" stroke="url(#paint4_radial_1933_5346)" stroke-width="0.492081"/>
<path d="M14.8408 13.0872C16.5026 13.0872 18.0732 13.404 19.5498 14.0393H19.5488C21.0509 14.6613 22.3598 15.6623 23.4746 17.0344H23.4736C24.6074 18.3924 25.4937 20.1446 26.1387 22.2825H26.1396C26.8043 24.4297 27.1328 27.0183 27.1328 30.0422C27.1328 33.6713 26.737 36.8052 25.9385 39.4387L25.9375 39.4377C25.1578 42.0647 24.0693 44.2369 22.667 45.9475L22.668 45.9485C21.2841 47.6569 19.6486 48.9259 17.7617 49.7493H17.7607C15.8968 50.553 13.8886 50.9543 11.7402 50.9543C11.0416 50.9543 10.3349 50.9115 9.62012 50.8264H9.61914C8.92379 50.7416 8.25314 50.6313 7.60742 50.4954L7.60645 50.4944C6.98023 50.359 6.40307 50.2148 5.87598 50.0618L5.86621 50.0598V50.0588C5.35754 49.8893 4.92902 49.7272 4.58301 49.5715L4.43848 49.5061V43.6379L4.81348 43.8704C5.15325 44.0807 5.57805 44.3021 6.08984 44.5334L6.48242 44.6917C6.87995 44.8457 7.30111 44.991 7.74609 45.1272H7.74707C8.36087 45.2931 8.992 45.4337 9.63965 45.55C10.2991 45.6488 10.9321 45.6985 11.5391 45.6985C12.9346 45.6985 14.1918 45.4278 15.3145 44.8909H15.3154L15.7344 44.677C16.693 44.1506 17.5223 43.4244 18.2227 42.4954C19.0233 41.4333 19.6419 40.1108 20.0723 38.5217V38.5198L20.2295 37.9065C20.5281 36.6329 20.6962 35.2101 20.7344 33.637C20.5307 33.921 20.2997 34.1974 20.04 34.4651L19.8506 34.6545C19.3478 35.1399 18.7683 35.5717 18.1143 35.9504L18.1094 35.9534C17.4522 36.3165 16.7199 36.6094 15.9141 36.8323L15.9131 36.8313C15.1169 37.0561 14.2633 37.1682 13.3535 37.1682C11.8127 37.1682 10.3706 36.9024 9.0293 36.3694L9.02539 36.3684C7.70208 35.8185 6.54873 35.0437 5.56738 34.0452C4.58461 33.0452 3.81144 31.8323 3.24609 30.4104L3.24512 30.4075C2.69524 28.9811 2.42192 27.3968 2.42188 25.6575C2.42188 23.749 2.73688 22.0195 3.37207 20.4739L3.62109 19.9006C4.22827 18.5888 5.02112 17.4568 6 16.5081C7.11588 15.4098 8.42859 14.5692 9.93555 13.9866L10.2207 13.8772C11.6509 13.3496 13.1919 13.0872 14.8408 13.0872ZM42.0605 13.0872C46.1095 13.0872 49.1717 14.667 51.208 17.8313C53.2323 20.977 54.2275 25.6639 54.2275 31.8567C54.2275 37.8048 53.1676 42.4284 51.0176 45.6975L50.8057 46.01C48.5235 49.2872 45.3136 50.9289 41.2041 50.929C37.3605 50.929 34.344 49.3521 32.1807 46.2102L32.1797 46.2092C30.0401 43.0766 28.9873 38.5754 28.9873 32.7385C28.9873 26.3329 30.0898 21.4454 32.3301 18.1106C34.5795 14.7623 37.8338 13.0872 42.0605 13.0872ZM41.7832 18.2415C40.7353 18.2415 39.8284 18.5296 39.0518 19.0999C38.2723 19.6723 37.61 20.5396 37.0742 21.72C35.9999 24.0868 35.4522 27.6672 35.4521 32.4866C35.4521 36.9944 35.9895 40.3401 37.041 42.55C37.5651 43.6515 38.2123 44.4615 38.9756 44.9963C39.7368 45.5296 40.6277 45.799 41.6572 45.7991C42.6683 45.7991 43.5435 45.5262 44.292 44.9846C45.043 44.4412 45.6807 43.6175 46.1973 42.4963C47.2333 40.2476 47.7627 36.844 47.7627 32.26C47.7627 27.5157 47.2434 23.9907 46.2266 21.6604C45.7193 20.498 45.0933 19.6443 44.3574 19.0823C43.6249 18.5229 42.77 18.2415 41.7832 18.2415ZM14.5381 18.3674C13.767 18.3674 13.0288 18.5283 12.3213 18.8499L12.3193 18.8508C11.6304 19.1553 11.019 19.5948 10.4873 20.1741L10.4883 20.175C10.0376 20.6821 9.66403 21.2844 9.37012 21.9846L9.24902 22.2903C8.94141 23.116 8.78615 24.0357 8.78613 25.052C8.78613 26.1733 8.93493 27.1538 9.22656 27.9963C9.53551 28.8403 9.95469 29.5487 10.4824 30.1252H10.4834C11.0114 30.6853 11.6431 31.1188 12.3818 31.425H12.3828C13.1413 31.7155 13.9766 31.8625 14.8906 31.8625C15.7004 31.8625 16.4401 31.717 17.1123 31.429C17.808 31.1212 18.4031 30.7183 18.9004 30.2209L19.0879 30.0237C19.5134 29.5542 19.8533 29.0165 20.1074 28.4094L20.209 28.1487C20.4306 27.5334 20.5419 26.88 20.542 26.1868C20.542 24.9986 20.3854 23.9235 20.0752 22.9602L20.0742 22.9563C19.8162 22.1106 19.466 21.3768 19.0254 20.7522L18.8311 20.4915C18.2982 19.8132 17.662 19.2907 16.9229 18.9211L16.9209 18.9202C16.2019 18.5528 15.4091 18.3674 14.5381 18.3674Z" stroke="url(#paint5_radial_1933_5346)" stroke-width="0.492081"/>
<defs>
<radialGradient id="paint0_radial_1933_5346" cx="0" cy="0" r="1" gradientUnits="userSpaceOnUse" gradientTransform="translate(64.9194 38.4922) rotate(138.441) scale(19.532 16.42)">
<stop stop-color="white"/>
<stop offset="1" stop-color="white" stop-opacity="0.12"/>
</radialGradient>
<radialGradient id="paint1_radial_1933_5346" cx="0" cy="0" r="1" gradientUnits="userSpaceOnUse" gradientTransform="translate(68.2902 34.2677) rotate(139.024) scale(23.9208 8.92396)">
<stop offset="0.104014" stop-color="white" stop-opacity="0.8"/>
<stop offset="1" stop-color="white" stop-opacity="0.1"/>
</radialGradient>
<radialGradient id="paint2_radial_1933_5346" cx="0" cy="0" r="1" gradientUnits="userSpaceOnUse" gradientTransform="translate(50.2304 49.9535) rotate(-41.0745) scale(23.9566 8.95505)">
<stop offset="0.104014" stop-color="white" stop-opacity="0.6"/>
<stop offset="1" stop-color="white" stop-opacity="0.1"/>
</radialGradient>
<radialGradient id="paint3_radial_1933_5346" cx="0" cy="0" r="1" gradientUnits="userSpaceOnUse" gradientTransform="translate(57.3436 7.98084) rotate(140.113) scale(73.9671 67.815)">
<stop stop-color="white"/>
<stop offset="1" stop-color="white" stop-opacity="0.12"/>
</radialGradient>
<radialGradient id="paint4_radial_1933_5346" cx="0" cy="0" r="1" gradientUnits="userSpaceOnUse" gradientTransform="translate(70.755 -5.66226) rotate(147.023) scale(103.564 35.634)">
<stop offset="0.104014" stop-color="white" stop-opacity="0.8"/>
<stop offset="1" stop-color="white" stop-opacity="0.1"/>
</radialGradient>
<radialGradient id="paint5_radial_1933_5346" cx="0" cy="0" r="1" gradientUnits="userSpaceOnUse" gradientTransform="translate(-16.1241 50.7078) rotate(-33.0678) scale(103.671 35.7747)">
<stop offset="0.104014" stop-color="white" stop-opacity="0.6"/>
<stop offset="1" stop-color="white" stop-opacity="0.1"/>
</radialGradient>
</defs>
</svg>
