<svg width="20" height="20" viewBox="0 0 20 20" fill="none" xmlns="http://www.w3.org/2000/svg">
<path d="M7.26226 14.4003L3.51639 10.6547C3.29466 10.4329 3.27431 10.086 3.45549 9.84134L3.51589 9.77123L7.26177 6.01719C7.50558 5.77285 7.90131 5.77242 8.14565 6.01623C8.36778 6.23787 8.38833 6.58507 8.20705 6.82995L8.14661 6.90011L5.4659 9.58583L16.0458 9.58528C16.3622 9.58528 16.6237 9.82041 16.6651 10.1255L16.6708 10.2103C16.6708 10.5267 16.4356 10.7882 16.1306 10.8296L16.0458 10.8353L5.46424 10.8358L8.14612 13.5164C8.36801 13.7383 8.3882 14.0855 8.20666 14.3302L8.14615 14.4003C7.92427 14.6222 7.57705 14.6423 7.33237 14.4608L7.26226 14.4003L3.51639 10.6547L7.26226 14.4003Z" fill="black"/>
</svg>
