<svg viewBox="0 0 65 64" fill="none" xmlns="http://www.w3.org/2000/svg">
<path d="M62.5439 44.6394C63.2778 44.6394 63.8621 44.8719 64.2822 45.3464C64.7009 45.8193 64.9033 46.4755 64.9033 47.3005C64.9033 48.0175 64.7291 48.6202 64.374 49.1003L64.2109 49.2986C63.7503 49.8033 63.1441 50.0535 62.4033 50.0535C61.7759 50.0535 61.2529 49.8707 60.8418 49.5017L60.6729 49.3328C60.2411 48.852 60.0293 48.2178 60.0293 47.4412C60.0293 46.5909 60.2543 45.907 60.7148 45.4021L60.8955 45.2234C61.332 44.8334 61.8837 44.6394 62.5439 44.6394ZM63.3301 39.615L63.2314 39.7683L56.8105 49.8386L56.7812 49.8855H55.54L55.6387 49.7312L62.0527 39.6609L62.082 39.615H63.3301ZM62.502 45.6326C62.0812 45.6326 61.7571 45.7832 61.5205 46.0837L61.5215 46.0847C61.2868 46.3889 61.1631 46.8188 61.1631 47.3855C61.1631 47.9272 61.2858 48.3397 61.5195 48.6345L61.6104 48.7361C61.8315 48.9567 62.1169 49.0671 62.4736 49.0671C62.8846 49.0671 63.1982 48.9165 63.4258 48.616C63.6563 48.3068 63.7773 47.8767 63.7773 47.3152C63.7773 46.7574 63.6553 46.343 63.4268 46.0583V46.0574C63.2042 45.775 62.8998 45.6326 62.502 45.6326ZM56.5508 39.4539C57.2883 39.4539 57.8723 39.6833 58.2881 40.1531L58.4355 40.3376C58.7551 40.7872 58.9101 41.3757 58.9102 42.0935C58.9102 42.8145 58.736 43.4194 58.3809 43.9001L58.2178 44.0984C57.7571 44.6031 57.151 44.8533 56.4102 44.8533C55.6939 44.8532 55.1138 44.6176 54.6807 44.1404L54.6797 44.1394C54.248 43.6585 54.0371 43.022 54.0371 42.241C54.0372 41.3908 54.2596 40.7092 54.7158 40.2087C55.1725 39.7033 55.788 39.4539 56.5508 39.4539ZM56.5088 40.4255C56.0933 40.4255 55.7723 40.5786 55.5352 40.8845L55.5342 40.8855C55.2953 41.1897 55.1699 41.6172 55.1699 42.1785C55.17 42.7298 55.293 43.1467 55.5264 43.4412H55.5273C55.7593 43.7289 56.0729 43.8747 56.4805 43.8748C56.8915 43.8748 57.2051 43.7232 57.4326 43.4226L57.5137 43.3025C57.6911 43.0087 57.7842 42.6178 57.7842 42.1218C57.7842 41.5692 57.6627 41.1547 57.4336 40.865L57.4326 40.863C57.2096 40.5716 56.9055 40.4256 56.5088 40.4255Z" fill="url(#paint0_radial_1933_4568)"/>
<path d="M62.5439 44.6394C63.2778 44.6394 63.8621 44.8719 64.2822 45.3464C64.7009 45.8193 64.9033 46.4755 64.9033 47.3005C64.9033 48.0175 64.7291 48.6202 64.374 49.1003L64.2109 49.2986C63.7503 49.8033 63.1441 50.0535 62.4033 50.0535C61.7759 50.0535 61.2529 49.8707 60.8418 49.5017L60.6729 49.3328C60.2411 48.852 60.0293 48.2178 60.0293 47.4412C60.0293 46.5909 60.2543 45.907 60.7148 45.4021L60.8955 45.2234C61.332 44.8334 61.8837 44.6394 62.5439 44.6394ZM63.3301 39.615L63.2314 39.7683L56.8105 49.8386L56.7812 49.8855H55.54L55.6387 49.7312L62.0527 39.6609L62.082 39.615H63.3301ZM62.502 45.6326C62.0812 45.6326 61.7571 45.7832 61.5205 46.0837L61.5215 46.0847C61.2868 46.3889 61.1631 46.8188 61.1631 47.3855C61.1631 47.9272 61.2858 48.3397 61.5195 48.6345L61.6104 48.7361C61.8315 48.9567 62.1169 49.0671 62.4736 49.0671C62.8846 49.0671 63.1982 48.9165 63.4258 48.616C63.6563 48.3068 63.7773 47.8767 63.7773 47.3152C63.7773 46.7574 63.6553 46.343 63.4268 46.0583V46.0574C63.2042 45.775 62.8998 45.6326 62.502 45.6326ZM56.5508 39.4539C57.2883 39.4539 57.8723 39.6833 58.2881 40.1531L58.4355 40.3376C58.7551 40.7872 58.9101 41.3757 58.9102 42.0935C58.9102 42.8145 58.736 43.4194 58.3809 43.9001L58.2178 44.0984C57.7571 44.6031 57.151 44.8533 56.4102 44.8533C55.6939 44.8532 55.1138 44.6176 54.6807 44.1404L54.6797 44.1394C54.248 43.6585 54.0371 43.022 54.0371 42.241C54.0372 41.3908 54.2596 40.7092 54.7158 40.2087C55.1725 39.7033 55.788 39.4539 56.5508 39.4539ZM56.5088 40.4255C56.0933 40.4255 55.7723 40.5786 55.5352 40.8845L55.5342 40.8855C55.2953 41.1897 55.1699 41.6172 55.1699 42.1785C55.17 42.7298 55.293 43.1467 55.5264 43.4412H55.5273C55.7593 43.7289 56.0729 43.8747 56.4805 43.8748C56.8915 43.8748 57.2051 43.7232 57.4326 43.4226L57.5137 43.3025C57.6911 43.0087 57.7842 42.6178 57.7842 42.1218C57.7842 41.5692 57.6627 41.1547 57.4336 40.865L57.4326 40.863C57.2096 40.5716 56.9055 40.4256 56.5088 40.4255Z" stroke="url(#paint1_radial_1933_4568)" stroke-width="0.2"/>
<path d="M62.5439 44.6394C63.2778 44.6394 63.8621 44.8719 64.2822 45.3464C64.7009 45.8193 64.9033 46.4755 64.9033 47.3005C64.9033 48.0175 64.7291 48.6202 64.374 49.1003L64.2109 49.2986C63.7503 49.8033 63.1441 50.0535 62.4033 50.0535C61.7759 50.0535 61.2529 49.8707 60.8418 49.5017L60.6729 49.3328C60.2411 48.852 60.0293 48.2178 60.0293 47.4412C60.0293 46.5909 60.2543 45.907 60.7148 45.4021L60.8955 45.2234C61.332 44.8334 61.8837 44.6394 62.5439 44.6394ZM63.3301 39.615L63.2314 39.7683L56.8105 49.8386L56.7812 49.8855H55.54L55.6387 49.7312L62.0527 39.6609L62.082 39.615H63.3301ZM62.502 45.6326C62.0812 45.6326 61.7571 45.7832 61.5205 46.0837L61.5215 46.0847C61.2868 46.3889 61.1631 46.8188 61.1631 47.3855C61.1631 47.9272 61.2858 48.3397 61.5195 48.6345L61.6104 48.7361C61.8315 48.9567 62.1169 49.0671 62.4736 49.0671C62.8846 49.0671 63.1982 48.9165 63.4258 48.616C63.6563 48.3068 63.7773 47.8767 63.7773 47.3152C63.7773 46.7574 63.6553 46.343 63.4268 46.0583V46.0574C63.2042 45.775 62.8998 45.6326 62.502 45.6326ZM56.5508 39.4539C57.2883 39.4539 57.8723 39.6833 58.2881 40.1531L58.4355 40.3376C58.7551 40.7872 58.9101 41.3757 58.9102 42.0935C58.9102 42.8145 58.736 43.4194 58.3809 43.9001L58.2178 44.0984C57.7571 44.6031 57.151 44.8533 56.4102 44.8533C55.6939 44.8532 55.1138 44.6176 54.6807 44.1404L54.6797 44.1394C54.248 43.6585 54.0371 43.022 54.0371 42.241C54.0372 41.3908 54.2596 40.7092 54.7158 40.2087C55.1725 39.7033 55.788 39.4539 56.5508 39.4539ZM56.5088 40.4255C56.0933 40.4255 55.7723 40.5786 55.5352 40.8845L55.5342 40.8855C55.2953 41.1897 55.1699 41.6172 55.1699 42.1785C55.17 42.7298 55.293 43.1467 55.5264 43.4412H55.5273C55.7593 43.7289 56.0729 43.8747 56.4805 43.8748C56.8915 43.8748 57.2051 43.7232 57.4326 43.4226L57.5137 43.3025C57.6911 43.0087 57.7842 42.6178 57.7842 42.1218C57.7842 41.5692 57.6627 41.1547 57.4336 40.865L57.4326 40.863C57.2096 40.5716 56.9055 40.4256 56.5088 40.4255Z" stroke="url(#paint2_radial_1933_4568)" stroke-width="0.2"/>
<path d="M23.8604 13.6138V19.0962H10.915L10.3438 27.6372C11.3977 27.5801 12.3606 27.5513 13.2314 27.5513C17.1024 27.5513 20.127 28.545 22.2695 30.5659H22.2705C24.4295 32.5868 25.498 35.3452 25.498 38.8101C25.498 42.3365 24.3486 45.2082 22.04 47.4019L21.8135 47.6118C19.3703 49.8141 16.0202 50.9008 11.7949 50.9009C8.25223 50.9009 5.57065 50.4047 3.78418 49.3813L3.66016 49.311V43.0854L4.04395 43.3442C6.37942 44.9177 8.7351 45.6968 11.1143 45.6968C13.525 45.6967 15.4384 45.0859 16.8789 43.8882C18.314 42.6783 19.0332 41.0777 19.0332 39.062C19.0331 37.0833 18.3003 35.5633 16.8389 34.4712L16.8379 34.4702C15.3851 33.3726 13.2702 32.8062 10.459 32.8062C9.7355 32.8062 8.44881 32.8628 6.5957 32.9761L4.55273 33.1079L4.27148 33.1274L4.29102 32.8462L5.57617 13.8433L5.5918 13.6138H23.8604ZM41.4092 13.0093C45.458 13.0094 48.5204 14.5892 50.5566 17.7534C52.5808 20.8991 53.5752 25.5861 53.5752 31.7788C53.5752 37.727 52.5154 42.3506 50.3652 45.6196L50.1543 45.9321C47.872 49.2095 44.6615 50.8511 40.5518 50.8511C36.7082 50.851 33.6916 49.2742 31.5283 46.1323V46.1313C29.3886 42.9988 28.335 38.4977 28.335 32.6606C28.335 26.2549 29.4384 21.3675 31.6787 18.0327L31.8926 17.7231C34.1325 14.5811 37.3146 13.0093 41.4092 13.0093ZM41.1318 18.1636C40.0838 18.1636 39.1762 18.4515 38.3994 19.022C37.62 19.5944 36.9586 20.4619 36.4229 21.6421C35.3485 24.0089 34.7998 27.5893 34.7998 32.4087C34.7998 36.9165 35.3372 40.2622 36.3887 42.4722C36.9129 43.5738 37.5608 44.3837 38.3242 44.9185C39.0855 45.4517 39.9762 45.7212 41.0059 45.7212C42.0167 45.7212 42.8913 45.4482 43.6396 44.9067C44.3906 44.3634 45.0284 43.5396 45.5449 42.4185C46.5809 40.1697 47.1103 36.7661 47.1104 32.1821C47.1104 27.4379 46.592 23.9128 45.5752 21.5825C45.0679 20.4202 44.4419 19.5664 43.7061 19.0044C42.9735 18.4449 42.1187 18.1636 41.1318 18.1636Z" fill="url(#paint3_radial_1933_4568)"/>
<path d="M23.8604 13.6138V19.0962H10.915L10.3438 27.6372C11.3977 27.5801 12.3606 27.5513 13.2314 27.5513C17.1024 27.5513 20.127 28.545 22.2695 30.5659H22.2705C24.4295 32.5868 25.498 35.3452 25.498 38.8101C25.498 42.3365 24.3486 45.2082 22.04 47.4019L21.8135 47.6118C19.3703 49.8141 16.0202 50.9008 11.7949 50.9009C8.25223 50.9009 5.57065 50.4047 3.78418 49.3813L3.66016 49.311V43.0854L4.04395 43.3442C6.37942 44.9177 8.7351 45.6968 11.1143 45.6968C13.525 45.6967 15.4384 45.0859 16.8789 43.8882C18.314 42.6783 19.0332 41.0777 19.0332 39.062C19.0331 37.0833 18.3003 35.5633 16.8389 34.4712L16.8379 34.4702C15.3851 33.3726 13.2702 32.8062 10.459 32.8062C9.7355 32.8062 8.44881 32.8628 6.5957 32.9761L4.55273 33.1079L4.27148 33.1274L4.29102 32.8462L5.57617 13.8433L5.5918 13.6138H23.8604ZM41.4092 13.0093C45.458 13.0094 48.5204 14.5892 50.5566 17.7534C52.5808 20.8991 53.5752 25.5861 53.5752 31.7788C53.5752 37.727 52.5154 42.3506 50.3652 45.6196L50.1543 45.9321C47.872 49.2095 44.6615 50.8511 40.5518 50.8511C36.7082 50.851 33.6916 49.2742 31.5283 46.1323V46.1313C29.3886 42.9988 28.335 38.4977 28.335 32.6606C28.335 26.2549 29.4384 21.3675 31.6787 18.0327L31.8926 17.7231C34.1325 14.5811 37.3146 13.0093 41.4092 13.0093ZM41.1318 18.1636C40.0838 18.1636 39.1762 18.4515 38.3994 19.022C37.62 19.5944 36.9586 20.4619 36.4229 21.6421C35.3485 24.0089 34.7998 27.5893 34.7998 32.4087C34.7998 36.9165 35.3372 40.2622 36.3887 42.4722C36.9129 43.5738 37.5608 44.3837 38.3242 44.9185C39.0855 45.4517 39.9762 45.7212 41.0059 45.7212C42.0167 45.7212 42.8913 45.4482 43.6396 44.9067C44.3906 44.3634 45.0284 43.5396 45.5449 42.4185C46.5809 40.1697 47.1103 36.7661 47.1104 32.1821C47.1104 27.4379 46.592 23.9128 45.5752 21.5825C45.0679 20.4202 44.4419 19.5664 43.7061 19.0044C42.9735 18.4449 42.1187 18.1636 41.1318 18.1636Z" stroke="url(#paint4_radial_1933_4568)" stroke-width="0.492081"/>
<path d="M23.8604 13.6138V19.0962H10.915L10.3438 27.6372C11.3977 27.5801 12.3606 27.5513 13.2314 27.5513C17.1024 27.5513 20.127 28.545 22.2695 30.5659H22.2705C24.4295 32.5868 25.498 35.3452 25.498 38.8101C25.498 42.3365 24.3486 45.2082 22.04 47.4019L21.8135 47.6118C19.3703 49.8141 16.0202 50.9008 11.7949 50.9009C8.25223 50.9009 5.57065 50.4047 3.78418 49.3813L3.66016 49.311V43.0854L4.04395 43.3442C6.37942 44.9177 8.7351 45.6968 11.1143 45.6968C13.525 45.6967 15.4384 45.0859 16.8789 43.8882C18.314 42.6783 19.0332 41.0777 19.0332 39.062C19.0331 37.0833 18.3003 35.5633 16.8389 34.4712L16.8379 34.4702C15.3851 33.3726 13.2702 32.8062 10.459 32.8062C9.7355 32.8062 8.44881 32.8628 6.5957 32.9761L4.55273 33.1079L4.27148 33.1274L4.29102 32.8462L5.57617 13.8433L5.5918 13.6138H23.8604ZM41.4092 13.0093C45.458 13.0094 48.5204 14.5892 50.5566 17.7534C52.5808 20.8991 53.5752 25.5861 53.5752 31.7788C53.5752 37.727 52.5154 42.3506 50.3652 45.6196L50.1543 45.9321C47.872 49.2095 44.6615 50.8511 40.5518 50.8511C36.7082 50.851 33.6916 49.2742 31.5283 46.1323V46.1313C29.3886 42.9988 28.335 38.4977 28.335 32.6606C28.335 26.2549 29.4384 21.3675 31.6787 18.0327L31.8926 17.7231C34.1325 14.5811 37.3146 13.0093 41.4092 13.0093ZM41.1318 18.1636C40.0838 18.1636 39.1762 18.4515 38.3994 19.022C37.62 19.5944 36.9586 20.4619 36.4229 21.6421C35.3485 24.0089 34.7998 27.5893 34.7998 32.4087C34.7998 36.9165 35.3372 40.2622 36.3887 42.4722C36.9129 43.5738 37.5608 44.3837 38.3242 44.9185C39.0855 45.4517 39.9762 45.7212 41.0059 45.7212C42.0167 45.7212 42.8913 45.4482 43.6396 44.9067C44.3906 44.3634 45.0284 43.5396 45.5449 42.4185C46.5809 40.1697 47.1103 36.7661 47.1104 32.1821C47.1104 27.4379 46.592 23.9128 45.5752 21.5825C45.0679 20.4202 44.4419 19.5664 43.7061 19.0044C42.9735 18.4449 42.1187 18.1636 41.1318 18.1636Z" stroke="url(#paint5_radial_1933_4568)" stroke-width="0.492081"/>
<defs>
<radialGradient id="paint0_radial_1933_4568" cx="0" cy="0" r="1" gradientUnits="userSpaceOnUse" gradientTransform="translate(64.9194 38.4922) rotate(138.441) scale(19.532 16.42)">
<stop stop-color="white"/>
<stop offset="1" stop-color="white" stop-opacity="0.12"/>
</radialGradient>
<radialGradient id="paint1_radial_1933_4568" cx="0" cy="0" r="1" gradientUnits="userSpaceOnUse" gradientTransform="translate(68.2902 34.2677) rotate(139.024) scale(23.9208 8.92396)">
<stop offset="0.104014" stop-color="white" stop-opacity="0.8"/>
<stop offset="1" stop-color="white" stop-opacity="0.1"/>
</radialGradient>
<radialGradient id="paint2_radial_1933_4568" cx="0" cy="0" r="1" gradientUnits="userSpaceOnUse" gradientTransform="translate(50.2304 49.9535) rotate(-41.0745) scale(23.9566 8.95505)">
<stop offset="0.104014" stop-color="white" stop-opacity="0.6"/>
<stop offset="1" stop-color="white" stop-opacity="0.1"/>
</radialGradient>
<radialGradient id="paint3_radial_1933_4568" cx="0" cy="0" r="1" gradientUnits="userSpaceOnUse" gradientTransform="translate(56.5679 7.89935) rotate(139.032) scale(72.3964 66.7791)">
<stop stop-color="white"/>
<stop offset="1" stop-color="white" stop-opacity="0.12"/>
</radialGradient>
<radialGradient id="paint4_radial_1933_4568" cx="0" cy="0" r="1" gradientUnits="userSpaceOnUse" gradientTransform="translate(69.4852 -5.75295) rotate(146.016) scale(100.916 35.2458)">
<stop offset="0.104014" stop-color="white" stop-opacity="0.8"/>
<stop offset="1" stop-color="white" stop-opacity="0.1"/>
</radialGradient>
<radialGradient id="paint5_radial_1933_4568" cx="0" cy="0" r="1" gradientUnits="userSpaceOnUse" gradientTransform="translate(-14.1936 50.6552) rotate(-34.0763) scale(101.026 35.3831)">
<stop offset="0.104014" stop-color="white" stop-opacity="0.6"/>
<stop offset="1" stop-color="white" stop-opacity="0.1"/>
</radialGradient>
</defs>
</svg>
