<svg width="20" height="20" viewBox="0 0 20 20" fill="none" xmlns="http://www.w3.org/2000/svg">
<path d="M6.68678 2.05589C5.83557 2.09605 5.25429 2.23189 4.74612 2.43157C4.2202 2.63654 3.77443 2.91158 3.33091 3.3567C2.88738 3.80183 2.61426 4.24791 2.41074 4.77464C2.21378 5.28392 2.08033 5.86569 2.04273 6.71738C2.00513 7.56907 1.99681 7.84283 2.00097 10.0153C2.00513 12.1878 2.01473 12.4602 2.05601 13.3136C2.09665 14.1647 2.23202 14.7458 2.4317 15.2541C2.63698 15.78 2.9117 16.2256 3.35699 16.6693C3.80227 17.113 4.24804 17.3855 4.77604 17.5893C5.28485 17.786 5.86677 17.9201 6.7183 17.9573C7.56983 17.9946 7.84391 18.0033 10.0158 17.9991C12.1876 17.9949 12.4611 17.9853 13.3144 17.9449C14.1677 17.9044 14.7457 17.7681 15.2542 17.5693C15.7802 17.3636 16.2261 17.0893 16.6694 16.6439C17.1128 16.1984 17.3858 15.752 17.5891 15.225C17.7863 14.7162 17.9202 14.1343 17.9571 13.2834C17.9944 12.4294 18.0032 12.1568 17.9991 9.98461C17.9949 7.81243 17.9851 7.54011 17.9447 6.68698C17.9042 5.83385 17.7687 5.25448 17.5691 4.74584C17.3635 4.21991 17.0891 3.77463 16.644 3.33062C16.1989 2.88662 15.7522 2.61382 15.2253 2.41093C14.7161 2.21397 14.1345 2.07973 13.283 2.04293C12.4315 2.00613 12.1574 1.99669 9.98473 2.00085C7.81207 2.00501 7.54007 2.01429 6.68678 2.05589ZM6.78022 16.5181C6.00021 16.4842 5.57669 16.3546 5.29445 16.2461C4.92068 16.1021 4.65444 15.928 4.37316 15.6495C4.09187 15.3709 3.91907 15.1037 3.77315 14.7307C3.66355 14.4485 3.53155 14.0255 3.49507 13.2454C3.45539 12.4024 3.44707 12.1493 3.44243 10.0134C3.43779 7.87755 3.44595 7.62475 3.48291 6.78138C3.51619 6.00201 3.64659 5.57801 3.75491 5.29592C3.89891 4.92168 4.07235 4.65592 4.35156 4.37479C4.63076 4.09367 4.89716 3.92055 5.27045 3.77463C5.55237 3.66455 5.97541 3.53366 6.7551 3.49654C7.59879 3.45654 7.85159 3.44854 9.98713 3.4439C12.1227 3.43926 12.3761 3.44726 13.2201 3.48438C13.9995 3.5183 14.4237 3.64743 14.7054 3.75639C15.0793 3.90039 15.3454 4.07335 15.6266 4.35303C15.9077 4.63272 16.081 4.89816 16.2269 5.27224C16.3371 5.55337 16.468 5.97625 16.5048 6.75642C16.545 7.60011 16.5541 7.85307 16.5579 9.98845C16.5618 12.1238 16.5542 12.3774 16.5173 13.2205C16.4832 14.0005 16.3539 14.4242 16.2453 14.7067C16.1013 15.0803 15.9277 15.3467 15.6483 15.6277C15.3689 15.9087 15.1029 16.0818 14.7294 16.2277C14.4478 16.3376 14.0243 16.4688 13.2452 16.506C12.4016 16.5456 12.1488 16.554 10.0124 16.5586C7.87607 16.5632 7.62407 16.5546 6.78038 16.5181M13.302 5.72425C13.3024 5.91413 13.359 6.09966 13.4648 6.25736C13.5705 6.41507 13.7207 6.53786 13.8962 6.61022C14.0718 6.68258 14.2649 6.70125 14.451 6.66387C14.6372 6.62649 14.8081 6.53474 14.9421 6.40023C15.0762 6.26571 15.1673 6.09447 15.204 5.90817C15.2407 5.72186 15.2213 5.52886 15.1483 5.35357C15.0753 5.17827 14.9519 5.02857 14.7938 4.92338C14.6358 4.8182 14.45 4.76226 14.2601 4.76264C14.0056 4.76315 13.7617 4.86473 13.582 5.04506C13.4023 5.22539 13.3016 5.46969 13.302 5.72425ZM5.89237 10.008C5.89685 12.2768 7.73943 14.1119 10.0078 14.1075C12.2761 14.1032 14.1125 12.2608 14.1081 9.99197C14.1038 7.72315 12.2608 5.88761 9.99209 5.89209C7.72343 5.89657 5.88805 7.73947 5.89237 10.008ZM7.33335 10.0051C7.3323 9.47766 7.48769 8.96176 7.77984 8.52264C8.072 8.08352 8.48781 7.74089 8.9747 7.53809C9.46158 7.33528 9.99767 7.28141 10.5152 7.38328C11.0327 7.48516 11.5083 7.7382 11.882 8.11041C12.2557 8.48262 12.5106 8.95729 12.6146 9.47438C12.7185 9.99147 12.6667 10.5278 12.4659 11.0155C12.265 11.5031 11.924 11.9203 11.486 12.2142C11.0481 12.5081 10.5328 12.6655 10.0054 12.6666C9.65516 12.6673 9.30823 12.599 8.9844 12.4657C8.66057 12.3323 8.36619 12.1365 8.11806 11.8893C7.86993 11.6422 7.67292 11.3486 7.53828 11.0253C7.40363 10.702 7.334 10.3553 7.33335 10.0051Z" fill="black"/>
</svg>
