<svg viewBox="0 0 96 96" fill="none" xmlns="http://www.w3.org/2000/svg">
<rect x="12.1621" y="12.2793" width="55.1146" height="55.1146" rx="12" fill="url(#paint0_radial_492_7)" fill-opacity="0.5"/>
<rect x="12.6621" y="12.7793" width="54.1146" height="54.1146" rx="11.5" stroke="url(#paint1_radial_492_7)" stroke-opacity="0.5"/>
<path d="M12.1621 24.2793C12.1621 17.6519 17.5347 12.2793 24.1621 12.2793H55.2767C61.9041 12.2793 67.2767 17.6519 67.2767 24.2793V28.8625H12.1621V24.2793Z" fill="url(#paint2_radial_492_7)" fill-opacity="0.6"/>
<path d="M12.6621 24.2793C12.6621 17.928 17.8108 12.7793 24.1621 12.7793H55.2767C61.628 12.7793 66.7767 17.928 66.7767 24.2793V28.3625H12.6621V24.2793Z" stroke="url(#paint3_radial_492_7)" stroke-opacity="0.7"/>
<path d="M12.6621 24.2793C12.6621 17.928 17.8108 12.7793 24.1621 12.7793H55.2767C61.628 12.7793 66.7767 17.928 66.7767 24.2793V28.3625H12.6621V24.2793Z" stroke="url(#paint4_radial_492_7)" stroke-opacity="0.7"/>
<g clip-path="url(#clip0_492_7)">
<path d="M36.3659 39.1983C37.2532 38.2856 37.2532 36.8003 36.3659 35.8876C35.4786 34.9749 34.0347 34.9749 33.1474 35.8876L24.0443 45.2513C23.157 46.164 23.157 47.6493 24.0443 48.562L33.1474 57.9258C34.0347 58.8384 35.4786 58.8384 36.3659 57.9258C37.2532 57.0131 37.2532 55.5278 36.3659 54.6151L28.8742 46.9088L36.3659 39.1983Z" fill="url(#paint5_radial_492_7)" fill-opacity="0.9"/>
<path d="M36.3659 39.1983C37.2532 38.2856 37.2532 36.8003 36.3659 35.8876C35.4786 34.9749 34.0347 34.9749 33.1474 35.8876L24.0443 45.2513C23.157 46.164 23.157 47.6493 24.0443 48.562L33.1474 57.9258C34.0347 58.8384 35.4786 58.8384 36.3659 57.9258C37.2532 57.0131 37.2532 55.5278 36.3659 54.6151L28.8742 46.9088L36.3659 39.1983Z" fill="url(#paint6_radial_492_7)" fill-opacity="0.7"/>
</g>
<g clip-path="url(#clip1_492_7)">
<path d="M43.5605 39.1982C42.6732 38.2855 42.6732 36.8002 43.5605 35.8875C44.4478 34.9748 45.8917 34.9748 46.779 35.8875L55.8821 45.2513C56.7694 46.164 56.7694 47.6493 55.8821 48.5619L46.779 57.9257C45.8917 58.8384 44.4478 58.8384 43.5605 57.9257C42.6732 57.013 42.6732 55.5277 43.5605 54.615L51.0522 46.9088L43.5605 39.1982Z" fill="url(#paint7_radial_492_7)" fill-opacity="0.9"/>
<path d="M43.5605 39.1982C42.6732 38.2855 42.6732 36.8002 43.5605 35.8875C44.4478 34.9748 45.8917 34.9748 46.779 35.8875L55.8821 45.2513C56.7694 46.164 56.7694 47.6493 55.8821 48.5619L46.779 57.9257C45.8917 58.8384 44.4478 58.8384 43.5605 57.9257C42.6732 57.013 42.6732 55.5277 43.5605 54.615L51.0522 46.9088L43.5605 39.1982Z" fill="url(#paint8_radial_492_7)" fill-opacity="0.7"/>
</g>
<g clip-path="url(#clip2_492_7)">
<path d="M72.92 50.1304C74.0316 50.3736 74.3052 51.7284 73.5018 52.5317L67.5052 58.524C65.6293 60.3999 65.6293 63.4482 67.5052 65.324C69.3854 67.1999 72.4293 67.1999 74.3052 65.324L80.3018 59.3274C81.1051 58.524 82.4599 58.7976 82.7031 59.9092C83.6019 64.0344 82.4512 68.5156 79.2423 71.7202C75.4385 75.524 69.837 76.4402 65.169 74.4601L56.5757 83.0535C54.6999 84.9293 51.6516 84.9293 49.7757 83.0535C47.8999 81.1776 47.8999 78.1293 49.7757 76.2535L58.3691 67.6602C56.389 62.9922 57.3052 57.3907 61.109 53.5869C64.3136 50.3866 68.7948 49.2316 72.92 50.1304Z" fill="white"/>
</g>
<defs>
<radialGradient id="paint0_radial_492_7" cx="0" cy="0" r="1" gradientUnits="userSpaceOnUse" gradientTransform="translate(73.6098 20.3796) rotate(146.098) scale(103.732 98.7234)">
<stop stop-color="white" stop-opacity="0.6"/>
<stop offset="1" stop-color="white" stop-opacity="0.05"/>
</radialGradient>
<radialGradient id="paint1_radial_492_7" cx="0" cy="0" r="1" gradientUnits="userSpaceOnUse" gradientTransform="translate(67.2767 12.4703) rotate(135.099) scale(77.8089 29.3162)">
<stop offset="0.104014" stop-color="white" stop-opacity="0.8"/>
<stop offset="1" stop-color="white" stop-opacity="0.1"/>
</radialGradient>
<radialGradient id="paint2_radial_492_7" cx="0" cy="0" r="1" gradientUnits="userSpaceOnUse" gradientTransform="translate(73.6098 14.7166) rotate(168.569) scale(87.8387 35.0789)">
<stop stop-color="white" stop-opacity="0.6"/>
<stop offset="1" stop-color="white" stop-opacity="0.05"/>
</radialGradient>
<radialGradient id="paint3_radial_492_7" cx="0" cy="0" r="1" gradientUnits="userSpaceOnUse" gradientTransform="translate(67.2767 12.3368) rotate(163.309) scale(57.5389 11.9282)">
<stop offset="0.104014" stop-color="white" stop-opacity="0.8"/>
<stop offset="1" stop-color="white" stop-opacity="0.1"/>
</radialGradient>
<radialGradient id="paint4_radial_492_7" cx="0" cy="0" r="1" gradientUnits="userSpaceOnUse" gradientTransform="translate(12.1621 28.8625) rotate(-16.7457) scale(57.5554 11.9842)">
<stop offset="0.104014" stop-color="white" stop-opacity="0.7"/>
<stop offset="1" stop-color="white" stop-opacity="0"/>
</radialGradient>
<radialGradient id="paint5_radial_492_7" cx="0" cy="0" r="1" gradientUnits="userSpaceOnUse" gradientTransform="translate(38.6002 38.6433) rotate(130.955) scale(32.5372 33.1116)">
<stop stop-color="white" stop-opacity="0.9"/>
<stop offset="1" stop-color="white" stop-opacity="0.05"/>
</radialGradient>
<radialGradient id="paint6_radial_492_7" cx="0" cy="0" r="1" gradientUnits="userSpaceOnUse" gradientTransform="translate(38.6002 38.6433) rotate(-143.128) scale(54.5851 55.5487)">
<stop stop-color="white" stop-opacity="0.9"/>
<stop offset="1" stop-color="white" stop-opacity="0.05"/>
</radialGradient>
<radialGradient id="paint7_radial_492_7" cx="0" cy="0" r="1" gradientUnits="userSpaceOnUse" gradientTransform="translate(41.3262 38.6432) rotate(49.045) scale(32.5372 33.1116)">
<stop stop-color="white" stop-opacity="0.9"/>
<stop offset="1" stop-color="white" stop-opacity="0.05"/>
</radialGradient>
<radialGradient id="paint8_radial_492_7" cx="0" cy="0" r="1" gradientUnits="userSpaceOnUse" gradientTransform="translate(41.3262 38.6432) rotate(-36.8719) scale(54.5851 55.5487)">
<stop stop-color="white" stop-opacity="0.9"/>
<stop offset="1" stop-color="white" stop-opacity="0.05"/>
</radialGradient>
<clipPath id="clip0_492_7">
<rect width="13.6567" height="23.4115" fill="white" transform="translate(23.3801 35.2031)"/>
</clipPath>
<clipPath id="clip1_492_7">
<rect width="13.6567" height="23.4115" fill="white" transform="matrix(-1 0 0 1 56.5464 35.2031)"/>
</clipPath>
<clipPath id="clip2_492_7">
<rect width="34.6295" height="34.6295" fill="white" transform="translate(48.3705 49.8353)"/>
</clipPath>
</defs>
</svg>
