<svg width="32" height="32" viewBox="0 0 32 32" fill="none" xmlns="http://www.w3.org/2000/svg">
<path fill-rule="evenodd" clip-rule="evenodd" d="M13.5 22C13.2239 22 13 21.8209 13 21.6L13 10.4C13 10.1791 13.2239 10 13.5 10C13.7761 10 14 10.1791 14 10.4L14 21.6C14 21.8209 13.7761 22 13.5 22Z" fill="white"/>
<path fill-rule="evenodd" clip-rule="evenodd" d="M18.5 22C18.2239 22 18 21.8209 18 21.6L18 10.4C18 10.1791 18.2239 10 18.5 10C18.7761 10 19 10.1791 19 10.4L19 21.6C19 21.8209 18.7761 22 18.5 22Z" fill="white"/>
</svg>
