<svg viewBox="0 0 142 96" fill="none" xmlns="http://www.w3.org/2000/svg">
<path d="M137.755 69.1201C138.876 69.1202 139.773 69.4769 140.42 70.207C141.063 70.934 141.372 71.9387 141.372 73.1943C141.372 74.3648 141.067 75.3386 140.441 76.0986L140.312 76.248C139.605 77.0226 138.675 77.4062 137.542 77.4062C136.446 77.4062 135.554 77.0409 134.889 76.2998C134.226 75.5617 133.903 74.59 133.903 73.4062C133.903 72.1921 134.205 71.1958 134.825 70.4375L134.953 70.2891C135.661 69.5067 136.602 69.1201 137.755 69.1201ZM139.032 61.5205L138.836 61.8281L129.124 77.0596L129.065 77.1514H127.073L127.27 76.8447L136.971 61.6133L137.029 61.5205H139.032ZM137.691 70.7197C137.069 70.7197 136.594 70.9421 136.246 71.3838L136.247 71.3848C135.901 71.8333 135.715 72.4709 135.715 73.3213C135.715 74.1339 135.9 74.746 136.244 75.1807L136.377 75.3301C136.702 75.6543 137.121 75.8174 137.648 75.8174C138.18 75.8174 138.598 75.6477 138.918 75.3096L139.049 75.1543C139.389 74.6977 139.571 74.0589 139.571 73.2158C139.571 72.3786 139.389 71.7645 139.053 71.3457L139.052 71.3438C138.725 70.9294 138.28 70.7198 137.691 70.7197ZM128.69 61.2764C129.817 61.2764 130.714 61.6283 131.354 62.3516L131.472 62.4902C132.036 63.1977 132.308 64.1479 132.308 65.3184C132.308 66.4954 132.003 67.4737 131.377 68.2344L131.247 68.3828C130.54 69.1575 129.61 69.541 128.478 69.541C127.382 69.5409 126.491 69.1799 125.825 68.4463L125.824 68.4453C125.161 67.7071 124.839 66.7323 124.839 65.542C124.839 64.3284 125.137 63.3345 125.751 62.582L125.878 62.4346C126.579 61.6582 127.525 61.2764 128.69 61.2764ZM128.627 62.8438C128.012 62.8438 127.541 63.0702 127.192 63.5205L127.191 63.5215C126.839 63.9703 126.65 64.6041 126.65 65.4463C126.65 66.2742 126.835 66.893 127.18 67.3271L127.313 67.4756C127.638 67.7995 128.056 67.9629 128.584 67.9629C129.192 67.9629 129.651 67.7412 129.985 67.2998C130.325 66.851 130.507 66.2126 130.507 65.3613C130.507 64.5319 130.325 63.9169 129.987 63.4902L129.985 63.4873C129.658 63.0593 129.213 62.8438 128.627 62.8438Z" fill="url(#paint0_radial_1329_7353)"/>
<path d="M137.755 69.1201C138.876 69.1202 139.773 69.4769 140.42 70.207C141.063 70.934 141.372 71.9387 141.372 73.1943C141.372 74.3648 141.067 75.3386 140.441 76.0986L140.312 76.248C139.605 77.0226 138.675 77.4062 137.542 77.4062C136.446 77.4062 135.554 77.0409 134.889 76.2998C134.226 75.5617 133.903 74.59 133.903 73.4062C133.903 72.1921 134.205 71.1958 134.825 70.4375L134.953 70.2891C135.661 69.5067 136.602 69.1201 137.755 69.1201ZM139.032 61.5205L138.836 61.8281L129.124 77.0596L129.065 77.1514H127.073L127.27 76.8447L136.971 61.6133L137.029 61.5205H139.032ZM137.691 70.7197C137.069 70.7197 136.594 70.9421 136.246 71.3838L136.247 71.3848C135.901 71.8333 135.715 72.4709 135.715 73.3213C135.715 74.1339 135.9 74.746 136.244 75.1807L136.377 75.3301C136.702 75.6543 137.121 75.8174 137.648 75.8174C138.18 75.8174 138.598 75.6477 138.918 75.3096L139.049 75.1543C139.389 74.6977 139.571 74.0589 139.571 73.2158C139.571 72.3786 139.389 71.7645 139.053 71.3457L139.052 71.3438C138.725 70.9294 138.28 70.7198 137.691 70.7197ZM128.69 61.2764C129.817 61.2764 130.714 61.6283 131.354 62.3516L131.472 62.4902C132.036 63.1977 132.308 64.1479 132.308 65.3184C132.308 66.4954 132.003 67.4737 131.377 68.2344L131.247 68.3828C130.54 69.1575 129.61 69.541 128.478 69.541C127.382 69.5409 126.491 69.1799 125.825 68.4463L125.824 68.4453C125.161 67.7071 124.839 66.7323 124.839 65.542C124.839 64.3284 125.137 63.3345 125.751 62.582L125.878 62.4346C126.579 61.6582 127.525 61.2764 128.69 61.2764ZM128.627 62.8438C128.012 62.8438 127.541 63.0702 127.192 63.5205L127.191 63.5215C126.839 63.9703 126.65 64.6041 126.65 65.4463C126.65 66.2742 126.835 66.893 127.18 67.3271L127.313 67.4756C127.638 67.7995 128.056 67.9629 128.584 67.9629C129.192 67.9629 129.651 67.7412 129.985 67.2998C130.325 66.851 130.507 66.2126 130.507 65.3613C130.507 64.5319 130.325 63.9169 129.987 63.4902L129.985 63.4873C129.658 63.0593 129.213 62.8438 128.627 62.8438Z" stroke="url(#paint1_radial_1329_7353)" stroke-width="0.4"/>
<path d="M137.755 69.1201C138.876 69.1202 139.773 69.4769 140.42 70.207C141.063 70.934 141.372 71.9387 141.372 73.1943C141.372 74.3648 141.067 75.3386 140.441 76.0986L140.312 76.248C139.605 77.0226 138.675 77.4062 137.542 77.4062C136.446 77.4062 135.554 77.0409 134.889 76.2998C134.226 75.5617 133.903 74.59 133.903 73.4062C133.903 72.1921 134.205 71.1958 134.825 70.4375L134.953 70.2891C135.661 69.5067 136.602 69.1201 137.755 69.1201ZM139.032 61.5205L138.836 61.8281L129.124 77.0596L129.065 77.1514H127.073L127.27 76.8447L136.971 61.6133L137.029 61.5205H139.032ZM137.691 70.7197C137.069 70.7197 136.594 70.9421 136.246 71.3838L136.247 71.3848C135.901 71.8333 135.715 72.4709 135.715 73.3213C135.715 74.1339 135.9 74.746 136.244 75.1807L136.377 75.3301C136.702 75.6543 137.121 75.8174 137.648 75.8174C138.18 75.8174 138.598 75.6477 138.918 75.3096L139.049 75.1543C139.389 74.6977 139.571 74.0589 139.571 73.2158C139.571 72.3786 139.389 71.7645 139.053 71.3457L139.052 71.3438C138.725 70.9294 138.28 70.7198 137.691 70.7197ZM128.69 61.2764C129.817 61.2764 130.714 61.6283 131.354 62.3516L131.472 62.4902C132.036 63.1977 132.308 64.1479 132.308 65.3184C132.308 66.4954 132.003 67.4737 131.377 68.2344L131.247 68.3828C130.54 69.1575 129.61 69.541 128.478 69.541C127.382 69.5409 126.491 69.1799 125.825 68.4463L125.824 68.4453C125.161 67.7071 124.839 66.7323 124.839 65.542C124.839 64.3284 125.137 63.3345 125.751 62.582L125.878 62.4346C126.579 61.6582 127.525 61.2764 128.69 61.2764ZM128.627 62.8438C128.012 62.8438 127.541 63.0702 127.192 63.5205L127.191 63.5215C126.839 63.9703 126.65 64.6041 126.65 65.4463C126.65 66.2742 126.835 66.893 127.18 67.3271L127.313 67.4756C127.638 67.7995 128.056 67.9629 128.584 67.9629C129.192 67.9629 129.651 67.7412 129.985 67.2998C130.325 66.851 130.507 66.2126 130.507 65.3613C130.507 64.5319 130.325 63.9169 129.987 63.4902L129.985 63.4873C129.658 63.0593 129.213 62.8438 128.627 62.8438Z" stroke="url(#paint2_radial_1329_7353)" stroke-width="0.4"/>
<path d="M20.9678 17.8521C23.6815 17.8521 26.2478 18.3606 28.6611 19.3804L29.1191 19.5757C31.388 20.5853 33.3777 22.1297 35.0879 24.1978L35.4316 24.6147C37.1258 26.7389 38.4615 29.4182 39.4492 32.6372L39.6455 33.2915C40.5993 36.6076 41.0713 40.5416 41.0713 45.0845C41.0713 50.8969 40.424 55.9208 39.1211 60.147L39.1221 60.1479C37.8496 64.3636 36.0724 67.8553 33.7783 70.606L33.7773 70.605C31.5159 73.3493 28.8432 75.389 25.7588 76.7124L25.7568 76.7134C22.7111 78.0046 19.4314 78.6479 15.9238 78.6479C14.7829 78.6479 13.6289 78.5795 12.4619 78.4429H12.4609C11.3268 78.3069 10.2323 78.1297 9.17871 77.9116H9.17578C8.15506 77.6946 7.21458 77.4628 6.35449 77.2173L6.34473 77.2153L6.33594 77.2124C5.50619 76.9405 4.80534 76.6791 4.23828 76.4282L3.94141 76.2964V66.6538L4.70117 67.1167C5.2515 67.4516 5.94182 67.8047 6.77637 68.1753C7.599 68.5139 8.48975 68.828 9.44922 69.1167L10.2031 69.3081C10.9567 69.4908 11.7255 69.6518 12.5098 69.7905H12.5107C13.5823 69.9486 14.6107 70.0278 15.5957 70.0278C17.8544 70.0278 19.8857 69.5968 21.6982 68.7446L21.7012 68.7437L22.042 68.5786C23.7325 67.7318 25.1825 66.5216 26.3945 64.9409C27.6875 63.2545 28.6884 61.1521 29.3857 58.6206L29.3867 58.6177L29.5176 58.1343C30.0562 56.0656 30.3681 53.7382 30.4512 51.1489C30.0799 51.6287 29.6592 52.0943 29.1865 52.5435V52.5444C28.3618 53.3273 27.4125 54.0229 26.3418 54.6323L26.333 54.6372C25.2562 55.2222 24.0578 55.693 22.7402 56.0513L22.7393 56.0503C21.4345 56.4125 20.0369 56.5923 18.5488 56.5923C16.0306 56.5923 13.6713 56.1657 11.4766 55.3081L11.4697 55.3052C9.30499 54.4207 7.41646 53.1745 5.80957 51.5669C4.19978 49.9563 2.93377 48.0036 2.00879 45.7163L2.00684 45.7114C1.1061 43.4144 0.660156 40.8642 0.660156 38.0688C0.660177 35.1936 1.11333 32.5691 2.02734 30.2017L2.21582 29.731C3.25188 27.2263 4.68465 25.0979 6.51562 23.353C8.34295 21.5848 10.4924 20.232 12.958 19.2954C15.4255 18.3313 18.0971 17.8521 20.9678 17.8521ZM20.4766 26.5132C19.2349 26.5132 18.0463 26.7669 16.9072 27.2759L16.9023 27.2778C15.7917 27.7603 14.8091 28.4593 13.9521 29.3784C13.1263 30.2934 12.461 31.4051 11.9619 32.7222C11.4667 34.0292 11.2158 35.4869 11.2158 37.1011C11.2158 38.8817 11.4551 40.4342 11.9229 41.7661L12.1182 42.2593C12.594 43.3867 13.2062 44.3467 13.9512 45.146C14.8006 46.0306 15.8178 46.7152 17.0088 47.1997C18.2295 47.6584 19.5748 47.8911 21.0498 47.8911C22.3548 47.8911 23.5441 47.6598 24.624 47.2056C25.7476 46.7174 26.7075 46.0794 27.5078 45.2925C28.3347 44.4794 28.9812 43.5262 29.4482 42.4292C29.9127 41.3383 30.1465 40.1686 30.1465 38.9155C30.1465 37.0249 29.8931 35.3179 29.3926 33.7896L29.3896 33.7817C28.9133 32.2468 28.2435 30.947 27.3857 29.8735C26.528 28.8002 25.505 27.9739 24.3154 27.3892L24.3115 27.3872C23.156 26.8065 21.8805 26.5132 20.4766 26.5132Z" fill="url(#paint3_radial_1329_7353)"/>
<path d="M20.9678 17.8521C23.6815 17.8521 26.2478 18.3606 28.6611 19.3804L29.1191 19.5757C31.388 20.5853 33.3777 22.1297 35.0879 24.1978L35.4316 24.6147C37.1258 26.7389 38.4615 29.4182 39.4492 32.6372L39.6455 33.2915C40.5993 36.6076 41.0713 40.5416 41.0713 45.0845C41.0713 50.8969 40.424 55.9208 39.1211 60.147L39.1221 60.1479C37.8496 64.3636 36.0724 67.8553 33.7783 70.606L33.7773 70.605C31.5159 73.3493 28.8432 75.389 25.7588 76.7124L25.7568 76.7134C22.7111 78.0046 19.4314 78.6479 15.9238 78.6479C14.7829 78.6479 13.6289 78.5795 12.4619 78.4429H12.4609C11.3268 78.3069 10.2323 78.1297 9.17871 77.9116H9.17578C8.15506 77.6946 7.21458 77.4628 6.35449 77.2173L6.34473 77.2153L6.33594 77.2124C5.50619 76.9405 4.80534 76.6791 4.23828 76.4282L3.94141 76.2964V66.6538L4.70117 67.1167C5.2515 67.4516 5.94182 67.8047 6.77637 68.1753C7.599 68.5139 8.48975 68.828 9.44922 69.1167L10.2031 69.3081C10.9567 69.4908 11.7255 69.6518 12.5098 69.7905H12.5107C13.5823 69.9486 14.6107 70.0278 15.5957 70.0278C17.8544 70.0278 19.8857 69.5968 21.6982 68.7446L21.7012 68.7437L22.042 68.5786C23.7325 67.7318 25.1825 66.5216 26.3945 64.9409C27.6875 63.2545 28.6884 61.1521 29.3857 58.6206L29.3867 58.6177L29.5176 58.1343C30.0562 56.0656 30.3681 53.7382 30.4512 51.1489C30.0799 51.6287 29.6592 52.0943 29.1865 52.5435V52.5444C28.3618 53.3273 27.4125 54.0229 26.3418 54.6323L26.333 54.6372C25.2562 55.2222 24.0578 55.693 22.7402 56.0513L22.7393 56.0503C21.4345 56.4125 20.0369 56.5923 18.5488 56.5923C16.0306 56.5923 13.6713 56.1657 11.4766 55.3081L11.4697 55.3052C9.30499 54.4207 7.41646 53.1745 5.80957 51.5669C4.19978 49.9563 2.93377 48.0036 2.00879 45.7163L2.00684 45.7114C1.1061 43.4144 0.660156 40.8642 0.660156 38.0688C0.660177 35.1936 1.11333 32.5691 2.02734 30.2017L2.21582 29.731C3.25188 27.2263 4.68465 25.0979 6.51562 23.353C8.34295 21.5848 10.4924 20.232 12.958 19.2954C15.4255 18.3313 18.0971 17.8521 20.9678 17.8521ZM20.4766 26.5132C19.2349 26.5132 18.0463 26.7669 16.9072 27.2759L16.9023 27.2778C15.7917 27.7603 14.8091 28.4593 13.9521 29.3784C13.1263 30.2934 12.461 31.4051 11.9619 32.7222C11.4667 34.0292 11.2158 35.4869 11.2158 37.1011C11.2158 38.8817 11.4551 40.4342 11.9229 41.7661L12.1182 42.2593C12.594 43.3867 13.2062 44.3467 13.9512 45.146C14.8006 46.0306 15.8178 46.7152 17.0088 47.1997C18.2295 47.6584 19.5748 47.8911 21.0498 47.8911C22.3548 47.8911 23.5441 47.6598 24.624 47.2056C25.7476 46.7174 26.7075 46.0794 27.5078 45.2925C28.3347 44.4794 28.9812 43.5262 29.4482 42.4292C29.9127 41.3383 30.1465 40.1686 30.1465 38.9155C30.1465 37.0249 29.8931 35.3179 29.3926 33.7896L29.3896 33.7817C28.9133 32.2468 28.2435 30.947 27.3857 29.8735C26.528 28.8002 25.505 27.9739 24.3154 27.3892L24.3115 27.3872C23.156 26.8065 21.8805 26.5132 20.4766 26.5132Z" stroke="url(#paint4_radial_1329_7353)"/>
<path d="M20.9678 17.8521C23.6815 17.8521 26.2478 18.3606 28.6611 19.3804L29.1191 19.5757C31.388 20.5853 33.3777 22.1297 35.0879 24.1978L35.4316 24.6147C37.1258 26.7389 38.4615 29.4182 39.4492 32.6372L39.6455 33.2915C40.5993 36.6076 41.0713 40.5416 41.0713 45.0845C41.0713 50.8969 40.424 55.9208 39.1211 60.147L39.1221 60.1479C37.8496 64.3636 36.0724 67.8553 33.7783 70.606L33.7773 70.605C31.5159 73.3493 28.8432 75.389 25.7588 76.7124L25.7568 76.7134C22.7111 78.0046 19.4314 78.6479 15.9238 78.6479C14.7829 78.6479 13.6289 78.5795 12.4619 78.4429H12.4609C11.3268 78.3069 10.2323 78.1297 9.17871 77.9116H9.17578C8.15506 77.6946 7.21458 77.4628 6.35449 77.2173L6.34473 77.2153L6.33594 77.2124C5.50619 76.9405 4.80534 76.6791 4.23828 76.4282L3.94141 76.2964V66.6538L4.70117 67.1167C5.2515 67.4516 5.94182 67.8047 6.77637 68.1753C7.599 68.5139 8.48975 68.828 9.44922 69.1167L10.2031 69.3081C10.9567 69.4908 11.7255 69.6518 12.5098 69.7905H12.5107C13.5823 69.9486 14.6107 70.0278 15.5957 70.0278C17.8544 70.0278 19.8857 69.5968 21.6982 68.7446L21.7012 68.7437L22.042 68.5786C23.7325 67.7318 25.1825 66.5216 26.3945 64.9409C27.6875 63.2545 28.6884 61.1521 29.3857 58.6206L29.3867 58.6177L29.5176 58.1343C30.0562 56.0656 30.3681 53.7382 30.4512 51.1489C30.0799 51.6287 29.6592 52.0943 29.1865 52.5435V52.5444C28.3618 53.3273 27.4125 54.0229 26.3418 54.6323L26.333 54.6372C25.2562 55.2222 24.0578 55.693 22.7402 56.0513L22.7393 56.0503C21.4345 56.4125 20.0369 56.5923 18.5488 56.5923C16.0306 56.5923 13.6713 56.1657 11.4766 55.3081L11.4697 55.3052C9.30499 54.4207 7.41646 53.1745 5.80957 51.5669C4.19978 49.9563 2.93377 48.0036 2.00879 45.7163L2.00684 45.7114C1.1061 43.4144 0.660156 40.8642 0.660156 38.0688C0.660177 35.1936 1.11333 32.5691 2.02734 30.2017L2.21582 29.731C3.25188 27.2263 4.68465 25.0979 6.51562 23.353C8.34295 21.5848 10.4924 20.232 12.958 19.2954C15.4255 18.3313 18.0971 17.8521 20.9678 17.8521ZM20.4766 26.5132C19.2349 26.5132 18.0463 26.7669 16.9072 27.2759L16.9023 27.2778C15.7917 27.7603 14.8091 28.4593 13.9521 29.3784C13.1263 30.2934 12.461 31.4051 11.9619 32.7222C11.4667 34.0292 11.2158 35.4869 11.2158 37.1011C11.2158 38.8817 11.4551 40.4342 11.9229 41.7661L12.1182 42.2593C12.594 43.3867 13.2062 44.3467 13.9512 45.146C14.8006 46.0306 15.8178 46.7152 17.0088 47.1997C18.2295 47.6584 19.5748 47.8911 21.0498 47.8911C22.3548 47.8911 23.5441 47.6598 24.624 47.2056C25.7476 46.7174 26.7075 46.0794 27.5078 45.2925C28.3347 44.4794 28.9812 43.5262 29.4482 42.4292C29.9127 41.3383 30.1465 40.1686 30.1465 38.9155C30.1465 37.0249 29.8931 35.3179 29.3926 33.7896L29.3896 33.7817C28.9133 32.2468 28.2435 30.947 27.3857 29.8735C26.528 28.8002 25.505 27.9739 24.3154 27.3892L24.3115 27.3872C23.156 26.8065 21.8805 26.5132 20.4766 26.5132Z" stroke="url(#paint5_radial_1329_7353)"/>
<path d="M65.8154 17.8521C68.5291 17.8521 71.0955 18.3606 73.5088 19.3804L73.9668 19.5757C76.2357 20.5853 78.2253 22.1297 79.9355 24.1978L80.2793 24.6147C81.9734 26.7389 83.3091 29.4182 84.2969 32.6372L84.4932 33.2915C85.4469 36.6076 85.9189 40.5416 85.9189 45.0845C85.9189 50.8969 85.2716 55.9208 83.9688 60.147L83.9697 60.1479C82.6972 64.3636 80.92 67.8553 78.626 70.606L78.625 70.605C76.3635 73.3493 73.6909 75.389 70.6064 76.7124L70.6045 76.7134C67.5588 78.0046 64.279 78.6479 60.7715 78.6479C59.6305 78.6479 58.4765 78.5795 57.3096 78.4429H57.3086C56.1745 78.3069 55.08 78.1297 54.0264 77.9116H54.0234C53.0027 77.6946 52.0622 77.4628 51.2021 77.2173L51.1924 77.2153L51.1836 77.2124C50.3538 76.9405 49.653 76.6791 49.0859 76.4282L48.7891 76.2964V66.6538L49.5488 67.1167C50.0992 67.4516 50.7895 67.8047 51.624 68.1753C52.4467 68.5139 53.3374 68.828 54.2969 69.1167L55.0508 69.3081C55.8043 69.4908 56.5731 69.6518 57.3574 69.7905H57.3584C58.43 69.9486 59.4584 70.0278 60.4434 70.0278C62.7021 70.0278 64.7334 69.5968 66.5459 68.7446L66.5488 68.7437L66.8896 68.5786C68.5802 67.7318 70.0302 66.5216 71.2422 64.9409C72.5352 63.2545 73.5361 61.1521 74.2334 58.6206L74.2344 58.6177L74.3652 58.1343C74.9039 56.0656 75.2158 53.7382 75.2988 51.1489C74.9276 51.6287 74.5068 52.0943 74.0342 52.5435V52.5444C73.2095 53.3273 72.2602 54.0229 71.1895 54.6323L71.1807 54.6372C70.1039 55.2222 68.9054 55.693 67.5879 56.0513L67.5869 56.0503C66.2821 56.4125 64.8846 56.5923 63.3965 56.5923C60.8783 56.5923 58.519 56.1657 56.3242 55.3081L56.3174 55.3052C54.1526 54.4207 52.2641 53.1745 50.6572 51.5669C49.0474 49.9563 47.7814 48.0036 46.8564 45.7163L46.8545 45.7114C45.9538 43.4144 45.5078 40.8642 45.5078 38.0688C45.5078 35.1936 45.961 32.5691 46.875 30.2017L47.0635 29.731C48.0995 27.2263 49.5323 25.0979 51.3633 23.353C53.1906 21.5848 55.3401 20.232 57.8057 19.2954C60.2731 18.3313 62.9448 17.8521 65.8154 17.8521ZM65.3242 26.5132C64.0825 26.5132 62.8939 26.7669 61.7549 27.2759L61.75 27.2778C60.6394 27.7603 59.6568 28.4593 58.7998 29.3784C57.974 30.2934 57.3086 31.4051 56.8096 32.7222C56.3143 34.0292 56.0635 35.4869 56.0635 37.1011C56.0635 38.8817 56.3027 40.4342 56.7705 41.7661L56.9658 42.2593C57.4416 43.3867 58.0539 44.3467 58.7988 45.146C59.6482 46.0306 60.6654 46.7152 61.8564 47.1997C63.0772 47.6584 64.4224 47.8911 65.8975 47.8911C67.2025 47.8911 68.3918 47.6598 69.4717 47.2056C70.5953 46.7174 71.5551 46.0794 72.3555 45.2925L72.6572 44.981C73.3413 44.2389 73.8872 43.389 74.2959 42.4292C74.7603 41.3383 74.9941 40.1686 74.9941 38.9155C74.9941 37.0249 74.7408 35.3179 74.2402 33.7896L74.2373 33.7817C73.761 32.2468 73.0912 30.947 72.2334 29.8735C71.3756 28.8002 70.3526 27.9739 69.1631 27.3892L69.1592 27.3872C68.0036 26.8065 66.7282 26.5132 65.3242 26.5132Z" fill="url(#paint6_radial_1329_7353)"/>
<path d="M65.8154 17.8521C68.5291 17.8521 71.0955 18.3606 73.5088 19.3804L73.9668 19.5757C76.2357 20.5853 78.2253 22.1297 79.9355 24.1978L80.2793 24.6147C81.9734 26.7389 83.3091 29.4182 84.2969 32.6372L84.4932 33.2915C85.4469 36.6076 85.9189 40.5416 85.9189 45.0845C85.9189 50.8969 85.2716 55.9208 83.9688 60.147L83.9697 60.1479C82.6972 64.3636 80.92 67.8553 78.626 70.606L78.625 70.605C76.3635 73.3493 73.6909 75.389 70.6064 76.7124L70.6045 76.7134C67.5588 78.0046 64.279 78.6479 60.7715 78.6479C59.6305 78.6479 58.4765 78.5795 57.3096 78.4429H57.3086C56.1745 78.3069 55.08 78.1297 54.0264 77.9116H54.0234C53.0027 77.6946 52.0622 77.4628 51.2021 77.2173L51.1924 77.2153L51.1836 77.2124C50.3538 76.9405 49.653 76.6791 49.0859 76.4282L48.7891 76.2964V66.6538L49.5488 67.1167C50.0992 67.4516 50.7895 67.8047 51.624 68.1753C52.4467 68.5139 53.3374 68.828 54.2969 69.1167L55.0508 69.3081C55.8043 69.4908 56.5731 69.6518 57.3574 69.7905H57.3584C58.43 69.9486 59.4584 70.0278 60.4434 70.0278C62.7021 70.0278 64.7334 69.5968 66.5459 68.7446L66.5488 68.7437L66.8896 68.5786C68.5802 67.7318 70.0302 66.5216 71.2422 64.9409C72.5352 63.2545 73.5361 61.1521 74.2334 58.6206L74.2344 58.6177L74.3652 58.1343C74.9039 56.0656 75.2158 53.7382 75.2988 51.1489C74.9276 51.6287 74.5068 52.0943 74.0342 52.5435V52.5444C73.2095 53.3273 72.2602 54.0229 71.1895 54.6323L71.1807 54.6372C70.1039 55.2222 68.9054 55.693 67.5879 56.0513L67.5869 56.0503C66.2821 56.4125 64.8846 56.5923 63.3965 56.5923C60.8783 56.5923 58.519 56.1657 56.3242 55.3081L56.3174 55.3052C54.1526 54.4207 52.2641 53.1745 50.6572 51.5669C49.0474 49.9563 47.7814 48.0036 46.8564 45.7163L46.8545 45.7114C45.9538 43.4144 45.5078 40.8642 45.5078 38.0688C45.5078 35.1936 45.961 32.5691 46.875 30.2017L47.0635 29.731C48.0995 27.2263 49.5323 25.0979 51.3633 23.353C53.1906 21.5848 55.3401 20.232 57.8057 19.2954C60.2731 18.3313 62.9448 17.8521 65.8154 17.8521ZM65.3242 26.5132C64.0825 26.5132 62.8939 26.7669 61.7549 27.2759L61.75 27.2778C60.6394 27.7603 59.6568 28.4593 58.7998 29.3784C57.974 30.2934 57.3086 31.4051 56.8096 32.7222C56.3143 34.0292 56.0635 35.4869 56.0635 37.1011C56.0635 38.8817 56.3027 40.4342 56.7705 41.7661L56.9658 42.2593C57.4416 43.3867 58.0539 44.3467 58.7988 45.146C59.6482 46.0306 60.6654 46.7152 61.8564 47.1997C63.0772 47.6584 64.4224 47.8911 65.8975 47.8911C67.2025 47.8911 68.3918 47.6598 69.4717 47.2056C70.5953 46.7174 71.5551 46.0794 72.3555 45.2925L72.6572 44.981C73.3413 44.2389 73.8872 43.389 74.2959 42.4292C74.7603 41.3383 74.9941 40.1686 74.9941 38.9155C74.9941 37.0249 74.7408 35.3179 74.2402 33.7896L74.2373 33.7817C73.761 32.2468 73.0912 30.947 72.2334 29.8735C71.3756 28.8002 70.3526 27.9739 69.1631 27.3892L69.1592 27.3872C68.0036 26.8065 66.7282 26.5132 65.3242 26.5132Z" stroke="url(#paint7_radial_1329_7353)"/>
<path d="M65.8154 17.8521C68.5291 17.8521 71.0955 18.3606 73.5088 19.3804L73.9668 19.5757C76.2357 20.5853 78.2253 22.1297 79.9355 24.1978L80.2793 24.6147C81.9734 26.7389 83.3091 29.4182 84.2969 32.6372L84.4932 33.2915C85.4469 36.6076 85.9189 40.5416 85.9189 45.0845C85.9189 50.8969 85.2716 55.9208 83.9688 60.147L83.9697 60.1479C82.6972 64.3636 80.92 67.8553 78.626 70.606L78.625 70.605C76.3635 73.3493 73.6909 75.389 70.6064 76.7124L70.6045 76.7134C67.5588 78.0046 64.279 78.6479 60.7715 78.6479C59.6305 78.6479 58.4765 78.5795 57.3096 78.4429H57.3086C56.1745 78.3069 55.08 78.1297 54.0264 77.9116H54.0234C53.0027 77.6946 52.0622 77.4628 51.2021 77.2173L51.1924 77.2153L51.1836 77.2124C50.3538 76.9405 49.653 76.6791 49.0859 76.4282L48.7891 76.2964V66.6538L49.5488 67.1167C50.0992 67.4516 50.7895 67.8047 51.624 68.1753C52.4467 68.5139 53.3374 68.828 54.2969 69.1167L55.0508 69.3081C55.8043 69.4908 56.5731 69.6518 57.3574 69.7905H57.3584C58.43 69.9486 59.4584 70.0278 60.4434 70.0278C62.7021 70.0278 64.7334 69.5968 66.5459 68.7446L66.5488 68.7437L66.8896 68.5786C68.5802 67.7318 70.0302 66.5216 71.2422 64.9409C72.5352 63.2545 73.5361 61.1521 74.2334 58.6206L74.2344 58.6177L74.3652 58.1343C74.9039 56.0656 75.2158 53.7382 75.2988 51.1489C74.9276 51.6287 74.5068 52.0943 74.0342 52.5435V52.5444C73.2095 53.3273 72.2602 54.0229 71.1895 54.6323L71.1807 54.6372C70.1039 55.2222 68.9054 55.693 67.5879 56.0513L67.5869 56.0503C66.2821 56.4125 64.8846 56.5923 63.3965 56.5923C60.8783 56.5923 58.519 56.1657 56.3242 55.3081L56.3174 55.3052C54.1526 54.4207 52.2641 53.1745 50.6572 51.5669C49.0474 49.9563 47.7814 48.0036 46.8564 45.7163L46.8545 45.7114C45.9538 43.4144 45.5078 40.8642 45.5078 38.0688C45.5078 35.1936 45.961 32.5691 46.875 30.2017L47.0635 29.731C48.0995 27.2263 49.5323 25.0979 51.3633 23.353C53.1906 21.5848 55.3401 20.232 57.8057 19.2954C60.2731 18.3313 62.9448 17.8521 65.8154 17.8521ZM65.3242 26.5132C64.0825 26.5132 62.8939 26.7669 61.7549 27.2759L61.75 27.2778C60.6394 27.7603 59.6568 28.4593 58.7998 29.3784C57.974 30.2934 57.3086 31.4051 56.8096 32.7222C56.3143 34.0292 56.0635 35.4869 56.0635 37.1011C56.0635 38.8817 56.3027 40.4342 56.7705 41.7661L56.9658 42.2593C57.4416 43.3867 58.0539 44.3467 58.7988 45.146C59.6482 46.0306 60.6654 46.7152 61.8564 47.1997C63.0772 47.6584 64.4224 47.8911 65.8975 47.8911C67.2025 47.8911 68.3918 47.6598 69.4717 47.2056C70.5953 46.7174 71.5551 46.0794 72.3555 45.2925L72.6572 44.981C73.3413 44.2389 73.8872 43.389 74.2959 42.4292C74.7603 41.3383 74.9941 40.1686 74.9941 38.9155C74.9941 37.0249 74.7408 35.3179 74.2402 33.7896L74.2373 33.7817C73.761 32.2468 73.0912 30.947 72.2334 29.8735C71.3756 28.8002 70.3526 27.9739 69.1631 27.3892L69.1592 27.3872C68.0036 26.8065 66.7282 26.5132 65.3242 26.5132Z" stroke="url(#paint8_radial_1329_7353)"/>
<path d="M135.002 17.3633V22.7422L134.94 22.8535C132.486 27.353 130.169 31.8116 127.987 36.2285V36.2295C125.809 40.6135 123.835 45.0244 122.065 49.4619C120.297 53.8976 118.759 58.374 117.453 62.8906L117.452 62.8916C116.148 67.3748 115.143 71.9672 114.437 76.6689L114.372 77.0947H103.405L103.495 76.5176C104.154 72.2917 105.087 68.08 106.294 63.8828L106.295 63.8809L106.767 62.2988C107.89 58.61 109.171 54.9317 110.609 51.2646C112.252 47.0483 114.086 42.8186 116.111 38.5762L116.113 38.5742L116.888 36.9834C118.591 33.5069 120.377 30.0036 122.245 26.4727H94.7656V17.3633H135.002Z" fill="url(#paint9_radial_1329_7353)"/>
<path d="M135.002 17.3633V22.7422L134.94 22.8535C132.486 27.353 130.169 31.8116 127.987 36.2285V36.2295C125.809 40.6135 123.835 45.0244 122.065 49.4619C120.297 53.8976 118.759 58.374 117.453 62.8906L117.452 62.8916C116.148 67.3748 115.143 71.9672 114.437 76.6689L114.372 77.0947H103.405L103.495 76.5176C104.154 72.2917 105.087 68.08 106.294 63.8828L106.295 63.8809L106.767 62.2988C107.89 58.61 109.171 54.9317 110.609 51.2646C112.252 47.0483 114.086 42.8186 116.111 38.5762L116.113 38.5742L116.888 36.9834C118.591 33.5069 120.377 30.0036 122.245 26.4727H94.7656V17.3633H135.002Z" stroke="url(#paint10_radial_1329_7353)"/>
<path d="M135.002 17.3633V22.7422L134.94 22.8535C132.486 27.353 130.169 31.8116 127.987 36.2285V36.2295C125.809 40.6135 123.835 45.0244 122.065 49.4619C120.297 53.8976 118.759 58.374 117.453 62.8906L117.452 62.8916C116.148 67.3748 115.143 71.9672 114.437 76.6689L114.372 77.0947H103.405L103.495 76.5176C104.154 72.2917 105.087 68.08 106.294 63.8828L106.295 63.8809L106.767 62.2988C107.89 58.61 109.171 54.9317 110.609 51.2646C112.252 47.0483 114.086 42.8186 116.111 38.5762L116.113 38.5742L116.888 36.9834C118.591 33.5069 120.377 30.0036 122.245 26.4727H94.7656V17.3633H135.002Z" stroke="url(#paint11_radial_1329_7353)"/>
<path d="M91.2803 65.9375C93.065 65.9375 94.5956 66.5268 95.8398 67.71L96.0703 67.9346C97.1883 69.0726 97.7598 70.4372 97.7598 72.0078C97.7597 73.6585 97.1078 75.0851 95.8398 76.2646H95.8389C94.5933 77.4212 93.0631 77.9961 91.2803 77.9961C89.5224 77.996 88.0066 77.4197 86.7627 76.2646L86.7578 76.2607C85.5181 75.08 84.8829 73.6544 84.8828 72.0078C84.8828 70.3366 85.5161 68.8966 86.7578 67.7139C88.001 66.5299 89.5187 65.9376 91.2803 65.9375Z" fill="url(#paint12_radial_1329_7353)"/>
<path d="M91.2803 65.9375C93.065 65.9375 94.5956 66.5268 95.8398 67.71L96.0703 67.9346C97.1883 69.0726 97.7598 70.4372 97.7598 72.0078C97.7597 73.6585 97.1078 75.0851 95.8398 76.2646H95.8389C94.5933 77.4212 93.0631 77.9961 91.2803 77.9961C89.5224 77.996 88.0066 77.4197 86.7627 76.2646L86.7578 76.2607C85.5181 75.08 84.8829 73.6544 84.8828 72.0078C84.8828 70.3366 85.5161 68.8966 86.7578 67.7139C88.001 66.5299 89.5187 65.9376 91.2803 65.9375Z" stroke="url(#paint13_radial_1329_7353)"/>
<path d="M91.2803 65.9375C93.065 65.9375 94.5956 66.5268 95.8398 67.71L96.0703 67.9346C97.1883 69.0726 97.7598 70.4372 97.7598 72.0078C97.7597 73.6585 97.1078 75.0851 95.8398 76.2646H95.8389C94.5933 77.4212 93.0631 77.9961 91.2803 77.9961C89.5224 77.996 88.0066 77.4197 86.7627 76.2646L86.7578 76.2607C85.5181 75.08 84.8829 73.6544 84.8828 72.0078C84.8828 70.3366 85.5161 68.8966 86.7578 67.7139C88.001 66.5299 89.5187 65.9376 91.2803 65.9375Z" stroke="url(#paint14_radial_1329_7353)"/>
<defs>
<radialGradient id="paint0_radial_1329_7353" cx="0" cy="0" r="1" gradientUnits="userSpaceOnUse" gradientTransform="translate(141.348 59.8714) rotate(138.441) scale(29.5419 24.835)">
<stop stop-color="white"/>
<stop offset="1" stop-color="white" stop-opacity="0.12"/>
</radialGradient>
<radialGradient id="paint1_radial_1329_7353" cx="0" cy="0" r="1" gradientUnits="userSpaceOnUse" gradientTransform="translate(146.446 53.4819) rotate(139.024) scale(36.1799 13.4973)">
<stop offset="0.104014" stop-color="white" stop-opacity="0.8"/>
<stop offset="1" stop-color="white" stop-opacity="0.1"/>
</radialGradient>
<radialGradient id="paint2_radial_1329_7353" cx="0" cy="0" r="1" gradientUnits="userSpaceOnUse" gradientTransform="translate(119.131 77.2064) rotate(-41.0741) scale(36.2341 13.5444)">
<stop offset="0.104014" stop-color="white" stop-opacity="0.6"/>
<stop offset="1" stop-color="white" stop-opacity="0.1"/>
</radialGradient>
<radialGradient id="paint3_radial_1329_7353" cx="0" cy="0" r="1" gradientUnits="userSpaceOnUse" gradientTransform="translate(41 12.25) rotate(125.936) scale(92.0122 74.0459)">
<stop stop-color="white"/>
<stop offset="1" stop-color="white" stop-opacity="0.12"/>
</radialGradient>
<radialGradient id="paint4_radial_1329_7353" cx="0" cy="0" r="1" gradientUnits="userSpaceOnUse" gradientTransform="translate(53.4542 -12.0391) rotate(126.497) scale(112.189 40.4213)">
<stop offset="0.104014" stop-color="white" stop-opacity="0.8"/>
<stop offset="1" stop-color="white" stop-opacity="0.1"/>
</radialGradient>
<radialGradient id="paint5_radial_1329_7353" cx="0" cy="0" r="1" gradientUnits="userSpaceOnUse" gradientTransform="translate(-13.273 78.1482) rotate(-53.5983) scale(112.441 40.5317)">
<stop offset="0.104014" stop-color="white" stop-opacity="0.6"/>
<stop offset="1" stop-color="white" stop-opacity="0.1"/>
</radialGradient>
<radialGradient id="paint6_radial_1329_7353" cx="0" cy="0" r="1" gradientUnits="userSpaceOnUse" gradientTransform="translate(85.8477 12.25) rotate(125.936) scale(92.0122 74.0459)">
<stop stop-color="white"/>
<stop offset="1" stop-color="white" stop-opacity="0.12"/>
</radialGradient>
<radialGradient id="paint7_radial_1329_7353" cx="0" cy="0" r="1" gradientUnits="userSpaceOnUse" gradientTransform="translate(98.3019 -12.0391) rotate(126.497) scale(112.189 40.4213)">
<stop offset="0.104014" stop-color="white" stop-opacity="0.8"/>
<stop offset="1" stop-color="white" stop-opacity="0.1"/>
</radialGradient>
<radialGradient id="paint8_radial_1329_7353" cx="0" cy="0" r="1" gradientUnits="userSpaceOnUse" gradientTransform="translate(31.5746 78.1482) rotate(-53.5983) scale(112.441 40.5317)">
<stop offset="0.104014" stop-color="white" stop-opacity="0.6"/>
<stop offset="1" stop-color="white" stop-opacity="0.1"/>
</radialGradient>
<radialGradient id="paint9_radial_1329_7353" cx="0" cy="0" r="1" gradientUnits="userSpaceOnUse" gradientTransform="translate(134.929 11.8699) rotate(126.305) scale(90.7996 73.372)">
<stop stop-color="white"/>
<stop offset="1" stop-color="white" stop-opacity="0.12"/>
</radialGradient>
<radialGradient id="paint10_radial_1329_7353" cx="0" cy="0" r="1" gradientUnits="userSpaceOnUse" gradientTransform="translate(150.558 -12.4448) rotate(132.757) scale(122.495 46.0115)">
<stop offset="0.104014" stop-color="white" stop-opacity="0.8"/>
<stop offset="1" stop-color="white" stop-opacity="0.1"/>
</radialGradient>
<radialGradient id="paint11_radial_1329_7353" cx="0" cy="0" r="1" gradientUnits="userSpaceOnUse" gradientTransform="translate(67.397 77.4959) rotate(-47.3421) scale(122.725 46.1543)">
<stop offset="0.104014" stop-color="white" stop-opacity="0.6"/>
<stop offset="1" stop-color="white" stop-opacity="0.1"/>
</radialGradient>
<radialGradient id="paint12_radial_1329_7353" cx="0" cy="0" r="1" gradientUnits="userSpaceOnUse" gradientTransform="translate(101 66.25) rotate(146.265) scale(23.1009 21.3022)">
<stop stop-color="white"/>
<stop offset="1" stop-color="white" stop-opacity="0.12"/>
</radialGradient>
<radialGradient id="paint13_radial_1329_7353" cx="0" cy="0" r="1" gradientUnits="userSpaceOnUse" gradientTransform="translate(150.556 -12.4448) rotate(132.757) scale(122.495 46.0115)">
<stop offset="0.104014" stop-color="white" stop-opacity="0.8"/>
<stop offset="1" stop-color="white" stop-opacity="0.1"/>
</radialGradient>
<radialGradient id="paint14_radial_1329_7353" cx="0" cy="0" r="1" gradientUnits="userSpaceOnUse" gradientTransform="translate(67.395 77.4959) rotate(-47.3421) scale(122.725 46.1543)">
<stop offset="0.104014" stop-color="white" stop-opacity="0.6"/>
<stop offset="1" stop-color="white" stop-opacity="0.1"/>
</radialGradient>
</defs>
</svg>
