<svg width="20" height="20" viewBox="0 0 20 20" fill="none" xmlns="http://www.w3.org/2000/svg">
<path d="M14.1667 11.25C14.1667 10.5596 13.607 10 12.9167 10H7.08333C6.39297 10 5.83333 10.5596 5.83333 11.25V11.6667C5.83333 13.3095 7.38292 15 10 15C12.6171 15 14.1667 13.3095 14.1667 11.6667V11.25ZM12.2917 6.875C12.2917 5.60935 11.2656 4.58334 10 4.58334C8.73434 4.58334 7.70833 5.60935 7.70833 6.875C7.70833 8.14066 8.73434 9.16667 10 9.16667C11.2656 9.16667 12.2917 8.14066 12.2917 6.875ZM18.3333 10C18.3333 14.6024 14.6024 18.3333 10 18.3333C5.39762 18.3333 1.66666 14.6024 1.66666 10C1.66666 5.39763 5.39762 1.66667 10 1.66667C14.6024 1.66667 18.3333 5.39763 18.3333 10ZM17.0833 10C17.0833 6.08799 13.912 2.91667 10 2.91667C6.08798 2.91667 2.91666 6.08799 2.91666 10C2.91666 13.912 6.08798 17.0833 10 17.0833C13.912 17.0833 17.0833 13.912 17.0833 10Z" fill="black"/>
</svg>
