<svg viewBox="0 0 100 96" fill="none" xmlns="http://www.w3.org/2000/svg">
<path d="M83.8243 68.4456L83.825 68.4463C84.4907 69.1801 85.3825 69.5415 86.478 69.5415C87.6107 69.5415 88.5404 69.1577 89.2474 68.3831C89.9603 67.6026 90.308 66.5742 90.308 65.3188C90.308 64.0702 89.9992 63.072 89.3552 62.352C88.7151 61.6283 87.8171 61.2766 86.6903 61.2766C85.5245 61.2766 84.5794 61.6588 83.878 62.4354C83.1778 63.2037 82.8391 64.2474 82.8391 65.5417C82.8391 66.7322 83.1613 67.7072 83.8243 68.4456ZM85.1918 63.5213L85.1918 63.5213L85.1926 63.5202C85.5414 63.0699 86.0121 62.8441 86.6266 62.8441C87.2128 62.8441 87.6581 63.0592 87.9855 63.4873L87.9855 63.4874L87.9875 63.4899C88.3251 63.9166 88.5069 64.5318 88.5069 65.3613C88.5069 66.2126 88.3248 66.8508 87.9849 67.2996C87.6507 67.7411 87.1918 67.9634 86.5841 67.9634C85.9812 67.9634 85.5208 67.7497 85.18 67.3273C84.8356 66.8931 84.6507 66.2743 84.6507 65.4462C84.6507 64.6038 84.8391 63.97 85.1918 63.5213ZM96.8361 61.8282L97.0322 61.5207H96.6674H95.139H95.0293L94.9703 61.6132L85.2691 76.8443L85.0733 77.1517H85.4378H86.9556H87.0653L87.1243 77.0592L96.8361 61.8282ZM97.0517 71.344L97.0528 71.3454C97.3891 71.7642 97.5713 72.3783 97.5713 73.2156C97.5713 74.0588 97.3896 74.6978 97.0489 75.1545C96.7147 75.5956 96.2559 75.8177 95.6485 75.8177C95.0456 75.8177 94.5851 75.604 94.2444 75.1816C93.8995 74.7469 93.7151 74.1348 93.7151 73.3217C93.7151 72.4716 93.9003 71.8341 94.2461 71.3855C94.594 70.9431 95.0678 70.7197 95.691 70.7197C96.2794 70.7197 96.7251 70.9295 97.0517 71.3439L97.0517 71.344ZM92.8886 76.2999C93.5542 77.0411 94.4461 77.4064 95.5424 77.4064C96.6751 77.4064 97.6048 77.0227 98.3118 76.248C99.0245 75.4677 99.3724 74.443 99.3724 73.1944C99.3724 71.9386 99.0636 70.9336 98.4199 70.2066C97.7734 69.4765 96.8758 69.1203 95.7546 69.1203C94.6015 69.1203 93.6606 69.5071 92.9531 70.2897C92.246 71.0646 91.9034 72.1117 91.9034 73.4066C91.9034 74.5904 92.2259 75.5618 92.8886 76.2999Z" fill="url(#paint0_radial_1311_4072)"/>
<path d="M83.8243 68.4456L83.825 68.4463C84.4907 69.1801 85.3825 69.5415 86.478 69.5415C87.6107 69.5415 88.5404 69.1577 89.2474 68.3831C89.9603 67.6026 90.308 66.5742 90.308 65.3188C90.308 64.0702 89.9992 63.072 89.3552 62.352C88.7151 61.6283 87.8171 61.2766 86.6903 61.2766C85.5245 61.2766 84.5794 61.6588 83.878 62.4354C83.1778 63.2037 82.8391 64.2474 82.8391 65.5417C82.8391 66.7322 83.1613 67.7072 83.8243 68.4456ZM85.1918 63.5213L85.1918 63.5213L85.1926 63.5202C85.5414 63.0699 86.0121 62.8441 86.6266 62.8441C87.2128 62.8441 87.6581 63.0592 87.9855 63.4873L87.9855 63.4874L87.9875 63.4899C88.3251 63.9166 88.5069 64.5318 88.5069 65.3613C88.5069 66.2126 88.3248 66.8508 87.9849 67.2996C87.6507 67.7411 87.1918 67.9634 86.5841 67.9634C85.9812 67.9634 85.5208 67.7497 85.18 67.3273C84.8356 66.8931 84.6507 66.2743 84.6507 65.4462C84.6507 64.6038 84.8391 63.97 85.1918 63.5213ZM96.8361 61.8282L97.0322 61.5207H96.6674H95.139H95.0293L94.9703 61.6132L85.2691 76.8443L85.0733 77.1517H85.4378H86.9556H87.0653L87.1243 77.0592L96.8361 61.8282ZM97.0517 71.344L97.0528 71.3454C97.3891 71.7642 97.5713 72.3783 97.5713 73.2156C97.5713 74.0588 97.3896 74.6978 97.0489 75.1545C96.7147 75.5956 96.2559 75.8177 95.6485 75.8177C95.0456 75.8177 94.5851 75.604 94.2444 75.1816C93.8995 74.7469 93.7151 74.1348 93.7151 73.3217C93.7151 72.4716 93.9003 71.8341 94.2461 71.3855C94.594 70.9431 95.0678 70.7197 95.691 70.7197C96.2794 70.7197 96.7251 70.9295 97.0517 71.3439L97.0517 71.344ZM92.8886 76.2999C93.5542 77.0411 94.4461 77.4064 95.5424 77.4064C96.6751 77.4064 97.6048 77.0227 98.3118 76.248C99.0245 75.4677 99.3724 74.443 99.3724 73.1944C99.3724 71.9386 99.0636 70.9336 98.4199 70.2066C97.7734 69.4765 96.8758 69.1203 95.7546 69.1203C94.6015 69.1203 93.6606 69.5071 92.9531 70.2897C92.246 71.0646 91.9034 72.1117 91.9034 73.4066C91.9034 74.5904 92.2259 75.5618 92.8886 76.2999Z" stroke="url(#paint1_radial_1311_4072)" stroke-width="0.4"/>
<path d="M83.8243 68.4456L83.825 68.4463C84.4907 69.1801 85.3825 69.5415 86.478 69.5415C87.6107 69.5415 88.5404 69.1577 89.2474 68.3831C89.9603 67.6026 90.308 66.5742 90.308 65.3188C90.308 64.0702 89.9992 63.072 89.3552 62.352C88.7151 61.6283 87.8171 61.2766 86.6903 61.2766C85.5245 61.2766 84.5794 61.6588 83.878 62.4354C83.1778 63.2037 82.8391 64.2474 82.8391 65.5417C82.8391 66.7322 83.1613 67.7072 83.8243 68.4456ZM85.1918 63.5213L85.1918 63.5213L85.1926 63.5202C85.5414 63.0699 86.0121 62.8441 86.6266 62.8441C87.2128 62.8441 87.6581 63.0592 87.9855 63.4873L87.9855 63.4874L87.9875 63.4899C88.3251 63.9166 88.5069 64.5318 88.5069 65.3613C88.5069 66.2126 88.3248 66.8508 87.9849 67.2996C87.6507 67.7411 87.1918 67.9634 86.5841 67.9634C85.9812 67.9634 85.5208 67.7497 85.18 67.3273C84.8356 66.8931 84.6507 66.2743 84.6507 65.4462C84.6507 64.6038 84.8391 63.97 85.1918 63.5213ZM96.8361 61.8282L97.0322 61.5207H96.6674H95.139H95.0293L94.9703 61.6132L85.2691 76.8443L85.0733 77.1517H85.4378H86.9556H87.0653L87.1243 77.0592L96.8361 61.8282ZM97.0517 71.344L97.0528 71.3454C97.3891 71.7642 97.5713 72.3783 97.5713 73.2156C97.5713 74.0588 97.3896 74.6978 97.0489 75.1545C96.7147 75.5956 96.2559 75.8177 95.6485 75.8177C95.0456 75.8177 94.5851 75.604 94.2444 75.1816C93.8995 74.7469 93.7151 74.1348 93.7151 73.3217C93.7151 72.4716 93.9003 71.8341 94.2461 71.3855C94.594 70.9431 95.0678 70.7197 95.691 70.7197C96.2794 70.7197 96.7251 70.9295 97.0517 71.3439L97.0517 71.344ZM92.8886 76.2999C93.5542 77.0411 94.4461 77.4064 95.5424 77.4064C96.6751 77.4064 97.6048 77.0227 98.3118 76.248C99.0245 75.4677 99.3724 74.443 99.3724 73.1944C99.3724 71.9386 99.0636 70.9336 98.4199 70.2066C97.7734 69.4765 96.8758 69.1203 95.7546 69.1203C94.6015 69.1203 93.6606 69.5071 92.9531 70.2897C92.246 71.0646 91.9034 72.1117 91.9034 73.4066C91.9034 74.5904 92.2259 75.5618 92.8886 76.2999Z" stroke="url(#paint2_radial_1311_4072)" stroke-width="0.4"/>
<path d="M1.73159 55.4417L1.73153 55.4417L1.72951 55.4495C1.32098 57.0292 1.11719 58.6617 1.11719 60.3459C1.11719 62.901 1.59322 65.2513 2.55261 67.3893L2.55258 67.3894L2.55481 67.3942C3.53734 69.523 4.89045 71.3552 6.61285 72.8862L6.61281 72.8862L6.61915 72.8917C8.36639 74.3932 10.4225 75.5625 12.781 76.4028L12.7827 76.4034C15.1749 77.2462 17.7897 77.6644 20.6225 77.6644C23.4812 77.6644 26.1094 77.2463 28.5021 76.4034C30.8875 75.5631 32.9457 74.3932 34.6685 72.8892L34.6719 72.8862C36.3954 71.3542 37.7361 69.5204 38.6924 67.3893C39.6518 65.2513 40.1278 62.901 40.1278 60.3459C40.1278 58.6332 39.9102 56.9847 39.4736 55.402C39.0362 53.8162 38.379 52.3505 37.5018 51.0072C36.6238 49.6628 35.5278 48.4713 34.2172 47.433C33.1669 46.5622 31.9833 45.8302 30.6689 45.2357C32.7519 43.9055 34.4602 42.2636 35.7871 40.3094L35.7887 40.307C37.302 38.0509 38.0603 35.555 38.0603 32.832C38.0603 30.6937 37.6211 28.6979 36.7391 26.8513C35.86 25.0105 34.6233 23.4172 33.0338 22.074C31.4716 20.7314 29.6145 19.6823 27.4701 18.9221C25.3425 18.1585 23.0185 17.7798 20.5032 17.7798C18.0144 17.7798 15.7044 18.1585 13.5778 18.9215C11.4583 19.6555 9.60163 20.6916 8.01396 22.0329L8.01395 22.0329L8.01069 22.0357C6.44903 23.3781 5.21439 24.9693 4.30969 26.8061L4.30965 26.8061L4.30705 26.8115C3.42466 28.659 2.98591 30.6682 2.98591 32.832C2.98591 35.555 3.74419 38.0509 5.25746 40.3071L5.25906 40.3094C6.58699 42.2651 8.31694 43.9071 10.4409 45.2368C9.10867 45.8317 7.91551 46.5644 6.86431 47.4367C5.58029 48.5022 4.51099 49.7076 3.65977 51.0531C2.81076 52.3951 2.1683 53.8587 1.73159 55.4417ZM27.4207 66.8363L27.4205 66.8364C26.5968 67.6851 25.6092 68.3493 24.4517 68.828C23.2978 69.2788 22.0233 69.5076 20.6225 69.5076C19.1653 69.5076 17.8491 69.2778 16.6678 68.8256C15.513 68.3734 14.5276 67.7234 13.7052 66.8762C12.884 66.0301 12.2434 64.9918 11.788 63.7519C11.3342 62.5167 11.103 61.1185 11.103 59.5507C11.103 58.0687 11.3455 56.7127 11.8246 55.4771C12.307 54.2331 12.9631 53.1764 13.7894 52.2999C14.6419 51.3972 15.6432 50.7087 16.7976 50.2319L16.7976 50.2319L16.8025 50.2298C17.9829 49.7275 19.2545 49.4745 20.6225 49.4745C22.0709 49.4745 23.3638 49.741 24.5101 50.2644L24.5138 50.266C25.7007 50.7963 26.7039 51.5125 27.53 52.4137C28.3577 53.3166 29.0008 54.3859 29.457 55.6278L29.4582 55.631C29.9128 56.8432 30.142 58.1484 30.142 59.5507C30.142 61.0873 29.899 62.469 29.421 63.7022C28.9403 64.9161 28.273 65.9589 27.4207 66.8363ZM25.8292 39.4029L25.829 39.4031C25.1593 40.0977 24.3639 40.6581 23.4384 41.0838C22.553 41.4768 21.5899 41.6756 20.543 41.6756C19.4959 41.6756 18.5174 41.4767 17.6026 41.0814C16.7088 40.6838 15.9291 40.1391 15.26 39.446C14.5878 38.7233 14.0507 37.8872 13.6491 36.9342C13.2519 35.9652 13.0512 34.9175 13.0512 33.7862C13.0512 32.703 13.2271 31.6894 13.5758 30.7418C13.9524 29.7636 14.4636 28.9179 15.1072 28.1992C15.7743 27.4836 16.5641 26.9282 17.4811 26.5317L17.4812 26.5318L17.4914 26.5271C18.4001 26.1096 19.4146 25.8968 20.543 25.8968C21.6191 25.8968 22.6113 26.0967 23.5253 26.4919C24.4476 26.8908 25.2404 27.4366 25.9085 28.1295C26.5744 28.82 27.0963 29.6498 27.4717 30.6258L27.4715 30.6259L27.4758 30.6361C27.8735 31.6057 28.0745 32.654 28.0745 33.7862C28.0745 34.8895 27.8744 35.924 27.4767 36.8943C27.076 37.8451 26.527 38.6802 25.8292 39.4029Z" fill="url(#paint3_radial_1311_4072)"/>
<path d="M1.73159 55.4417L1.73153 55.4417L1.72951 55.4495C1.32098 57.0292 1.11719 58.6617 1.11719 60.3459C1.11719 62.901 1.59322 65.2513 2.55261 67.3893L2.55258 67.3894L2.55481 67.3942C3.53734 69.523 4.89045 71.3552 6.61285 72.8862L6.61281 72.8862L6.61915 72.8917C8.36639 74.3932 10.4225 75.5625 12.781 76.4028L12.7827 76.4034C15.1749 77.2462 17.7897 77.6644 20.6225 77.6644C23.4812 77.6644 26.1094 77.2463 28.5021 76.4034C30.8875 75.5631 32.9457 74.3932 34.6685 72.8892L34.6719 72.8862C36.3954 71.3542 37.7361 69.5204 38.6924 67.3893C39.6518 65.2513 40.1278 62.901 40.1278 60.3459C40.1278 58.6332 39.9102 56.9847 39.4736 55.402C39.0362 53.8162 38.379 52.3505 37.5018 51.0072C36.6238 49.6628 35.5278 48.4713 34.2172 47.433C33.1669 46.5622 31.9833 45.8302 30.6689 45.2357C32.7519 43.9055 34.4602 42.2636 35.7871 40.3094L35.7887 40.307C37.302 38.0509 38.0603 35.555 38.0603 32.832C38.0603 30.6937 37.6211 28.6979 36.7391 26.8513C35.86 25.0105 34.6233 23.4172 33.0338 22.074C31.4716 20.7314 29.6145 19.6823 27.4701 18.9221C25.3425 18.1585 23.0185 17.7798 20.5032 17.7798C18.0144 17.7798 15.7044 18.1585 13.5778 18.9215C11.4583 19.6555 9.60163 20.6916 8.01396 22.0329L8.01395 22.0329L8.01069 22.0357C6.44903 23.3781 5.21439 24.9693 4.30969 26.8061L4.30965 26.8061L4.30705 26.8115C3.42466 28.659 2.98591 30.6682 2.98591 32.832C2.98591 35.555 3.74419 38.0509 5.25746 40.3071L5.25906 40.3094C6.58699 42.2651 8.31694 43.9071 10.4409 45.2368C9.10867 45.8317 7.91551 46.5644 6.86431 47.4367C5.58029 48.5022 4.51099 49.7076 3.65977 51.0531C2.81076 52.3951 2.1683 53.8587 1.73159 55.4417ZM27.4207 66.8363L27.4205 66.8364C26.5968 67.6851 25.6092 68.3493 24.4517 68.828C23.2978 69.2788 22.0233 69.5076 20.6225 69.5076C19.1653 69.5076 17.8491 69.2778 16.6678 68.8256C15.513 68.3734 14.5276 67.7234 13.7052 66.8762C12.884 66.0301 12.2434 64.9918 11.788 63.7519C11.3342 62.5167 11.103 61.1185 11.103 59.5507C11.103 58.0687 11.3455 56.7127 11.8246 55.4771C12.307 54.2331 12.9631 53.1764 13.7894 52.2999C14.6419 51.3972 15.6432 50.7087 16.7976 50.2319L16.7976 50.2319L16.8025 50.2298C17.9829 49.7275 19.2545 49.4745 20.6225 49.4745C22.0709 49.4745 23.3638 49.741 24.5101 50.2644L24.5138 50.266C25.7007 50.7963 26.7039 51.5125 27.53 52.4137C28.3577 53.3166 29.0008 54.3859 29.457 55.6278L29.4582 55.631C29.9128 56.8432 30.142 58.1484 30.142 59.5507C30.142 61.0873 29.899 62.469 29.421 63.7022C28.9403 64.9161 28.273 65.9589 27.4207 66.8363ZM25.8292 39.4029L25.829 39.4031C25.1593 40.0977 24.3639 40.6581 23.4384 41.0838C22.553 41.4768 21.5899 41.6756 20.543 41.6756C19.4959 41.6756 18.5174 41.4767 17.6026 41.0814C16.7088 40.6838 15.9291 40.1391 15.26 39.446C14.5878 38.7233 14.0507 37.8872 13.6491 36.9342C13.2519 35.9652 13.0512 34.9175 13.0512 33.7862C13.0512 32.703 13.2271 31.6894 13.5758 30.7418C13.9524 29.7636 14.4636 28.9179 15.1072 28.1992C15.7743 27.4836 16.5641 26.9282 17.4811 26.5317L17.4812 26.5318L17.4914 26.5271C18.4001 26.1096 19.4146 25.8968 20.543 25.8968C21.6191 25.8968 22.6113 26.0967 23.5253 26.4919C24.4476 26.8908 25.2404 27.4366 25.9085 28.1295C26.5744 28.82 27.0963 29.6498 27.4717 30.6258L27.4715 30.6259L27.4758 30.6361C27.8735 31.6057 28.0745 32.654 28.0745 33.7862C28.0745 34.8895 27.8744 35.924 27.4767 36.8943C27.076 37.8451 26.527 38.6802 25.8292 39.4029Z" stroke="url(#paint4_radial_1311_4072)"/>
<path d="M1.73159 55.4417L1.73153 55.4417L1.72951 55.4495C1.32098 57.0292 1.11719 58.6617 1.11719 60.3459C1.11719 62.901 1.59322 65.2513 2.55261 67.3893L2.55258 67.3894L2.55481 67.3942C3.53734 69.523 4.89045 71.3552 6.61285 72.8862L6.61281 72.8862L6.61915 72.8917C8.36639 74.3932 10.4225 75.5625 12.781 76.4028L12.7827 76.4034C15.1749 77.2462 17.7897 77.6644 20.6225 77.6644C23.4812 77.6644 26.1094 77.2463 28.5021 76.4034C30.8875 75.5631 32.9457 74.3932 34.6685 72.8892L34.6719 72.8862C36.3954 71.3542 37.7361 69.5204 38.6924 67.3893C39.6518 65.2513 40.1278 62.901 40.1278 60.3459C40.1278 58.6332 39.9102 56.9847 39.4736 55.402C39.0362 53.8162 38.379 52.3505 37.5018 51.0072C36.6238 49.6628 35.5278 48.4713 34.2172 47.433C33.1669 46.5622 31.9833 45.8302 30.6689 45.2357C32.7519 43.9055 34.4602 42.2636 35.7871 40.3094L35.7887 40.307C37.302 38.0509 38.0603 35.555 38.0603 32.832C38.0603 30.6937 37.6211 28.6979 36.7391 26.8513C35.86 25.0105 34.6233 23.4172 33.0338 22.074C31.4716 20.7314 29.6145 19.6823 27.4701 18.9221C25.3425 18.1585 23.0185 17.7798 20.5032 17.7798C18.0144 17.7798 15.7044 18.1585 13.5778 18.9215C11.4583 19.6555 9.60163 20.6916 8.01396 22.0329L8.01395 22.0329L8.01069 22.0357C6.44903 23.3781 5.21439 24.9693 4.30969 26.8061L4.30965 26.8061L4.30705 26.8115C3.42466 28.659 2.98591 30.6682 2.98591 32.832C2.98591 35.555 3.74419 38.0509 5.25746 40.3071L5.25906 40.3094C6.58699 42.2651 8.31694 43.9071 10.4409 45.2368C9.10867 45.8317 7.91551 46.5644 6.86431 47.4367C5.58029 48.5022 4.51099 49.7076 3.65977 51.0531C2.81076 52.3951 2.1683 53.8587 1.73159 55.4417ZM27.4207 66.8363L27.4205 66.8364C26.5968 67.6851 25.6092 68.3493 24.4517 68.828C23.2978 69.2788 22.0233 69.5076 20.6225 69.5076C19.1653 69.5076 17.8491 69.2778 16.6678 68.8256C15.513 68.3734 14.5276 67.7234 13.7052 66.8762C12.884 66.0301 12.2434 64.9918 11.788 63.7519C11.3342 62.5167 11.103 61.1185 11.103 59.5507C11.103 58.0687 11.3455 56.7127 11.8246 55.4771C12.307 54.2331 12.9631 53.1764 13.7894 52.2999C14.6419 51.3972 15.6432 50.7087 16.7976 50.2319L16.7976 50.2319L16.8025 50.2298C17.9829 49.7275 19.2545 49.4745 20.6225 49.4745C22.0709 49.4745 23.3638 49.741 24.5101 50.2644L24.5138 50.266C25.7007 50.7963 26.7039 51.5125 27.53 52.4137C28.3577 53.3166 29.0008 54.3859 29.457 55.6278L29.4582 55.631C29.9128 56.8432 30.142 58.1484 30.142 59.5507C30.142 61.0873 29.899 62.469 29.421 63.7022C28.9403 64.9161 28.273 65.9589 27.4207 66.8363ZM25.8292 39.4029L25.829 39.4031C25.1593 40.0977 24.3639 40.6581 23.4384 41.0838C22.553 41.4768 21.5899 41.6756 20.543 41.6756C19.4959 41.6756 18.5174 41.4767 17.6026 41.0814C16.7088 40.6838 15.9291 40.1391 15.26 39.446C14.5878 38.7233 14.0507 37.8872 13.6491 36.9342C13.2519 35.9652 13.0512 34.9175 13.0512 33.7862C13.0512 32.703 13.2271 31.6894 13.5758 30.7418C13.9524 29.7636 14.4636 28.9179 15.1072 28.1992C15.7743 27.4836 16.5641 26.9282 17.4811 26.5317L17.4812 26.5318L17.4914 26.5271C18.4001 26.1096 19.4146 25.8968 20.543 25.8968C21.6191 25.8968 22.6113 26.0967 23.5253 26.4919C24.4476 26.8908 25.2404 27.4366 25.9085 28.1295C26.5744 28.82 27.0963 29.6498 27.4717 30.6258L27.4715 30.6259L27.4758 30.6361C27.8735 31.6057 28.0745 32.654 28.0745 33.7862C28.0745 34.8895 27.8744 35.924 27.4767 36.8943C27.076 37.8451 26.527 38.6802 25.8292 39.4029Z" stroke="url(#paint5_radial_1311_4072)"/>
<path d="M67.2732 75.8344L67.2752 75.8335C70.2693 74.5269 72.8636 72.5142 75.0572 69.8063C77.2813 67.0935 79.0042 63.6511 80.2376 59.4955C81.5012 55.3277 82.1274 50.3731 82.1274 44.6407C82.1274 39.8633 81.6074 35.7688 80.5549 32.3678C79.5339 28.9828 78.1291 26.2024 76.3276 24.0451C74.5586 21.8687 72.4802 20.2789 70.0925 19.2902C67.7492 18.2826 65.2575 17.7798 62.6221 17.7798C59.8351 17.7798 57.2411 18.2534 54.8454 19.2059C52.4529 20.1306 50.3677 21.4654 48.5953 23.2102C46.8193 24.9319 45.4306 27.0318 44.4263 29.5016C43.4175 31.9558 42.918 34.6986 42.918 37.7224C42.918 40.4787 43.3504 42.9927 44.2238 45.2579L44.2237 45.2579L44.2257 45.2628C45.1226 47.5186 46.3501 49.4453 47.9121 51.0347C49.4711 52.621 51.3034 53.8511 53.4047 54.7243L53.4046 54.7244L53.4119 54.7273C55.5423 55.574 57.832 55.9952 60.2762 55.9952C61.7216 55.9952 63.0794 55.818 64.347 55.4599C65.6256 55.1061 66.7888 54.6417 67.8339 54.0641L67.834 54.0642L67.8426 54.0592C68.8819 53.4575 69.803 52.7709 70.6033 51.9982L70.6035 51.998C71.0486 51.5677 71.4479 51.1233 71.8003 50.6647C71.7111 53.4009 71.3655 55.8398 70.7683 57.9853L70.7674 57.9886C70.0913 60.485 69.1217 62.5577 67.8687 64.2197C66.6161 65.8814 65.1016 67.1266 63.3233 67.9649L63.3208 67.9661C61.5664 68.8052 59.6003 69.2293 57.4135 69.2293C56.4619 69.2293 55.4686 69.1523 54.4332 68.9973C53.4184 68.815 52.4302 68.5939 51.4686 68.3343C50.5339 68.0484 49.6665 67.7375 48.8659 67.4021C48.0599 67.0379 47.3934 66.6909 46.8619 66.3619L46.0988 65.8895V66.787V75.0969V75.4202L46.3936 75.5528C46.9442 75.8006 47.6238 76.0584 48.4287 76.3267L48.438 76.3298L48.4474 76.3325C49.2819 76.5748 50.1946 76.8029 51.1848 77.017L51.1875 77.0175C52.2096 77.2327 53.2708 77.4073 54.371 77.5415L54.3724 77.5416C55.5047 77.6764 56.6244 77.7439 57.7316 77.7439C61.1353 77.7439 64.3176 77.1088 67.2732 75.8344ZM70.7718 33.4947L70.7717 33.4948L70.7741 33.5021C71.2594 35.0092 71.5054 36.6927 71.5054 38.5574C71.5054 39.7934 71.2788 40.9467 70.8285 42.0223C70.3758 43.1039 69.749 44.0429 68.9482 44.8438C68.1738 45.6182 67.2463 46.2465 66.1599 46.7269C65.1152 47.1742 63.9646 47.401 62.7016 47.401C61.2739 47.401 59.9722 47.1721 58.7912 46.7207C57.6387 46.2438 56.654 45.5695 55.8315 44.6979C55.0085 43.7993 54.3524 42.6938 53.8688 41.3719C53.4146 40.0577 53.1821 38.5258 53.1821 36.7682C53.1821 35.1762 53.4259 33.7387 53.906 32.4499C54.3904 31.1499 55.0355 30.0531 55.8364 29.1512C56.6658 28.2473 57.6161 27.5609 58.6891 27.0867L58.6891 27.0868L58.6939 27.0846C59.7957 26.5838 60.9445 26.3342 62.145 26.3342C63.5028 26.3342 64.7361 26.6227 65.8536 27.1939L65.8536 27.1939L65.8576 27.1959C67.0083 27.7712 67.9982 28.5845 68.8291 29.642C69.6602 30.6997 70.3099 31.9809 70.7718 33.4947Z" fill="url(#paint6_radial_1311_4072)"/>
<path d="M67.2732 75.8344L67.2752 75.8335C70.2693 74.5269 72.8636 72.5142 75.0572 69.8063C77.2813 67.0935 79.0042 63.6511 80.2376 59.4955C81.5012 55.3277 82.1274 50.3731 82.1274 44.6407C82.1274 39.8633 81.6074 35.7688 80.5549 32.3678C79.5339 28.9828 78.1291 26.2024 76.3276 24.0451C74.5586 21.8687 72.4802 20.2789 70.0925 19.2902C67.7492 18.2826 65.2575 17.7798 62.6221 17.7798C59.8351 17.7798 57.2411 18.2534 54.8454 19.2059C52.4529 20.1306 50.3677 21.4654 48.5953 23.2102C46.8193 24.9319 45.4306 27.0318 44.4263 29.5016C43.4175 31.9558 42.918 34.6986 42.918 37.7224C42.918 40.4787 43.3504 42.9927 44.2238 45.2579L44.2237 45.2579L44.2257 45.2628C45.1226 47.5186 46.3501 49.4453 47.9121 51.0347C49.4711 52.621 51.3034 53.8511 53.4047 54.7243L53.4046 54.7244L53.4119 54.7273C55.5423 55.574 57.832 55.9952 60.2762 55.9952C61.7216 55.9952 63.0794 55.818 64.347 55.4599C65.6256 55.1061 66.7888 54.6417 67.8339 54.0641L67.834 54.0642L67.8426 54.0592C68.8819 53.4575 69.803 52.7709 70.6033 51.9982L70.6035 51.998C71.0486 51.5677 71.4479 51.1233 71.8003 50.6647C71.7111 53.4009 71.3655 55.8398 70.7683 57.9853L70.7674 57.9886C70.0913 60.485 69.1217 62.5577 67.8687 64.2197C66.6161 65.8814 65.1016 67.1266 63.3233 67.9649L63.3208 67.9661C61.5664 68.8052 59.6003 69.2293 57.4135 69.2293C56.4619 69.2293 55.4686 69.1523 54.4332 68.9973C53.4184 68.815 52.4302 68.5939 51.4686 68.3343C50.5339 68.0484 49.6665 67.7375 48.8659 67.4021C48.0599 67.0379 47.3934 66.6909 46.8619 66.3619L46.0988 65.8895V66.787V75.0969V75.4202L46.3936 75.5528C46.9442 75.8006 47.6238 76.0584 48.4287 76.3267L48.438 76.3298L48.4474 76.3325C49.2819 76.5748 50.1946 76.8029 51.1848 77.017L51.1875 77.0175C52.2096 77.2327 53.2708 77.4073 54.371 77.5415L54.3724 77.5416C55.5047 77.6764 56.6244 77.7439 57.7316 77.7439C61.1353 77.7439 64.3176 77.1088 67.2732 75.8344ZM70.7718 33.4947L70.7717 33.4948L70.7741 33.5021C71.2594 35.0092 71.5054 36.6927 71.5054 38.5574C71.5054 39.7934 71.2788 40.9467 70.8285 42.0223C70.3758 43.1039 69.749 44.0429 68.9482 44.8438C68.1738 45.6182 67.2463 46.2465 66.1599 46.7269C65.1152 47.1742 63.9646 47.401 62.7016 47.401C61.2739 47.401 59.9722 47.1721 58.7912 46.7207C57.6387 46.2438 56.654 45.5695 55.8315 44.6979C55.0085 43.7993 54.3524 42.6938 53.8688 41.3719C53.4146 40.0577 53.1821 38.5258 53.1821 36.7682C53.1821 35.1762 53.4259 33.7387 53.906 32.4499C54.3904 31.1499 55.0355 30.0531 55.8364 29.1512C56.6658 28.2473 57.6161 27.5609 58.6891 27.0867L58.6891 27.0868L58.6939 27.0846C59.7957 26.5838 60.9445 26.3342 62.145 26.3342C63.5028 26.3342 64.7361 26.6227 65.8536 27.1939L65.8536 27.1939L65.8576 27.1959C67.0083 27.7712 67.9982 28.5845 68.8291 29.642C69.6602 30.6997 70.3099 31.9809 70.7718 33.4947Z" stroke="url(#paint7_radial_1311_4072)"/>
<path d="M67.2732 75.8344L67.2752 75.8335C70.2693 74.5269 72.8636 72.5142 75.0572 69.8063C77.2813 67.0935 79.0042 63.6511 80.2376 59.4955C81.5012 55.3277 82.1274 50.3731 82.1274 44.6407C82.1274 39.8633 81.6074 35.7688 80.5549 32.3678C79.5339 28.9828 78.1291 26.2024 76.3276 24.0451C74.5586 21.8687 72.4802 20.2789 70.0925 19.2902C67.7492 18.2826 65.2575 17.7798 62.6221 17.7798C59.8351 17.7798 57.2411 18.2534 54.8454 19.2059C52.4529 20.1306 50.3677 21.4654 48.5953 23.2102C46.8193 24.9319 45.4306 27.0318 44.4263 29.5016C43.4175 31.9558 42.918 34.6986 42.918 37.7224C42.918 40.4787 43.3504 42.9927 44.2238 45.2579L44.2237 45.2579L44.2257 45.2628C45.1226 47.5186 46.3501 49.4453 47.9121 51.0347C49.4711 52.621 51.3034 53.8511 53.4047 54.7243L53.4046 54.7244L53.4119 54.7273C55.5423 55.574 57.832 55.9952 60.2762 55.9952C61.7216 55.9952 63.0794 55.818 64.347 55.4599C65.6256 55.1061 66.7888 54.6417 67.8339 54.0641L67.834 54.0642L67.8426 54.0592C68.8819 53.4575 69.803 52.7709 70.6033 51.9982L70.6035 51.998C71.0486 51.5677 71.4479 51.1233 71.8003 50.6647C71.7111 53.4009 71.3655 55.8398 70.7683 57.9853L70.7674 57.9886C70.0913 60.485 69.1217 62.5577 67.8687 64.2197C66.6161 65.8814 65.1016 67.1266 63.3233 67.9649L63.3208 67.9661C61.5664 68.8052 59.6003 69.2293 57.4135 69.2293C56.4619 69.2293 55.4686 69.1523 54.4332 68.9973C53.4184 68.815 52.4302 68.5939 51.4686 68.3343C50.5339 68.0484 49.6665 67.7375 48.8659 67.4021C48.0599 67.0379 47.3934 66.6909 46.8619 66.3619L46.0988 65.8895V66.787V75.0969V75.4202L46.3936 75.5528C46.9442 75.8006 47.6238 76.0584 48.4287 76.3267L48.438 76.3298L48.4474 76.3325C49.2819 76.5748 50.1946 76.8029 51.1848 77.017L51.1875 77.0175C52.2096 77.2327 53.2708 77.4073 54.371 77.5415L54.3724 77.5416C55.5047 77.6764 56.6244 77.7439 57.7316 77.7439C61.1353 77.7439 64.3176 77.1088 67.2732 75.8344ZM70.7718 33.4947L70.7717 33.4948L70.7741 33.5021C71.2594 35.0092 71.5054 36.6927 71.5054 38.5574C71.5054 39.7934 71.2788 40.9467 70.8285 42.0223C70.3758 43.1039 69.749 44.0429 68.9482 44.8438C68.1738 45.6182 67.2463 46.2465 66.1599 46.7269C65.1152 47.1742 63.9646 47.401 62.7016 47.401C61.2739 47.401 59.9722 47.1721 58.7912 46.7207C57.6387 46.2438 56.654 45.5695 55.8315 44.6979C55.0085 43.7993 54.3524 42.6938 53.8688 41.3719C53.4146 40.0577 53.1821 38.5258 53.1821 36.7682C53.1821 35.1762 53.4259 33.7387 53.906 32.4499C54.3904 31.1499 55.0355 30.0531 55.8364 29.1512C56.6658 28.2473 57.6161 27.5609 58.6891 27.0867L58.6891 27.0868L58.6939 27.0846C59.7957 26.5838 60.9445 26.3342 62.145 26.3342C63.5028 26.3342 64.7361 26.6227 65.8536 27.1939L65.8536 27.1939L65.8576 27.1959C67.0083 27.7712 67.9982 28.5845 68.8291 29.642C69.6602 30.6997 70.3099 31.9809 70.7718 33.4947Z" stroke="url(#paint8_radial_1311_4072)"/>
<defs>
<radialGradient id="paint0_radial_1311_4072" cx="0" cy="0" r="1" gradientUnits="userSpaceOnUse" gradientTransform="translate(99.3479 59.8714) rotate(138.441) scale(29.5419 24.835)">
<stop stop-color="white"/>
<stop offset="1" stop-color="white" stop-opacity="0.12"/>
</radialGradient>
<radialGradient id="paint1_radial_1311_4072" cx="0" cy="0" r="1" gradientUnits="userSpaceOnUse" gradientTransform="translate(104.446 53.4819) rotate(139.024) scale(36.1799 13.4973)">
<stop offset="0.104014" stop-color="white" stop-opacity="0.8"/>
<stop offset="1" stop-color="white" stop-opacity="0.1"/>
</radialGradient>
<radialGradient id="paint2_radial_1311_4072" cx="0" cy="0" r="1" gradientUnits="userSpaceOnUse" gradientTransform="translate(77.1307 77.2064) rotate(-41.0741) scale(36.2341 13.5444)">
<stop offset="0.104014" stop-color="white" stop-opacity="0.6"/>
<stop offset="1" stop-color="white" stop-opacity="0.1"/>
</radialGradient>
<radialGradient id="paint3_radial_1311_4072" cx="0" cy="0" r="1" gradientUnits="userSpaceOnUse" gradientTransform="translate(40.0413 12.2707) rotate(125.371) scale(89.9709 71.9216)">
<stop stop-color="white"/>
<stop offset="1" stop-color="white" stop-opacity="0.12"/>
</radialGradient>
<radialGradient id="paint4_radial_1311_4072" cx="0" cy="0" r="1" gradientUnits="userSpaceOnUse" gradientTransform="translate(52.053 -11.6481) rotate(125.928) scale(109.679 39.2693)">
<stop offset="0.104014" stop-color="white" stop-opacity="0.8"/>
<stop offset="1" stop-color="white" stop-opacity="0.1"/>
</radialGradient>
<radialGradient id="paint5_radial_1311_4072" cx="0" cy="0" r="1" gradientUnits="userSpaceOnUse" gradientTransform="translate(-12.3031 77.1644) rotate(-54.1663) scale(109.929 39.3752)">
<stop offset="0.104014" stop-color="white" stop-opacity="0.6"/>
<stop offset="1" stop-color="white" stop-opacity="0.1"/>
</radialGradient>
<radialGradient id="paint6_radial_1311_4072" cx="0" cy="0" r="1" gradientUnits="userSpaceOnUse" gradientTransform="translate(82.0431 12.2626) rotate(125.475) scale(90.2096 72.2039)">
<stop stop-color="white"/>
<stop offset="1" stop-color="white" stop-opacity="0.12"/>
</radialGradient>
<radialGradient id="paint7_radial_1311_4072" cx="0" cy="0" r="1" gradientUnits="userSpaceOnUse" gradientTransform="translate(94.1175 -11.6885) rotate(126.033) scale(109.973 39.422)">
<stop offset="0.104014" stop-color="white" stop-opacity="0.8"/>
<stop offset="1" stop-color="white" stop-opacity="0.1"/>
</radialGradient>
<radialGradient id="paint8_radial_1311_4072" cx="0" cy="0" r="1" gradientUnits="userSpaceOnUse" gradientTransform="translate(29.4249 77.2439) rotate(-54.0611) scale(110.224 39.5286)">
<stop offset="0.104014" stop-color="white" stop-opacity="0.6"/>
<stop offset="1" stop-color="white" stop-opacity="0.1"/>
</radialGradient>
</defs>
</svg>
