<svg width="20" height="20" viewBox="0 0 20 20" fill="none" xmlns="http://www.w3.org/2000/svg">
<path d="M5.75 17H3.25C3.11193 17 3 16.8881 3 16.75V8.25C3 8.11193 3.11193 8 3.25 8H5.75C5.88807 8 6 8.11193 6 8.25V16.75C6 16.8881 5.88807 17 5.75 17ZM10.75 17H8.25C8.11193 17 8 16.8881 8 16.75V8.25C8 8.11193 8.11193 8 8.25 8H10.75C10.8881 8 11 8.11193 11 8.25V9C11.6209 7.99642 12.2582 7.5 13.5 7.5C15.7833 7.5 17 8.76057 17 11.4301V16.75C17 16.8881 16.8881 17 16.75 17H14.25C14.1119 17 14 16.8881 14 16.75V12C14 10.4 13.6 10 12.6 10C11.5 10 11 10.75 11 12V16.75C11 16.8881 10.8881 17 10.75 17ZM4.5 6.00645C3.67157 6.00645 3 5.33343 3 4.50323C3 3.67302 3.67157 3 4.5 3C5.32843 3 6 3.67302 6 4.50323C6 5.33343 5.32843 6.00645 4.5 6.00645Z" fill="black"/>
</svg>
