<svg width="20" height="20" viewBox="0 0 20 20" fill="none" xmlns="http://www.w3.org/2000/svg">
<path d="M10 4C15 4 16.53 4.0625 17.22 4.78125C17.73 5.3125 18 6.91016 18 10C18 13.0898 17.73 14.6875 17.22 15.2188C16.53 15.9375 14.9951 16 10 16C5.00494 16 3.47 15.9375 2.78 15.2188C2.27 14.6875 2 13.0898 2 10C2 6.91016 2.27 5.3125 2.78 4.78125C3.47 4.0625 5 4 10 4ZM8.5 7.5V12.5C8.5 12.6381 8.61193 12.75 8.75 12.75C8.80409 12.75 8.85673 12.7325 8.9 12.7L12.2333 10.2C12.3438 10.1172 12.3662 9.96046 12.2833 9.85C12.2691 9.83105 12.2523 9.81421 12.2333 9.8L8.9 7.3C8.78954 7.21716 8.63284 7.23954 8.55 7.35C8.51754 7.39327 8.5 7.44591 8.5 7.5Z" fill="black"/>
</svg>
