<svg width="20" height="20" viewBox="0 0 20 20" fill="none" xmlns="http://www.w3.org/2000/svg">
<path d="M5.5997 7.26228L9.34533 3.5164C9.56705 3.29467 9.91396 3.27433 10.1586 3.45551L10.2288 3.51591L13.9828 7.26178C14.2271 7.5056 14.2276 7.90132 13.9838 8.14567C13.7621 8.3678 13.4149 8.38835 13.17 8.20707L13.0999 8.14663L10.4142 5.46592L10.4147 16.0458C10.4147 16.3622 10.1796 16.6237 9.87452 16.6651L9.78971 16.6708C9.47329 16.6708 9.2118 16.4357 9.17041 16.1306L9.16471 16.0458L9.16416 5.46425L6.48361 8.14613C6.26173 8.36803 5.91451 8.38821 5.66983 8.20668L5.59973 8.14616C5.37783 7.92428 5.35765 7.57706 5.53919 7.33238L5.5997 7.26228L9.34533 3.5164L5.5997 7.26228Z" fill="black"/>
</svg>
