<svg width="20" height="20" viewBox="0 0 20 20" fill="none" xmlns="http://www.w3.org/2000/svg">
<path fill-rule="evenodd" clip-rule="evenodd" d="M2.5 5C2.5 4.72386 2.72386 4.5 3 4.5L17 4.5C17.2761 4.5 17.5 4.72386 17.5 5C17.5 5.27614 17.2761 5.5 17 5.5L3 5.5C2.72386 5.5 2.5 5.27614 2.5 5Z" fill="black"/>
<path fill-rule="evenodd" clip-rule="evenodd" d="M2.5 10C2.5 9.72386 2.72386 9.5 3 9.5L17 9.5C17.2761 9.5 17.5 9.72386 17.5 10C17.5 10.2761 17.2761 10.5 17 10.5L3 10.5C2.72386 10.5 2.5 10.2761 2.5 10Z" fill="black"/>
<path fill-rule="evenodd" clip-rule="evenodd" d="M2.5 15C2.5 14.7239 2.72386 14.5 3 14.5L17 14.5C17.2761 14.5 17.5 14.7239 17.5 15C17.5 15.2761 17.2761 15.5 17 15.5L3 15.5C2.72386 15.5 2.5 15.2761 2.5 15Z" fill="black"/>
</svg>
