<svg viewBox="0 0 99 96" fill="none" xmlns="http://www.w3.org/2000/svg">
<path d="M82.9835 66.2428L82.9842 66.2436C83.6448 66.9717 84.5296 67.3303 85.6165 67.3303C86.7403 67.3303 87.6628 66.9495 88.3642 66.1809C89.0716 65.4064 89.4165 64.3861 89.4165 63.1408C89.4165 61.9022 89.1103 60.9118 88.4712 60.1973C87.836 59.4792 86.9449 59.1302 85.827 59.1302C84.6705 59.1302 83.7328 59.5094 83.0368 60.28C82.342 61.0423 82.006 62.0779 82.006 63.3618C82.006 64.5428 82.3257 65.5102 82.9835 66.2428ZM84.3422 61.359L84.3422 61.359L84.3431 61.358C84.6887 60.9118 85.1549 60.6881 85.7639 60.6881C86.3448 60.6881 86.7859 60.9012 87.1103 61.3254L87.1103 61.3254L87.1123 61.328C87.4467 61.7507 87.627 62.3604 87.627 63.1829C87.627 64.027 87.4464 64.6595 87.1097 65.1043C86.7786 65.5416 86.3239 65.7618 85.7218 65.7618C85.1243 65.7618 84.6681 65.5501 84.3306 65.1316C83.9892 64.7014 83.806 64.0882 83.806 63.2671C83.806 62.4319 83.9928 61.8037 84.3422 61.359ZM95.8904 59.6798L96.0865 59.3723H95.7218H94.206H94.0963L94.0373 59.4649L84.4163 74.5702L84.2204 74.8777H84.5849H86.0902H86.1999L86.2588 74.7852L95.8904 59.6798ZM96.1015 69.1172L96.1027 69.1187C96.4359 69.5336 96.6165 70.1422 96.6165 70.9724C96.6165 71.8085 96.4363 72.4418 96.0988 72.8943C95.7677 73.3313 95.3132 73.5514 94.7113 73.5514C94.1138 73.5514 93.6576 73.3397 93.32 72.9211C92.9783 72.4904 92.7955 71.8838 92.7955 71.0777C92.7955 70.2347 92.9791 69.6029 93.3217 69.1584C93.6664 68.7201 94.1358 68.4987 94.7534 68.4987C95.3365 68.4987 95.778 68.7066 96.1015 69.1172L96.1015 69.1172ZM91.973 74.0324C92.6334 74.7678 93.5184 75.1303 94.606 75.1303C95.7298 75.1303 96.6523 74.7496 97.3537 73.9809C98.0609 73.2067 98.406 72.19 98.406 70.9513C98.406 69.7057 98.0997 68.7085 97.461 67.9872C96.8195 67.2626 95.9288 66.9092 94.8165 66.9092C93.6725 66.9092 92.7389 67.293 92.0369 68.0695C91.3353 68.8385 90.9955 69.8773 90.9955 71.1619C90.9955 72.3362 91.3153 73.3 91.973 74.0324Z" fill="url(#paint0_radial_492_15)"/>
<path d="M82.9835 66.2428L82.9842 66.2436C83.6448 66.9717 84.5296 67.3303 85.6165 67.3303C86.7403 67.3303 87.6628 66.9495 88.3642 66.1809C89.0716 65.4064 89.4165 64.3861 89.4165 63.1408C89.4165 61.9022 89.1103 60.9118 88.4712 60.1973C87.836 59.4792 86.9449 59.1302 85.827 59.1302C84.6705 59.1302 83.7328 59.5094 83.0368 60.28C82.342 61.0423 82.006 62.0779 82.006 63.3618C82.006 64.5428 82.3257 65.5102 82.9835 66.2428ZM84.3422 61.359L84.3422 61.359L84.3431 61.358C84.6887 60.9118 85.1549 60.6881 85.7639 60.6881C86.3448 60.6881 86.7859 60.9012 87.1103 61.3254L87.1103 61.3254L87.1123 61.328C87.4467 61.7507 87.627 62.3604 87.627 63.1829C87.627 64.027 87.4464 64.6595 87.1097 65.1043C86.7786 65.5416 86.3239 65.7618 85.7218 65.7618C85.1243 65.7618 84.6681 65.5501 84.3306 65.1316C83.9892 64.7014 83.806 64.0882 83.806 63.2671C83.806 62.4319 83.9928 61.8037 84.3422 61.359ZM95.8904 59.6798L96.0865 59.3723H95.7218H94.206H94.0963L94.0373 59.4649L84.4163 74.5702L84.2204 74.8777H84.5849H86.0902H86.1999L86.2588 74.7852L95.8904 59.6798ZM96.1015 69.1172L96.1027 69.1187C96.4359 69.5336 96.6165 70.1422 96.6165 70.9724C96.6165 71.8085 96.4363 72.4418 96.0988 72.8943C95.7677 73.3313 95.3132 73.5514 94.7113 73.5514C94.1138 73.5514 93.6576 73.3397 93.32 72.9211C92.9783 72.4904 92.7955 71.8838 92.7955 71.0777C92.7955 70.2347 92.9791 69.6029 93.3217 69.1584C93.6664 68.7201 94.1358 68.4987 94.7534 68.4987C95.3365 68.4987 95.778 68.7066 96.1015 69.1172L96.1015 69.1172ZM91.973 74.0324C92.6334 74.7678 93.5184 75.1303 94.606 75.1303C95.7298 75.1303 96.6523 74.7496 97.3537 73.9809C98.0609 73.2067 98.406 72.19 98.406 70.9513C98.406 69.7057 98.0997 68.7085 97.461 67.9872C96.8195 67.2626 95.9288 66.9092 94.8165 66.9092C93.6725 66.9092 92.7389 67.293 92.0369 68.0695C91.3353 68.8385 90.9955 69.8773 90.9955 71.1619C90.9955 72.3362 91.3153 73.3 91.973 74.0324Z" stroke="url(#paint1_radial_492_15)" stroke-width="0.4"/>
<path d="M82.9835 66.2428L82.9842 66.2436C83.6448 66.9717 84.5296 67.3303 85.6165 67.3303C86.7403 67.3303 87.6628 66.9495 88.3642 66.1809C89.0716 65.4064 89.4165 64.3861 89.4165 63.1408C89.4165 61.9022 89.1103 60.9118 88.4712 60.1973C87.836 59.4792 86.9449 59.1302 85.827 59.1302C84.6705 59.1302 83.7328 59.5094 83.0368 60.28C82.342 61.0423 82.006 62.0779 82.006 63.3618C82.006 64.5428 82.3257 65.5102 82.9835 66.2428ZM84.3422 61.359L84.3422 61.359L84.3431 61.358C84.6887 60.9118 85.1549 60.6881 85.7639 60.6881C86.3448 60.6881 86.7859 60.9012 87.1103 61.3254L87.1103 61.3254L87.1123 61.328C87.4467 61.7507 87.627 62.3604 87.627 63.1829C87.627 64.027 87.4464 64.6595 87.1097 65.1043C86.7786 65.5416 86.3239 65.7618 85.7218 65.7618C85.1243 65.7618 84.6681 65.5501 84.3306 65.1316C83.9892 64.7014 83.806 64.0882 83.806 63.2671C83.806 62.4319 83.9928 61.8037 84.3422 61.359ZM95.8904 59.6798L96.0865 59.3723H95.7218H94.206H94.0963L94.0373 59.4649L84.4163 74.5702L84.2204 74.8777H84.5849H86.0902H86.1999L86.2588 74.7852L95.8904 59.6798ZM96.1015 69.1172L96.1027 69.1187C96.4359 69.5336 96.6165 70.1422 96.6165 70.9724C96.6165 71.8085 96.4363 72.4418 96.0988 72.8943C95.7677 73.3313 95.3132 73.5514 94.7113 73.5514C94.1138 73.5514 93.6576 73.3397 93.32 72.9211C92.9783 72.4904 92.7955 71.8838 92.7955 71.0777C92.7955 70.2347 92.9791 69.6029 93.3217 69.1584C93.6664 68.7201 94.1358 68.4987 94.7534 68.4987C95.3365 68.4987 95.778 68.7066 96.1015 69.1172L96.1015 69.1172ZM91.973 74.0324C92.6334 74.7678 93.5184 75.1303 94.606 75.1303C95.7298 75.1303 96.6523 74.7496 97.3537 73.9809C98.0609 73.2067 98.406 72.19 98.406 70.9513C98.406 69.7057 98.0997 68.7085 97.461 67.9872C96.8195 67.2626 95.9288 66.9092 94.8165 66.9092C93.6725 66.9092 92.7389 67.293 92.0369 68.0695C91.3353 68.8385 90.9955 69.8773 90.9955 71.1619C90.9955 72.3362 91.3153 73.3 91.973 74.0324Z" stroke="url(#paint2_radial_492_15)" stroke-width="0.4"/>
<path d="M61.1267 40.1708C62.3497 38.2231 63.5723 36.1452 64.7946 33.9372V55.7896H50.0811C51.1097 54.4581 52.1908 53.0635 53.3246 51.6058L53.3258 51.6043C54.5758 49.9717 55.8508 48.1993 57.1508 46.2875C58.4511 44.4009 59.7763 42.362 61.1267 40.1708ZM61.1267 40.1708C61.1269 40.1705 61.1271 40.1701 61.1273 40.1698L60.9179 40.0407L61.1262 40.1716C61.1264 40.1713 61.1266 40.171 61.1267 40.1708ZM74.143 20.3811V20.1351H73.8969H64.6971H64.5367L64.472 20.2817C63.2293 23.0968 61.6941 26.066 59.8657 29.1895L59.8654 29.1901C58.0617 32.2894 56.1054 35.3764 53.9964 38.4509C51.8615 41.5517 49.6376 44.5889 47.3247 47.5626L47.3245 47.5629C45.0366 50.5117 42.7873 53.2567 40.5765 55.7978L40.5161 55.8672V55.9593V63.4414V63.6874H40.7621H64.7946V75.6189V75.8649H65.0406H73.8969H74.143V75.6189V63.6874H79.3939H79.64V63.4414V56.0356V55.7896H79.3939H74.143V20.3811ZM65.0406 32.9785C64.9586 33.1289 64.8766 33.2787 64.7946 33.4278L65.0406 33.491V32.9785Z" fill="url(#paint3_radial_492_15)"/>
<path d="M61.1267 40.1708C62.3497 38.2231 63.5723 36.1452 64.7946 33.9372V55.7896H50.0811C51.1097 54.4581 52.1908 53.0635 53.3246 51.6058L53.3258 51.6043C54.5758 49.9717 55.8508 48.1993 57.1508 46.2875C58.4511 44.4009 59.7763 42.362 61.1267 40.1708ZM61.1267 40.1708C61.1269 40.1705 61.1271 40.1701 61.1273 40.1698L60.9179 40.0407L61.1262 40.1716C61.1264 40.1713 61.1266 40.171 61.1267 40.1708ZM74.143 20.3811V20.1351H73.8969H64.6971H64.5367L64.472 20.2817C63.2293 23.0968 61.6941 26.066 59.8657 29.1895L59.8654 29.1901C58.0617 32.2894 56.1054 35.3764 53.9964 38.4509C51.8615 41.5517 49.6376 44.5889 47.3247 47.5626L47.3245 47.5629C45.0366 50.5117 42.7873 53.2567 40.5765 55.7978L40.5161 55.8672V55.9593V63.4414V63.6874H40.7621H64.7946V75.6189V75.8649H65.0406H73.8969H74.143V75.6189V63.6874H79.3939H79.64V63.4414V56.0356V55.7896H79.3939H74.143V20.3811ZM65.0406 32.9785C64.9586 33.1289 64.8766 33.2787 64.7946 33.4278L65.0406 33.491V32.9785Z" stroke="url(#paint4_radial_492_15)" stroke-width="0.492081"/>
<path d="M61.1267 40.1708C62.3497 38.2231 63.5723 36.1452 64.7946 33.9372V55.7896H50.0811C51.1097 54.4581 52.1908 53.0635 53.3246 51.6058L53.3258 51.6043C54.5758 49.9717 55.8508 48.1993 57.1508 46.2875C58.4511 44.4009 59.7763 42.362 61.1267 40.1708ZM61.1267 40.1708C61.1269 40.1705 61.1271 40.1701 61.1273 40.1698L60.9179 40.0407L61.1262 40.1716C61.1264 40.1713 61.1266 40.171 61.1267 40.1708ZM74.143 20.3811V20.1351H73.8969H64.6971H64.5367L64.472 20.2817C63.2293 23.0968 61.6941 26.066 59.8657 29.1895L59.8654 29.1901C58.0617 32.2894 56.1054 35.3764 53.9964 38.4509C51.8615 41.5517 49.6376 44.5889 47.3247 47.5626L47.3245 47.5629C45.0366 50.5117 42.7873 53.2567 40.5765 55.7978L40.5161 55.8672V55.9593V63.4414V63.6874H40.7621H64.7946V75.6189V75.8649H65.0406H73.8969H74.143V75.6189V63.6874H79.3939H79.64V63.4414V56.0356V55.7896H79.3939H74.143V20.3811ZM65.0406 32.9785C64.9586 33.1289 64.8766 33.2787 64.7946 33.4278L65.0406 33.491V32.9785Z" stroke="url(#paint5_radial_492_15)" stroke-width="0.492081"/>
<path d="M2.59117 36.1094L2.59091 36.1103C1.36555 40.5425 0.753959 45.3749 0.753959 50.606C0.753959 59.3423 2.39079 65.9518 5.70349 70.395C9.02177 74.8458 13.7139 77.0673 19.7473 77.0673C25.049 77.0673 29.4579 75.2269 32.9554 71.5454C36.4532 67.8634 38.196 63.1585 38.196 57.4515C38.196 52.4245 36.781 48.2922 33.9342 45.076C31.1065 41.852 27.2623 40.2472 22.431 40.2472C19.9088 40.2472 17.6034 40.7465 15.5189 41.749C13.5092 42.6905 11.7361 44.0962 10.1989 45.9608C10.2734 42.7526 10.6707 39.8243 11.3888 37.1744C12.1594 34.4007 13.285 32.2084 14.7566 30.5847L14.7571 30.584C15.9067 29.3068 17.0986 28.3968 18.3311 27.8434C19.5692 27.2876 20.8832 27.0093 22.2754 27.0093C24.2555 27.0093 25.9002 27.5037 27.2248 28.4784L27.2266 28.4797C28.5907 29.4649 29.6671 30.7799 30.4546 32.4312L30.5661 32.665L30.7939 32.5416L37.7561 28.7688L37.9625 28.6569L37.8604 28.4455C36.3892 25.3981 34.2966 23.0529 31.5822 21.4188C28.8716 19.761 25.8711 18.9327 22.5866 18.9327C19.8064 18.9327 17.1807 19.4574 14.7119 20.5079C12.2648 21.5342 10.1091 23.0994 8.24536 25.1992C5.7259 28.0075 3.84357 31.6477 2.59117 36.1094ZM13.2431 51.0007L13.2442 50.9995C14.9036 49.0635 17.1399 48.0905 19.9806 48.0905C22.7715 48.0905 24.914 49.0257 26.4418 50.8791C27.9791 52.7441 28.7582 55.1867 28.7582 58.2294C28.7582 61.5329 27.9265 64.1421 26.288 66.0831L26.2879 66.0833C24.6795 67.9932 22.5212 68.9518 19.7862 68.9518C17.0849 68.9518 14.9132 67.9214 13.2494 65.8546C11.5792 63.7539 10.7364 61.1015 10.7364 57.8793C10.7364 55.2132 11.5724 52.9245 13.2431 51.0007Z" fill="url(#paint6_radial_492_15)"/>
<path d="M2.59117 36.1094L2.59091 36.1103C1.36555 40.5425 0.753959 45.3749 0.753959 50.606C0.753959 59.3423 2.39079 65.9518 5.70349 70.395C9.02177 74.8458 13.7139 77.0673 19.7473 77.0673C25.049 77.0673 29.4579 75.2269 32.9554 71.5454C36.4532 67.8634 38.196 63.1585 38.196 57.4515C38.196 52.4245 36.781 48.2922 33.9342 45.076C31.1065 41.852 27.2623 40.2472 22.431 40.2472C19.9088 40.2472 17.6034 40.7465 15.5189 41.749C13.5092 42.6905 11.7361 44.0962 10.1989 45.9608C10.2734 42.7526 10.6707 39.8243 11.3888 37.1744C12.1594 34.4007 13.285 32.2084 14.7566 30.5847L14.7571 30.584C15.9067 29.3068 17.0986 28.3968 18.3311 27.8434C19.5692 27.2876 20.8832 27.0093 22.2754 27.0093C24.2555 27.0093 25.9002 27.5037 27.2248 28.4784L27.2266 28.4797C28.5907 29.4649 29.6671 30.7799 30.4546 32.4312L30.5661 32.665L30.7939 32.5416L37.7561 28.7688L37.9625 28.6569L37.8604 28.4455C36.3892 25.3981 34.2966 23.0529 31.5822 21.4188C28.8716 19.761 25.8711 18.9327 22.5866 18.9327C19.8064 18.9327 17.1807 19.4574 14.7119 20.5079C12.2648 21.5342 10.1091 23.0994 8.24536 25.1992C5.7259 28.0075 3.84357 31.6477 2.59117 36.1094ZM13.2431 51.0007L13.2442 50.9995C14.9036 49.0635 17.1399 48.0905 19.9806 48.0905C22.7715 48.0905 24.914 49.0257 26.4418 50.8791C27.9791 52.7441 28.7582 55.1867 28.7582 58.2294C28.7582 61.5329 27.9265 64.1421 26.288 66.0831L26.2879 66.0833C24.6795 67.9932 22.5212 68.9518 19.7862 68.9518C17.0849 68.9518 14.9132 67.9214 13.2494 65.8546C11.5792 63.7539 10.7364 61.1015 10.7364 57.8793C10.7364 55.2132 11.5724 52.9245 13.2431 51.0007Z" stroke="url(#paint7_radial_492_15)" stroke-width="0.492081"/>
<path d="M2.59117 36.1094L2.59091 36.1103C1.36555 40.5425 0.753959 45.3749 0.753959 50.606C0.753959 59.3423 2.39079 65.9518 5.70349 70.395C9.02177 74.8458 13.7139 77.0673 19.7473 77.0673C25.049 77.0673 29.4579 75.2269 32.9554 71.5454C36.4532 67.8634 38.196 63.1585 38.196 57.4515C38.196 52.4245 36.781 48.2922 33.9342 45.076C31.1065 41.852 27.2623 40.2472 22.431 40.2472C19.9088 40.2472 17.6034 40.7465 15.5189 41.749C13.5092 42.6905 11.7361 44.0962 10.1989 45.9608C10.2734 42.7526 10.6707 39.8243 11.3888 37.1744C12.1594 34.4007 13.285 32.2084 14.7566 30.5847L14.7571 30.584C15.9067 29.3068 17.0986 28.3968 18.3311 27.8434C19.5692 27.2876 20.8832 27.0093 22.2754 27.0093C24.2555 27.0093 25.9002 27.5037 27.2248 28.4784L27.2266 28.4797C28.5907 29.4649 29.6671 30.7799 30.4546 32.4312L30.5661 32.665L30.7939 32.5416L37.7561 28.7688L37.9625 28.6569L37.8604 28.4455C36.3892 25.3981 34.2966 23.0529 31.5822 21.4188C28.8716 19.761 25.8711 18.9327 22.5866 18.9327C19.8064 18.9327 17.1807 19.4574 14.7119 20.5079C12.2648 21.5342 10.1091 23.0994 8.24536 25.1992C5.7259 28.0075 3.84357 31.6477 2.59117 36.1094ZM13.2431 51.0007L13.2442 50.9995C14.9036 49.0635 17.1399 48.0905 19.9806 48.0905C22.7715 48.0905 24.914 49.0257 26.4418 50.8791C27.9791 52.7441 28.7582 55.1867 28.7582 58.2294C28.7582 61.5329 27.9265 64.1421 26.288 66.0831L26.2879 66.0833C24.6795 67.9932 22.5212 68.9518 19.7862 68.9518C17.0849 68.9518 14.9132 67.9214 13.2494 65.8546C11.5792 63.7539 10.7364 61.1015 10.7364 57.8793C10.7364 55.2132 11.5724 52.9245 13.2431 51.0007Z" stroke="url(#paint8_radial_492_15)" stroke-width="0.492081"/>
<defs>
<radialGradient id="paint0_radial_492_15" cx="0" cy="0" r="1" gradientUnits="userSpaceOnUse" gradientTransform="translate(99.2544 57.0961) rotate(131.792) scale(26.5551 24.5844)">
<stop stop-color="white"/>
<stop offset="1" stop-color="white" stop-opacity="0.12"/>
</radialGradient>
<radialGradient id="paint1_radial_492_15" cx="0" cy="0" r="1" gradientUnits="userSpaceOnUse" gradientTransform="translate(103.436 51.4015) rotate(139.024) scale(35.8812 13.3859)">
<stop offset="0.104014" stop-color="white" stop-opacity="0.8"/>
<stop offset="1" stop-color="white" stop-opacity="0.1"/>
</radialGradient>
<radialGradient id="paint2_radial_492_15" cx="0" cy="0" r="1" gradientUnits="userSpaceOnUse" gradientTransform="translate(76.3464 74.9303) rotate(-41.0745) scale(35.9349 13.4326)">
<stop offset="0.104014" stop-color="white" stop-opacity="0.6"/>
<stop offset="1" stop-color="white" stop-opacity="0.1"/>
</radialGradient>
<radialGradient id="paint3_radial_492_15" cx="0" cy="0" r="1" gradientUnits="userSpaceOnUse" gradientTransform="translate(81.9253 12.4705) rotate(121.363) scale(82.0999 67.9824)">
<stop stop-color="white"/>
<stop offset="1" stop-color="white" stop-opacity="0.12"/>
</radialGradient>
<radialGradient id="paint4_radial_492_15" cx="0" cy="0" r="1" gradientUnits="userSpaceOnUse" gradientTransform="translate(92.0222 -7.69332) rotate(128.135) scale(105.92 38.7677)">
<stop offset="0.104014" stop-color="white" stop-opacity="0.8"/>
<stop offset="1" stop-color="white" stop-opacity="0.1"/>
</radialGradient>
<radialGradient id="paint5_radial_492_15" cx="0" cy="0" r="1" gradientUnits="userSpaceOnUse" gradientTransform="translate(26.6143 75.6189) rotate(-51.9613) scale(106.148 38.8773)">
<stop offset="0.104014" stop-color="white" stop-opacity="0.6"/>
<stop offset="1" stop-color="white" stop-opacity="0.1"/>
</radialGradient>
<radialGradient id="paint6_radial_492_15" cx="0" cy="0" r="1" gradientUnits="userSpaceOnUse" gradientTransform="translate(40.3712 10.9238) rotate(119.19) scale(83.7979 66.4786)">
<stop stop-color="white"/>
<stop offset="1" stop-color="white" stop-opacity="0.12"/>
</radialGradient>
<radialGradient id="paint7_radial_492_15" cx="0" cy="0" r="1" gradientUnits="userSpaceOnUse" gradientTransform="translate(50.0285 -10.1178) rotate(125.738) scale(107.108 38.2649)">
<stop offset="0.104014" stop-color="white" stop-opacity="0.8"/>
<stop offset="1" stop-color="white" stop-opacity="0.1"/>
</radialGradient>
<radialGradient id="paint8_radial_492_15" cx="0" cy="0" r="1" gradientUnits="userSpaceOnUse" gradientTransform="translate(-12.5319 76.8212) rotate(-54.3559) scale(107.354 38.3678)">
<stop offset="0.104014" stop-color="white" stop-opacity="0.6"/>
<stop offset="1" stop-color="white" stop-opacity="0.1"/>
</radialGradient>
</defs>
</svg>
