<svg width="20" height="20" viewBox="0 0 20 20" fill="none" xmlns="http://www.w3.org/2000/svg">
<path d="M14.4003 12.7377L10.6547 16.4836C10.4329 16.7053 10.086 16.7257 9.84136 16.5445L9.77125 16.4841L6.01721 12.7382C5.77286 12.4944 5.77243 12.0987 6.01624 11.8543C6.23789 11.6322 6.58509 11.6117 6.82996 11.7929L6.90013 11.8534L9.58584 14.5341L9.58529 3.95422C9.58529 3.63781 9.82042 3.37631 10.1255 3.33492L10.2103 3.32922C10.5267 3.32922 10.7882 3.56435 10.8296 3.86941L10.8353 3.95422L10.8358 14.5357L13.5164 11.8539C13.7383 11.632 14.0855 11.6118 14.3302 11.7933L14.4003 11.8538C14.6222 12.0757 14.6423 12.4229 14.4608 12.6676L14.4003 12.7377L10.6547 16.4836L14.4003 12.7377Z" fill="black"/>
</svg>
