<svg width="20" height="20" viewBox="0 0 20 20" fill="none" xmlns="http://www.w3.org/2000/svg">
<path d="M12.7377 5.59972L16.4836 9.34535C16.7053 9.56707 16.7257 9.91397 16.5445 10.1587L16.4841 10.2288L12.7382 13.9828C12.4944 14.2272 12.0987 14.2276 11.8543 13.9838C11.6322 13.7621 11.6117 13.4149 11.7929 13.1701L11.8534 13.0999L14.5341 10.4142L3.95423 10.4147C3.63782 10.4147 3.37632 10.1796 3.33494 9.87453L3.32923 9.78972C3.32923 9.47331 3.56436 9.21181 3.86942 9.17043L3.95423 9.16472L14.5358 9.16417L11.8539 6.48363C11.632 6.26175 11.6118 5.91453 11.7933 5.66985L11.8539 5.59974C12.0757 5.37785 12.423 5.35767 12.6676 5.5392L12.7377 5.59972L16.4836 9.34535L12.7377 5.59972Z" fill="black"/>
</svg>
