<svg viewBox="0 0 97 96" fill="none" xmlns="http://www.w3.org/2000/svg">
<path d="M92.7588 68.8506C93.7128 68.8506 94.3943 69.1465 94.876 69.6904C95.3652 70.2429 95.6445 71.0533 95.6445 72.1934C95.6445 73.2316 95.3767 74.0307 94.8779 74.6357L94.7754 74.7539C94.2214 75.3609 93.4953 75.6738 92.5459 75.6738C91.629 75.6737 90.9452 75.377 90.4365 74.8105C89.9204 74.2358 89.6387 73.452 89.6387 72.4053C89.6387 71.3137 89.9074 70.4957 90.3965 69.8984L90.498 69.7812L90.499 69.7793C91.0514 69.1682 91.7864 68.8506 92.7588 68.8506ZM92.6953 68.9873C91.9191 68.9873 91.2598 69.2609 90.7695 69.8184L90.6738 69.9336L90.6709 69.9365C90.1932 70.5558 89.9874 71.3719 89.9873 72.3203C89.9873 73.1809 90.1704 73.9318 90.5889 74.5205L90.6758 74.6357L90.6787 74.6396C91.1707 75.2497 91.8486 75.5478 92.6523 75.5479C93.4192 75.5479 94.0676 75.2717 94.5439 74.7109L94.6367 74.5947L94.8008 74.3486C95.1514 73.7625 95.3066 73.0384 95.3066 72.2148C95.3066 71.3407 95.1299 70.5818 94.7139 70L94.627 69.8867C94.1493 69.2827 93.4848 68.9874 92.6953 68.9873ZM92.7012 61.251L83.6689 75.4189H83.4102L92.4346 61.251H92.7012ZM83.6943 61.0068C84.5986 61.0069 85.2529 61.2654 85.7207 61.7383L85.8115 61.8359L85.8135 61.8389C86.301 62.3838 86.58 63.1853 86.5801 64.3174C86.5801 65.363 86.3118 66.1656 85.8135 66.7705L85.7109 66.8887C85.157 67.4957 84.4309 67.8086 83.4814 67.8086C82.563 67.8085 81.8792 67.514 81.3711 66.9541H81.3701C80.8558 66.3802 80.5743 65.5943 80.5742 64.541C80.5742 63.4474 80.8407 62.6323 81.3232 62.042L81.4229 61.9268L81.4248 61.9248C81.9676 61.3238 82.7038 61.0068 83.6943 61.0068ZM83.6309 61.1113C82.8064 61.1113 82.1164 61.4293 81.6201 62.0684C81.1339 62.6873 80.9229 63.5008 80.9229 64.4453C80.9229 65.3169 81.1051 66.0753 81.5244 66.666L81.6113 66.7822L81.6143 66.7852C82.1062 67.3953 82.7841 67.6943 83.5879 67.6943C84.4059 67.6943 85.0888 67.3788 85.5723 66.7402C86.0408 66.1213 86.2422 65.307 86.2422 64.3604C86.2422 63.4333 86.0401 62.6353 85.5654 62.0352H85.5645C85.0892 61.4181 84.425 61.1114 83.6309 61.1113Z" fill="url(#paint0_radial_1329_7349)"/>
<path d="M92.7588 68.8506C93.7128 68.8506 94.3943 69.1465 94.876 69.6904C95.3652 70.2429 95.6445 71.0533 95.6445 72.1934C95.6445 73.2316 95.3767 74.0307 94.8779 74.6357L94.7754 74.7539C94.2214 75.3609 93.4953 75.6738 92.5459 75.6738C91.629 75.6737 90.9452 75.377 90.4365 74.8105C89.9204 74.2358 89.6387 73.452 89.6387 72.4053C89.6387 71.3137 89.9074 70.4957 90.3965 69.8984L90.498 69.7812L90.499 69.7793C91.0514 69.1682 91.7864 68.8506 92.7588 68.8506ZM92.6953 68.9873C91.9191 68.9873 91.2598 69.2609 90.7695 69.8184L90.6738 69.9336L90.6709 69.9365C90.1932 70.5558 89.9874 71.3719 89.9873 72.3203C89.9873 73.1809 90.1704 73.9318 90.5889 74.5205L90.6758 74.6357L90.6787 74.6396C91.1707 75.2497 91.8486 75.5478 92.6523 75.5479C93.4192 75.5479 94.0676 75.2717 94.5439 74.7109L94.6367 74.5947L94.8008 74.3486C95.1514 73.7625 95.3066 73.0384 95.3066 72.2148C95.3066 71.3407 95.1299 70.5818 94.7139 70L94.627 69.8867C94.1493 69.2827 93.4848 68.9874 92.6953 68.9873ZM92.7012 61.251L83.6689 75.4189H83.4102L92.4346 61.251H92.7012ZM83.6943 61.0068C84.5986 61.0069 85.2529 61.2654 85.7207 61.7383L85.8115 61.8359L85.8135 61.8389C86.301 62.3838 86.58 63.1853 86.5801 64.3174C86.5801 65.363 86.3118 66.1656 85.8135 66.7705L85.7109 66.8887C85.157 67.4957 84.4309 67.8086 83.4814 67.8086C82.563 67.8085 81.8792 67.514 81.3711 66.9541H81.3701C80.8558 66.3802 80.5743 65.5943 80.5742 64.541C80.5742 63.4474 80.8407 62.6323 81.3232 62.042L81.4229 61.9268L81.4248 61.9248C81.9676 61.3238 82.7038 61.0068 83.6943 61.0068ZM83.6309 61.1113C82.8064 61.1113 82.1164 61.4293 81.6201 62.0684C81.1339 62.6873 80.9229 63.5008 80.9229 64.4453C80.9229 65.3169 81.1051 66.0753 81.5244 66.666L81.6113 66.7822L81.6143 66.7852C82.1062 67.3953 82.7841 67.6943 83.5879 67.6943C84.4059 67.6943 85.0888 67.3788 85.5723 66.7402C86.0408 66.1213 86.2422 65.307 86.2422 64.3604C86.2422 63.4333 86.0401 62.6353 85.5654 62.0352H85.5645C85.0892 61.4181 84.425 61.1114 83.6309 61.1113Z" stroke="url(#paint1_radial_1329_7349)" stroke-width="1.06325"/>
<path d="M92.7588 68.8506C93.7128 68.8506 94.3943 69.1465 94.876 69.6904C95.3652 70.2429 95.6445 71.0533 95.6445 72.1934C95.6445 73.2316 95.3767 74.0307 94.8779 74.6357L94.7754 74.7539C94.2214 75.3609 93.4953 75.6738 92.5459 75.6738C91.629 75.6737 90.9452 75.377 90.4365 74.8105C89.9204 74.2358 89.6387 73.452 89.6387 72.4053C89.6387 71.3137 89.9074 70.4957 90.3965 69.8984L90.498 69.7812L90.499 69.7793C91.0514 69.1682 91.7864 68.8506 92.7588 68.8506ZM92.6953 68.9873C91.9191 68.9873 91.2598 69.2609 90.7695 69.8184L90.6738 69.9336L90.6709 69.9365C90.1932 70.5558 89.9874 71.3719 89.9873 72.3203C89.9873 73.1809 90.1704 73.9318 90.5889 74.5205L90.6758 74.6357L90.6787 74.6396C91.1707 75.2497 91.8486 75.5478 92.6523 75.5479C93.4192 75.5479 94.0676 75.2717 94.5439 74.7109L94.6367 74.5947L94.8008 74.3486C95.1514 73.7625 95.3066 73.0384 95.3066 72.2148C95.3066 71.3407 95.1299 70.5818 94.7139 70L94.627 69.8867C94.1493 69.2827 93.4848 68.9874 92.6953 68.9873ZM92.7012 61.251L83.6689 75.4189H83.4102L92.4346 61.251H92.7012ZM83.6943 61.0068C84.5986 61.0069 85.2529 61.2654 85.7207 61.7383L85.8115 61.8359L85.8135 61.8389C86.301 62.3838 86.58 63.1853 86.5801 64.3174C86.5801 65.363 86.3118 66.1656 85.8135 66.7705L85.7109 66.8887C85.157 67.4957 84.4309 67.8086 83.4814 67.8086C82.563 67.8085 81.8792 67.514 81.3711 66.9541H81.3701C80.8558 66.3802 80.5743 65.5943 80.5742 64.541C80.5742 63.4474 80.8407 62.6323 81.3232 62.042L81.4229 61.9268L81.4248 61.9248C81.9676 61.3238 82.7038 61.0068 83.6943 61.0068ZM83.6309 61.1113C82.8064 61.1113 82.1164 61.4293 81.6201 62.0684C81.1339 62.6873 80.9229 63.5008 80.9229 64.4453C80.9229 65.3169 81.1051 66.0753 81.5244 66.666L81.6113 66.7822L81.6143 66.7852C82.1062 67.3953 82.7841 67.6943 83.5879 67.6943C84.4059 67.6943 85.0888 67.3788 85.5723 66.7402C86.0408 66.1213 86.2422 65.307 86.2422 64.3604C86.2422 63.4333 86.0401 62.6353 85.5654 62.0352H85.5645C85.0892 61.4181 84.425 61.1114 83.6309 61.1113Z" stroke="url(#paint2_radial_1329_7349)" stroke-width="1.06325"/>
<path d="M21.7529 19.2368C24.7027 19.2368 27.3999 19.9327 29.8545 21.3218L30.3428 21.6089L30.3457 21.6108C32.7861 23.0798 34.7024 25.1569 36.0967 27.856L30.0684 31.1226C29.2555 29.5939 28.1845 28.3416 26.8506 27.3774H26.8516C25.3701 26.2874 23.5554 25.7573 21.4414 25.7573C19.9422 25.7573 18.5193 26.0578 17.1787 26.6597C15.8264 27.2669 14.5505 28.251 13.3467 29.5884C11.8718 31.2159 10.7485 33.3485 9.95996 35.9624L9.80664 36.4917L9.80566 36.4956C9.04045 39.319 8.63349 42.436 8.58105 45.8433L8.57324 46.3833H9.64062L9.80078 46.1841C11.2163 44.4147 12.8329 43.0754 14.6504 42.1558L15.0166 41.9771L15.0215 41.9751C16.9911 41.0277 19.1799 40.5494 21.5967 40.5493C26.0921 40.5493 29.6285 41.9871 32.2627 44.8335L32.5146 45.1128L32.5166 45.1147C35.2157 48.1637 36.5829 52.1016 36.583 56.9741C36.583 62.509 34.8988 67.0137 31.5566 70.5317C28.2138 74.0503 24.013 75.8109 18.9141 75.811C13.1009 75.811 8.65055 73.6852 5.49414 69.4517C2.32584 65.2019 0.699219 58.7893 0.699219 50.1294C0.699242 44.9598 1.30281 40.1986 2.50684 35.8433L2.50781 35.8442C3.65872 31.7443 5.34218 28.3892 7.54492 25.7603L7.99219 25.2446L7.99414 25.2417C9.67344 23.3496 11.5904 21.9186 13.7461 20.9409L14.1797 20.7515L14.1826 20.7505C16.5515 19.7425 19.0734 19.2368 21.7529 19.2368ZM19.1475 46.8364C16.2967 46.8364 13.9541 47.7618 12.1699 49.6304L11.8203 50.0171C10.0228 52.0882 9.12598 54.5597 9.12598 57.4028C9.12605 60.5558 9.90197 63.2422 11.4814 65.4302L11.8086 65.8618L11.8105 65.8638C13.6245 68.1175 16.0202 69.2514 18.9521 69.2515C21.8937 69.2515 24.2789 68.2077 26.0488 66.106L26.0479 66.105C27.834 63.9885 28.7012 61.1861 28.7012 57.7524C28.7012 54.5745 27.8853 51.9437 26.208 49.9087C24.51 47.8488 22.1319 46.8365 19.1475 46.8364Z" fill="url(#paint3_radial_1329_7349)"/>
<path d="M21.7529 19.2368C24.7027 19.2368 27.3999 19.9327 29.8545 21.3218L30.3428 21.6089L30.3457 21.6108C32.7861 23.0798 34.7024 25.1569 36.0967 27.856L30.0684 31.1226C29.2555 29.5939 28.1845 28.3416 26.8506 27.3774H26.8516C25.3701 26.2874 23.5554 25.7573 21.4414 25.7573C19.9422 25.7573 18.5193 26.0578 17.1787 26.6597C15.8264 27.2669 14.5505 28.251 13.3467 29.5884C11.8718 31.2159 10.7485 33.3485 9.95996 35.9624L9.80664 36.4917L9.80566 36.4956C9.04045 39.319 8.63349 42.436 8.58105 45.8433L8.57324 46.3833H9.64062L9.80078 46.1841C11.2163 44.4147 12.8329 43.0754 14.6504 42.1558L15.0166 41.9771L15.0215 41.9751C16.9911 41.0277 19.1799 40.5494 21.5967 40.5493C26.0921 40.5493 29.6285 41.9871 32.2627 44.8335L32.5146 45.1128L32.5166 45.1147C35.2157 48.1637 36.5829 52.1016 36.583 56.9741C36.583 62.509 34.8988 67.0137 31.5566 70.5317C28.2138 74.0503 24.013 75.8109 18.9141 75.811C13.1009 75.811 8.65055 73.6852 5.49414 69.4517C2.32584 65.2019 0.699219 58.7893 0.699219 50.1294C0.699242 44.9598 1.30281 40.1986 2.50684 35.8433L2.50781 35.8442C3.65872 31.7443 5.34218 28.3892 7.54492 25.7603L7.99219 25.2446L7.99414 25.2417C9.67344 23.3496 11.5904 21.9186 13.7461 20.9409L14.1797 20.7515L14.1826 20.7505C16.5515 19.7425 19.0734 19.2368 21.7529 19.2368ZM19.1475 46.8364C16.2967 46.8364 13.9541 47.7618 12.1699 49.6304L11.8203 50.0171C10.0228 52.0882 9.12598 54.5597 9.12598 57.4028C9.12605 60.5558 9.90197 63.2422 11.4814 65.4302L11.8086 65.8618L11.8105 65.8638C13.6245 68.1175 16.0202 69.2514 18.9521 69.2515C21.8937 69.2515 24.2789 68.2077 26.0488 66.106L26.0479 66.105C27.834 63.9885 28.7012 61.1861 28.7012 57.7524C28.7012 54.5745 27.8853 51.9437 26.208 49.9087C24.51 47.8488 22.1319 46.8365 19.1475 46.8364Z" stroke="url(#paint4_radial_1329_7349)" stroke-width="1.06325"/>
<path d="M21.7529 19.2368C24.7027 19.2368 27.3999 19.9327 29.8545 21.3218L30.3428 21.6089L30.3457 21.6108C32.7861 23.0798 34.7024 25.1569 36.0967 27.856L30.0684 31.1226C29.2555 29.5939 28.1845 28.3416 26.8506 27.3774H26.8516C25.3701 26.2874 23.5554 25.7573 21.4414 25.7573C19.9422 25.7573 18.5193 26.0578 17.1787 26.6597C15.8264 27.2669 14.5505 28.251 13.3467 29.5884C11.8718 31.2159 10.7485 33.3485 9.95996 35.9624L9.80664 36.4917L9.80566 36.4956C9.04045 39.319 8.63349 42.436 8.58105 45.8433L8.57324 46.3833H9.64062L9.80078 46.1841C11.2163 44.4147 12.8329 43.0754 14.6504 42.1558L15.0166 41.9771L15.0215 41.9751C16.9911 41.0277 19.1799 40.5494 21.5967 40.5493C26.0921 40.5493 29.6285 41.9871 32.2627 44.8335L32.5146 45.1128L32.5166 45.1147C35.2157 48.1637 36.5829 52.1016 36.583 56.9741C36.583 62.509 34.8988 67.0137 31.5566 70.5317C28.2138 74.0503 24.013 75.8109 18.9141 75.811C13.1009 75.811 8.65055 73.6852 5.49414 69.4517C2.32584 65.2019 0.699219 58.7893 0.699219 50.1294C0.699242 44.9598 1.30281 40.1986 2.50684 35.8433L2.50781 35.8442C3.65872 31.7443 5.34218 28.3892 7.54492 25.7603L7.99219 25.2446L7.99414 25.2417C9.67344 23.3496 11.5904 21.9186 13.7461 20.9409L14.1797 20.7515L14.1826 20.7505C16.5515 19.7425 19.0734 19.2368 21.7529 19.2368ZM19.1475 46.8364C16.2967 46.8364 13.9541 47.7618 12.1699 49.6304L11.8203 50.0171C10.0228 52.0882 9.12598 54.5597 9.12598 57.4028C9.12605 60.5558 9.90197 63.2422 11.4814 65.4302L11.8086 65.8618L11.8105 65.8638C13.6245 68.1175 16.0202 69.2514 18.9521 69.2515C21.8937 69.2515 24.2789 68.2077 26.0488 66.106L26.0479 66.105C27.834 63.9885 28.7012 61.1861 28.7012 57.7524C28.7012 54.5745 27.8853 51.9437 26.208 49.9087C24.51 47.8488 22.1319 46.8365 19.1475 46.8364Z" stroke="url(#paint5_radial_1329_7349)" stroke-width="1.06325"/>
<path d="M60.2559 19.7759C65.0229 19.7759 68.8966 21.1298 71.9209 23.8042C74.9218 26.4579 76.4473 30.1896 76.4473 35.0737C76.4472 37.1179 76.1321 39.0558 75.5039 40.8901C74.9516 42.5029 74.206 44.0085 73.2676 45.4077L72.8535 46.0005L72.8516 46.0044C71.849 47.4079 70.6991 48.7551 69.4004 50.0454L68.834 50.5942C67.4905 51.8478 65.9785 53.0947 64.2959 54.3335L63.5635 54.8638L63.5576 54.8687C62.6238 55.556 61.7446 56.2043 60.9209 56.814L58.6152 58.5269C57.3753 59.4454 56.318 60.3397 55.4473 61.2104L55.0859 61.5815L55.0811 61.5864C54.1192 62.6285 53.4177 63.6657 52.998 64.6987C52.5795 65.7032 52.3731 66.7974 52.373 67.9751V68.5073H77.458V75.4165H42.7803V72.4478C42.7803 69.8789 43.1364 67.6223 43.8369 65.6694C44.5701 63.6722 45.581 61.8274 46.8701 60.1333C48.1664 58.4558 49.7068 56.876 51.4941 55.395L51.4932 55.394C52.8665 54.2722 54.3358 53.129 55.8994 51.9624L57.4951 50.7876H57.4961C59.3232 49.4564 60.8953 48.1856 62.21 46.9761C63.529 45.7625 64.6196 44.5414 65.4756 43.311L65.4746 43.3101C66.2451 42.2575 66.8472 41.1694 67.2754 40.0444L67.4492 39.5581L67.4502 39.5552C67.8835 38.228 68.0986 36.8235 68.0986 35.3452C68.0986 32.5224 67.3024 30.2884 65.6348 28.7339C63.9917 27.2023 61.8848 26.4527 59.3613 26.4526C56.9256 26.4526 54.8175 27.1092 53.0654 28.4399L52.7236 28.7114C51.043 30.0865 49.62 31.9847 48.4443 34.3833L41.8057 31.5376C43.5156 28.099 45.7137 25.3901 48.3975 23.396L48.9678 22.9878C52.0537 20.8553 55.8076 19.7759 60.2559 19.7759Z" fill="url(#paint6_radial_1329_7349)"/>
<path d="M60.2559 19.7759C65.0229 19.7759 68.8966 21.1298 71.9209 23.8042C74.9218 26.4579 76.4473 30.1896 76.4473 35.0737C76.4472 37.1179 76.1321 39.0558 75.5039 40.8901C74.9516 42.5029 74.206 44.0085 73.2676 45.4077L72.8535 46.0005L72.8516 46.0044C71.849 47.4079 70.6991 48.7551 69.4004 50.0454L68.834 50.5942C67.4905 51.8478 65.9785 53.0947 64.2959 54.3335L63.5635 54.8638L63.5576 54.8687C62.6238 55.556 61.7446 56.2043 60.9209 56.814L58.6152 58.5269C57.3753 59.4454 56.318 60.3397 55.4473 61.2104L55.0859 61.5815L55.0811 61.5864C54.1192 62.6285 53.4177 63.6657 52.998 64.6987C52.5795 65.7032 52.3731 66.7974 52.373 67.9751V68.5073H77.458V75.4165H42.7803V72.4478C42.7803 69.8789 43.1364 67.6223 43.8369 65.6694C44.5701 63.6722 45.581 61.8274 46.8701 60.1333C48.1664 58.4558 49.7068 56.876 51.4941 55.395L51.4932 55.394C52.8665 54.2722 54.3358 53.129 55.8994 51.9624L57.4951 50.7876H57.4961C59.3232 49.4564 60.8953 48.1856 62.21 46.9761C63.529 45.7625 64.6196 44.5414 65.4756 43.311L65.4746 43.3101C66.2451 42.2575 66.8472 41.1694 67.2754 40.0444L67.4492 39.5581L67.4502 39.5552C67.8835 38.228 68.0986 36.8235 68.0986 35.3452C68.0986 32.5224 67.3024 30.2884 65.6348 28.7339C63.9917 27.2023 61.8848 26.4527 59.3613 26.4526C56.9256 26.4526 54.8175 27.1092 53.0654 28.4399L52.7236 28.7114C51.043 30.0865 49.62 31.9847 48.4443 34.3833L41.8057 31.5376C43.5156 28.099 45.7137 25.3901 48.3975 23.396L48.9678 22.9878C52.0537 20.8553 55.8076 19.7759 60.2559 19.7759Z" stroke="url(#paint7_radial_1329_7349)" stroke-width="1.06325"/>
<path d="M60.2559 19.7759C65.0229 19.7759 68.8966 21.1298 71.9209 23.8042C74.9218 26.4579 76.4473 30.1896 76.4473 35.0737C76.4472 37.1179 76.1321 39.0558 75.5039 40.8901C74.9516 42.5029 74.206 44.0085 73.2676 45.4077L72.8535 46.0005L72.8516 46.0044C71.849 47.4079 70.6991 48.7551 69.4004 50.0454L68.834 50.5942C67.4905 51.8478 65.9785 53.0947 64.2959 54.3335L63.5635 54.8638L63.5576 54.8687C62.6238 55.556 61.7446 56.2043 60.9209 56.814L58.6152 58.5269C57.3753 59.4454 56.318 60.3397 55.4473 61.2104L55.0859 61.5815L55.0811 61.5864C54.1192 62.6285 53.4177 63.6657 52.998 64.6987C52.5795 65.7032 52.3731 66.7974 52.373 67.9751V68.5073H77.458V75.4165H42.7803V72.4478C42.7803 69.8789 43.1364 67.6223 43.8369 65.6694C44.5701 63.6722 45.581 61.8274 46.8701 60.1333C48.1664 58.4558 49.7068 56.876 51.4941 55.395L51.4932 55.394C52.8665 54.2722 54.3358 53.129 55.8994 51.9624L57.4951 50.7876H57.4961C59.3232 49.4564 60.8953 48.1856 62.21 46.9761C63.529 45.7625 64.6196 44.5414 65.4756 43.311L65.4746 43.3101C66.2451 42.2575 66.8472 41.1694 67.2754 40.0444L67.4492 39.5581L67.4502 39.5552C67.8835 38.228 68.0986 36.8235 68.0986 35.3452C68.0986 32.5224 67.3024 30.2884 65.6348 28.7339C63.9917 27.2023 61.8848 26.4527 59.3613 26.4526C56.9256 26.4526 54.8175 27.1092 53.0654 28.4399L52.7236 28.7114C51.043 30.0865 49.62 31.9847 48.4443 34.3833L41.8057 31.5376C43.5156 28.099 45.7137 25.3901 48.3975 23.396L48.9678 22.9878C52.0537 20.8553 55.8076 19.7759 60.2559 19.7759Z" stroke="url(#paint8_radial_1329_7349)" stroke-width="1.06325"/>
<defs>
<radialGradient id="paint0_radial_1329_7349" cx="0" cy="0" r="1" gradientUnits="userSpaceOnUse" gradientTransform="translate(97.2334 58.2229) rotate(131.792) scale(26.7761 24.789)">
<stop stop-color="white"/>
<stop offset="1" stop-color="white" stop-opacity="0.12"/>
</radialGradient>
<radialGradient id="paint1_radial_1329_7349" cx="0" cy="0" r="1" gradientUnits="userSpaceOnUse" gradientTransform="translate(101.45 52.4809) rotate(139.024) scale(36.1799 13.4973)">
<stop offset="0.104014" stop-color="white" stop-opacity="0.8"/>
<stop offset="1" stop-color="white" stop-opacity="0.1"/>
</radialGradient>
<radialGradient id="paint2_radial_1329_7349" cx="0" cy="0" r="1" gradientUnits="userSpaceOnUse" gradientTransform="translate(74.1346 76.2055) rotate(-41.0741) scale(36.2341 13.5444)">
<stop offset="0.104014" stop-color="white" stop-opacity="0.6"/>
<stop offset="1" stop-color="white" stop-opacity="0.1"/>
</radialGradient>
<radialGradient id="paint3_radial_1329_7349" cx="0" cy="0" r="1" gradientUnits="userSpaceOnUse" gradientTransform="translate(39.5358 10.4514) rotate(119.19) scale(83.79 66.4727)">
<stop stop-color="white"/>
<stop offset="1" stop-color="white" stop-opacity="0.12"/>
</radialGradient>
<radialGradient id="paint4_radial_1329_7349" cx="0" cy="0" r="1" gradientUnits="userSpaceOnUse" gradientTransform="translate(49.1923 -10.5882) rotate(125.739) scale(107.098 38.2615)">
<stop offset="0.104014" stop-color="white" stop-opacity="0.8"/>
<stop offset="1" stop-color="white" stop-opacity="0.1"/>
</radialGradient>
<radialGradient id="paint5_radial_1329_7349" cx="0" cy="0" r="1" gradientUnits="userSpaceOnUse" gradientTransform="translate(-13.3628 76.3424) rotate(-54.3555) scale(107.344 38.3644)">
<stop offset="0.104014" stop-color="white" stop-opacity="0.6"/>
<stop offset="1" stop-color="white" stop-opacity="0.1"/>
</radialGradient>
<radialGradient id="paint6_radial_1329_7349" cx="0" cy="0" r="1" gradientUnits="userSpaceOnUse" gradientTransform="translate(80.4084 11.1241) rotate(119.564) scale(82.7366 66.1592)">
<stop stop-color="white"/>
<stop offset="1" stop-color="white" stop-opacity="0.12"/>
</radialGradient>
<radialGradient id="paint7_radial_1329_7349" cx="0" cy="0" r="1" gradientUnits="userSpaceOnUse" gradientTransform="translate(90.0548 -9.57472) rotate(126.155) scale(105.92 38.0206)">
<stop offset="0.104014" stop-color="white" stop-opacity="0.8"/>
<stop offset="1" stop-color="white" stop-opacity="0.1"/>
</radialGradient>
<radialGradient id="paint8_radial_1329_7349" cx="0" cy="0" r="1" gradientUnits="userSpaceOnUse" gradientTransform="translate(27.5655 75.9481) rotate(-53.9401) scale(106.16 38.1237)">
<stop offset="0.104014" stop-color="white" stop-opacity="0.6"/>
<stop offset="1" stop-color="white" stop-opacity="0.1"/>
</radialGradient>
</defs>
</svg>
