<svg viewBox="0 0 96 96" fill="none" xmlns="http://www.w3.org/2000/svg">
<path d="M85.1592 38.6961V39.2525H85.7156H87.2882C89.5843 39.2525 91.4436 41.1106 91.4436 43.4025V52.8213C91.4436 55.1132 89.5843 56.9713 87.2882 56.9713H85.7156H85.1592V57.5277V59.0986C85.1592 66.59 79.0757 72.6674 71.5742 72.6674H18.1414C10.6399 72.6674 4.5564 66.59 4.5564 59.0986V37.1253C4.5564 29.6338 10.6399 23.5564 18.1414 23.5564H71.5742C79.0817 23.5564 85.1592 29.6337 85.1592 37.1253V38.6961Z" fill="url(#paint0_radial_374_5370)" fill-opacity="0.8"/>
<path d="M85.1592 38.6961V39.2525H85.7156H87.2882C89.5843 39.2525 91.4436 41.1106 91.4436 43.4025V52.8213C91.4436 55.1132 89.5843 56.9713 87.2882 56.9713H85.7156H85.1592V57.5277V59.0986C85.1592 66.59 79.0757 72.6674 71.5742 72.6674H18.1414C10.6399 72.6674 4.5564 66.59 4.5564 59.0986V37.1253C4.5564 29.6338 10.6399 23.5564 18.1414 23.5564H71.5742C79.0817 23.5564 85.1592 29.6337 85.1592 37.1253V38.6961Z" stroke="url(#paint1_radial_374_5370)" stroke-width="1.11281"/>
<path d="M85.1592 38.6961V39.2525H85.7156H87.2882C89.5843 39.2525 91.4436 41.1106 91.4436 43.4025V52.8213C91.4436 55.1132 89.5843 56.9713 87.2882 56.9713H85.7156H85.1592V57.5277V59.0986C85.1592 66.59 79.0757 72.6674 71.5742 72.6674H18.1414C10.6399 72.6674 4.5564 66.59 4.5564 59.0986V37.1253C4.5564 29.6338 10.6399 23.5564 18.1414 23.5564H71.5742C79.0817 23.5564 85.1592 29.6337 85.1592 37.1253V38.6961Z" stroke="url(#paint2_radial_374_5370)" stroke-width="1.11281"/>
<path d="M18.4254 29.7935H71.9585C75.9991 29.7935 79.2738 33.066 79.2738 37.1018V59.1218C79.2738 63.1577 75.9991 66.4302 71.9585 66.4302H18.4254C14.3848 66.4302 11.1101 63.1577 11.1101 59.1218V37.1018C11.1101 33.066 14.3848 29.7935 18.4254 29.7935Z" fill="url(#paint3_radial_374_5370)"/>
<path d="M18.4254 29.7935H71.9585C75.9991 29.7935 79.2738 33.066 79.2738 37.1018V59.1218C79.2738 63.1577 75.9991 66.4302 71.9585 66.4302H18.4254C14.3848 66.4302 11.1101 63.1577 11.1101 59.1218V37.1018C11.1101 33.066 14.3848 29.7935 18.4254 29.7935Z" stroke="url(#paint4_radial_374_5370)" stroke-width="1.11281"/>
<path d="M18.4254 29.7935H71.9585C75.9991 29.7935 79.2738 33.066 79.2738 37.1018V59.1218C79.2738 63.1577 75.9991 66.4302 71.9585 66.4302H18.4254C14.3848 66.4302 11.1101 63.1577 11.1101 59.1218V37.1018C11.1101 33.066 14.3848 29.7935 18.4254 29.7935Z" stroke="url(#paint5_radial_374_5370)" stroke-width="1.11281"/>
<defs>
<radialGradient id="paint0_radial_374_5370" cx="0" cy="0" r="1" gradientUnits="userSpaceOnUse" gradientTransform="translate(112.97 53.9267) rotate(-147.784) scale(185.716 75.0143)">
<stop stop-color="white" stop-opacity="0.8"/>
<stop offset="0.42726" stop-color="white" stop-opacity="0.437261"/>
<stop offset="1" stop-color="white" stop-opacity="0.05"/>
</radialGradient>
<radialGradient id="paint1_radial_374_5370" cx="0" cy="0" r="1" gradientUnits="userSpaceOnUse" gradientTransform="translate(92 23.174) rotate(150.371) scale(101.237 32.7835)">
<stop offset="0.104014" stop-color="white" stop-opacity="0.8"/>
<stop offset="1" stop-color="white" stop-opacity="0.1"/>
</radialGradient>
<radialGradient id="paint2_radial_374_5370" cx="0" cy="0" r="1" gradientUnits="userSpaceOnUse" gradientTransform="translate(3.99996 73.2238) rotate(-29.7145) scale(101.323 32.9189)">
<stop offset="0.104014" stop-color="white" stop-opacity="0.6"/>
<stop offset="1" stop-color="white" stop-opacity="0.1"/>
</radialGradient>
<radialGradient id="paint3_radial_374_5370" cx="0" cy="0" r="1" gradientUnits="userSpaceOnUse" gradientTransform="translate(64.8964 11.8142) rotate(128.347) scale(77.2255 64.6811)">
<stop stop-color="white"/>
<stop offset="1" stop-color="white" stop-opacity="0.12"/>
</radialGradient>
<radialGradient id="paint4_radial_374_5370" cx="0" cy="0" r="1" gradientUnits="userSpaceOnUse" gradientTransform="translate(79.8303 29.3679) rotate(151.497) scale(78.8316 24.9115)">
<stop offset="0.104014" stop-color="white" stop-opacity="0.8"/>
<stop offset="1" stop-color="white" stop-opacity="0.1"/>
</radialGradient>
<radialGradient id="paint5_radial_374_5370" cx="0" cy="0" r="1" gradientUnits="userSpaceOnUse" gradientTransform="translate(10.5536 66.9866) rotate(-28.5864) scale(78.8941 25.0159)">
<stop offset="0.104014" stop-color="white" stop-opacity="0.6"/>
<stop offset="1" stop-color="white" stop-opacity="0.1"/>
</radialGradient>
</defs>
</svg>
