<svg viewBox="0 0 97 96" fill="none" xmlns="http://www.w3.org/2000/svg">
<path d="M18.3181 76.8616H9.05457C10.5563 67.6824 13.1307 58.9582 16.7771 50.6875C20.5434 42.2067 24.5247 34.4885 28.7202 27.532L29.2064 26.7258H28.265H0.531623V19.5213H38.4447V24.4701C33.4702 33.2659 29.2349 41.7551 25.7397 49.9376L25.7394 49.9384C22.2968 58.0338 19.8242 67.0093 18.3181 76.8616Z" fill="url(#paint0_radial_374_5358)"/>
<path d="M18.3181 76.8616H9.05457C10.5563 67.6824 13.1307 58.9582 16.7771 50.6875C20.5434 42.2067 24.5247 34.4885 28.7202 27.532L29.2064 26.7258H28.265H0.531623V19.5213H38.4447V24.4701C33.4702 33.2659 29.2349 41.7551 25.7397 49.9376L25.7394 49.9384C22.2968 58.0338 19.8242 67.0093 18.3181 76.8616Z" stroke="url(#paint1_radial_374_5358)" stroke-width="1.06325"/>
<path d="M18.3181 76.8616H9.05457C10.5563 67.6824 13.1307 58.9582 16.7771 50.6875C20.5434 42.2067 24.5247 34.4885 28.7202 27.532L29.2064 26.7258H28.265H0.531623V19.5213H38.4447V24.4701C33.4702 33.2659 29.2349 41.7551 25.7397 49.9376L25.7394 49.9384C22.2968 58.0338 19.8242 67.0093 18.3181 76.8616Z" stroke="url(#paint2_radial_374_5358)" stroke-width="1.06325"/>
<path d="M72.4146 25.7864L72.4157 25.7882C75.3754 30.5814 76.891 37.853 76.891 47.6775C76.891 57.383 75.2044 64.7341 71.8989 69.7973L71.8978 69.799C68.6415 74.8267 63.9229 77.3355 57.6725 77.3355C51.4371 77.3355 46.8034 74.9649 43.6875 70.24C40.571 65.4465 38.9779 58.4055 38.9779 49.0479C38.9779 39.0447 40.6787 31.5058 44.0112 26.3626C47.3515 21.2217 52.0868 18.6644 58.2771 18.6644C64.8458 18.6644 69.5191 21.0554 72.4146 25.7864ZM50.1718 65.0203L50.1732 65.0234C50.9929 66.8712 52.0519 68.2955 53.3685 69.2576C54.6905 70.2237 56.2404 70.7002 57.9949 70.7002C59.7893 70.7002 61.3591 70.2138 62.6774 69.2232C63.9902 68.2368 65.0184 66.7773 65.783 64.8867C67.327 61.1085 68.0792 55.5305 68.0792 48.2015C68.0792 40.7125 67.3272 35.028 65.7842 31.1967C65.0212 29.2688 64.002 27.7795 62.7043 26.7718C61.3996 25.7587 59.8478 25.2594 58.0755 25.2594C56.3004 25.2594 54.736 25.7704 53.4066 26.8019C52.0844 27.8279 51.0254 29.3446 50.2085 31.3106C48.5822 35.2248 47.7897 41.0467 47.7897 48.7255C47.7897 55.8955 48.569 61.3448 50.1718 65.0203Z" fill="url(#paint3_radial_374_5358)"/>
<path d="M72.4146 25.7864L72.4157 25.7882C75.3754 30.5814 76.891 37.853 76.891 47.6775C76.891 57.383 75.2044 64.7341 71.8989 69.7973L71.8978 69.799C68.6415 74.8267 63.9229 77.3355 57.6725 77.3355C51.4371 77.3355 46.8034 74.9649 43.6875 70.24C40.571 65.4465 38.9779 58.4055 38.9779 49.0479C38.9779 39.0447 40.6787 31.5058 44.0112 26.3626C47.3515 21.2217 52.0868 18.6644 58.2771 18.6644C64.8458 18.6644 69.5191 21.0554 72.4146 25.7864ZM50.1718 65.0203L50.1732 65.0234C50.9929 66.8712 52.0519 68.2955 53.3685 69.2576C54.6905 70.2237 56.2404 70.7002 57.9949 70.7002C59.7893 70.7002 61.3591 70.2138 62.6774 69.2232C63.9902 68.2368 65.0184 66.7773 65.783 64.8867C67.327 61.1085 68.0792 55.5305 68.0792 48.2015C68.0792 40.7125 67.3272 35.028 65.7842 31.1967C65.0212 29.2688 64.002 27.7795 62.7043 26.7718C61.3996 25.7587 59.8478 25.2594 58.0755 25.2594C56.3004 25.2594 54.736 25.7704 53.4066 26.8019C52.0844 27.8279 51.0254 29.3446 50.2085 31.3106C48.5822 35.2248 47.7897 41.0467 47.7897 48.7255C47.7897 55.8955 48.569 61.3448 50.1718 65.0203Z" stroke="url(#paint4_radial_374_5358)" stroke-width="1.06325"/>
<path d="M72.4146 25.7864L72.4157 25.7882C75.3754 30.5814 76.891 37.853 76.891 47.6775C76.891 57.383 75.2044 64.7341 71.8989 69.7973L71.8978 69.799C68.6415 74.8267 63.9229 77.3355 57.6725 77.3355C51.4371 77.3355 46.8034 74.9649 43.6875 70.24C40.571 65.4465 38.9779 58.4055 38.9779 49.0479C38.9779 39.0447 40.6787 31.5058 44.0112 26.3626C47.3515 21.2217 52.0868 18.6644 58.2771 18.6644C64.8458 18.6644 69.5191 21.0554 72.4146 25.7864ZM50.1718 65.0203L50.1732 65.0234C50.9929 66.8712 52.0519 68.2955 53.3685 69.2576C54.6905 70.2237 56.2404 70.7002 57.9949 70.7002C59.7893 70.7002 61.3591 70.2138 62.6774 69.2232C63.9902 68.2368 65.0184 66.7773 65.783 64.8867C67.327 61.1085 68.0792 55.5305 68.0792 48.2015C68.0792 40.7125 67.3272 35.028 65.7842 31.1967C65.0212 29.2688 64.002 27.7795 62.7043 26.7718C61.3996 25.7587 59.8478 25.2594 58.0755 25.2594C56.3004 25.2594 54.736 25.7704 53.4066 26.8019C52.0844 27.8279 51.0254 29.3446 50.2085 31.3106C48.5822 35.2248 47.7897 41.0467 47.7897 48.7255C47.7897 55.8955 48.569 61.3448 50.1718 65.0203Z" stroke="url(#paint5_radial_374_5358)" stroke-width="1.06325"/>
<path d="M79.9925 68.5045L79.9932 68.5053C80.6931 69.2767 81.6306 69.6569 82.7836 69.6569C83.9757 69.6569 84.9533 69.2531 85.6968 68.4385C86.4465 67.6177 86.8127 66.5357 86.8127 65.2136C86.8127 63.8982 86.4874 62.8482 85.8104 62.0913C85.1377 61.3308 84.1937 60.9606 83.0075 60.9606C81.7805 60.9606 80.7867 61.3629 80.0492 62.1794C79.3128 62.9873 78.9561 64.0854 78.9561 65.4487C78.9561 66.7025 79.2954 67.7282 79.9925 68.5045ZM81.4182 63.3107L81.4182 63.3107L81.419 63.3096C81.7892 62.8317 82.289 62.5922 82.9403 62.5922C83.5618 62.5922 84.0349 62.8205 84.3825 63.275L84.3825 63.275L84.3845 63.2776C84.7426 63.7303 84.9348 64.3819 84.9348 65.2584C84.9348 66.1578 84.7423 66.8337 84.3819 67.3097C84.0271 67.7783 83.5397 68.0141 82.8956 68.0141C82.2566 68.0141 81.7676 67.7875 81.4059 67.3391C81.0405 66.8785 80.8451 66.2231 80.8451 65.348C80.8451 64.4578 81.0442 63.7866 81.4182 63.3107ZM93.7005 61.5257L93.8966 61.2182H93.5318H91.9196H91.8099L91.7509 61.3107L81.5177 77.377L81.3219 77.6845H81.6864H83.2874H83.3971L83.4561 77.592L93.7005 61.5257ZM93.9457 71.5624L93.9469 71.5638C94.3038 72.0082 94.4962 72.6588 94.4962 73.5434C94.4962 74.4344 94.3042 75.1111 93.943 75.5953C93.5882 76.0635 93.1009 76.2992 92.457 76.2992C91.818 76.2992 91.3291 76.0726 90.9674 75.6242C90.6015 75.1631 90.4066 74.5147 90.4066 73.6554C90.4066 72.7571 90.6023 72.0821 90.969 71.6063C91.3382 71.1367 91.8414 70.8997 92.5018 70.8997C93.1256 70.8997 93.599 71.1223 93.9457 71.5624L93.9457 71.5624ZM89.554 76.7896C90.2537 77.5688 91.1914 77.9532 92.345 77.9532C93.5371 77.9532 94.5147 77.5494 95.2581 76.7348C96.0078 75.9142 96.3741 74.8361 96.3741 73.5211C96.3741 72.1982 96.0489 71.141 95.3722 70.3767C94.6927 69.6093 93.7491 69.2345 92.569 69.2345C91.3553 69.2345 90.3659 69.6415 89.6219 70.4644C88.8784 71.2794 88.5175 72.381 88.5175 73.745C88.5175 74.9916 88.857 76.0134 89.554 76.7896Z" fill="url(#paint6_radial_374_5358)"/>
<path d="M79.9925 68.5045L79.9932 68.5053C80.6931 69.2767 81.6306 69.6569 82.7836 69.6569C83.9757 69.6569 84.9533 69.2531 85.6968 68.4385C86.4465 67.6177 86.8127 66.5357 86.8127 65.2136C86.8127 63.8982 86.4874 62.8482 85.8104 62.0913C85.1377 61.3308 84.1937 60.9606 83.0075 60.9606C81.7805 60.9606 80.7867 61.3629 80.0492 62.1794C79.3128 62.9873 78.9561 64.0854 78.9561 65.4487C78.9561 66.7025 79.2954 67.7282 79.9925 68.5045ZM81.4182 63.3107L81.4182 63.3107L81.419 63.3096C81.7892 62.8317 82.289 62.5922 82.9403 62.5922C83.5618 62.5922 84.0349 62.8205 84.3825 63.275L84.3825 63.275L84.3845 63.2776C84.7426 63.7303 84.9348 64.3819 84.9348 65.2584C84.9348 66.1578 84.7423 66.8337 84.3819 67.3097C84.0271 67.7783 83.5397 68.0141 82.8956 68.0141C82.2566 68.0141 81.7676 67.7875 81.4059 67.3391C81.0405 66.8785 80.8451 66.2231 80.8451 65.348C80.8451 64.4578 81.0442 63.7866 81.4182 63.3107ZM93.7005 61.5257L93.8966 61.2182H93.5318H91.9196H91.8099L91.7509 61.3107L81.5177 77.377L81.3219 77.6845H81.6864H83.2874H83.3971L83.4561 77.592L93.7005 61.5257ZM93.9457 71.5624L93.9469 71.5638C94.3038 72.0082 94.4962 72.6588 94.4962 73.5434C94.4962 74.4344 94.3042 75.1111 93.943 75.5953C93.5882 76.0635 93.1009 76.2992 92.457 76.2992C91.818 76.2992 91.3291 76.0726 90.9674 75.6242C90.6015 75.1631 90.4066 74.5147 90.4066 73.6554C90.4066 72.7571 90.6023 72.0821 90.969 71.6063C91.3382 71.1367 91.8414 70.8997 92.5018 70.8997C93.1256 70.8997 93.599 71.1223 93.9457 71.5624L93.9457 71.5624ZM89.554 76.7896C90.2537 77.5688 91.1914 77.9532 92.345 77.9532C93.5371 77.9532 94.5147 77.5494 95.2581 76.7348C96.0078 75.9142 96.3741 74.8361 96.3741 73.5211C96.3741 72.1982 96.0489 71.141 95.3722 70.3767C94.6927 69.6093 93.7491 69.2345 92.569 69.2345C91.3553 69.2345 90.3659 69.6415 89.6219 70.4644C88.8784 71.2794 88.5175 72.381 88.5175 73.745C88.5175 74.9916 88.857 76.0134 89.554 76.7896Z" stroke="url(#paint7_radial_374_5358)" stroke-width="0.4"/>
<path d="M79.9925 68.5045L79.9932 68.5053C80.6931 69.2767 81.6306 69.6569 82.7836 69.6569C83.9757 69.6569 84.9533 69.2531 85.6968 68.4385C86.4465 67.6177 86.8127 66.5357 86.8127 65.2136C86.8127 63.8982 86.4874 62.8482 85.8104 62.0913C85.1377 61.3308 84.1937 60.9606 83.0075 60.9606C81.7805 60.9606 80.7867 61.3629 80.0492 62.1794C79.3128 62.9873 78.9561 64.0854 78.9561 65.4487C78.9561 66.7025 79.2954 67.7282 79.9925 68.5045ZM81.4182 63.3107L81.4182 63.3107L81.419 63.3096C81.7892 62.8317 82.289 62.5922 82.9403 62.5922C83.5618 62.5922 84.0349 62.8205 84.3825 63.275L84.3825 63.275L84.3845 63.2776C84.7426 63.7303 84.9348 64.3819 84.9348 65.2584C84.9348 66.1578 84.7423 66.8337 84.3819 67.3097C84.0271 67.7783 83.5397 68.0141 82.8956 68.0141C82.2566 68.0141 81.7676 67.7875 81.4059 67.3391C81.0405 66.8785 80.8451 66.2231 80.8451 65.348C80.8451 64.4578 81.0442 63.7866 81.4182 63.3107ZM93.7005 61.5257L93.8966 61.2182H93.5318H91.9196H91.8099L91.7509 61.3107L81.5177 77.377L81.3219 77.6845H81.6864H83.2874H83.3971L83.4561 77.592L93.7005 61.5257ZM93.9457 71.5624L93.9469 71.5638C94.3038 72.0082 94.4962 72.6588 94.4962 73.5434C94.4962 74.4344 94.3042 75.1111 93.943 75.5953C93.5882 76.0635 93.1009 76.2992 92.457 76.2992C91.818 76.2992 91.3291 76.0726 90.9674 75.6242C90.6015 75.1631 90.4066 74.5147 90.4066 73.6554C90.4066 72.7571 90.6023 72.0821 90.969 71.6063C91.3382 71.1367 91.8414 70.8997 92.5018 70.8997C93.1256 70.8997 93.599 71.1223 93.9457 71.5624L93.9457 71.5624ZM89.554 76.7896C90.2537 77.5688 91.1914 77.9532 92.345 77.9532C93.5371 77.9532 94.5147 77.5494 95.2581 76.7348C96.0078 75.9142 96.3741 74.8361 96.3741 73.5211C96.3741 72.1982 96.0489 71.141 95.3722 70.3767C94.6927 69.6093 93.7491 69.2345 92.569 69.2345C91.3553 69.2345 90.3659 69.6415 89.6219 70.4644C88.8784 71.2794 88.5175 72.381 88.5175 73.745C88.5175 74.9916 88.857 76.0134 89.554 76.7896Z" stroke="url(#paint8_radial_374_5358)" stroke-width="0.4"/>
<defs>
<radialGradient id="paint0_radial_374_5358" cx="0" cy="0" r="1" gradientUnits="userSpaceOnUse" gradientTransform="translate(41.5303 10.6257) rotate(120.183) scale(85.7472 69.435)">
<stop stop-color="white"/>
<stop offset="1" stop-color="white" stop-opacity="0.12"/>
</radialGradient>
<radialGradient id="paint1_radial_374_5358" cx="0" cy="0" r="1" gradientUnits="userSpaceOnUse" gradientTransform="translate(51.7172 -10.6937) rotate(126.839) scale(110.064 39.798)">
<stop offset="0.104014" stop-color="white" stop-opacity="0.8"/>
<stop offset="1" stop-color="white" stop-opacity="0.1"/>
</radialGradient>
<radialGradient id="paint2_radial_374_5358" cx="0" cy="0" r="1" gradientUnits="userSpaceOnUse" gradientTransform="translate(-14.274 77.3933) rotate(-53.2563) scale(110.31 39.9075)">
<stop offset="0.104014" stop-color="white" stop-opacity="0.6"/>
<stop offset="1" stop-color="white" stop-opacity="0.1"/>
</radialGradient>
<radialGradient id="paint3_radial_374_5358" cx="0" cy="0" r="1" gradientUnits="userSpaceOnUse" gradientTransform="translate(79.9766 9.57827) rotate(119.625) scale(87.2112 69.8249)">
<stop stop-color="white"/>
<stop offset="1" stop-color="white" stop-opacity="0.12"/>
</radialGradient>
<radialGradient id="paint4_radial_374_5358" cx="0" cy="0" r="1" gradientUnits="userSpaceOnUse" gradientTransform="translate(90.1635 -12.2269) rotate(126.222) scale(111.677 40.117)">
<stop offset="0.104014" stop-color="white" stop-opacity="0.8"/>
<stop offset="1" stop-color="white" stop-opacity="0.1"/>
</radialGradient>
<radialGradient id="paint5_radial_374_5358" cx="0" cy="0" r="1" gradientUnits="userSpaceOnUse" gradientTransform="translate(24.1723 77.8671) rotate(-53.8731) scale(111.93 40.2259)">
<stop offset="0.104014" stop-color="white" stop-opacity="0.6"/>
<stop offset="1" stop-color="white" stop-opacity="0.1"/>
</radialGradient>
<radialGradient id="paint6_radial_374_5358" cx="0" cy="0" r="1" gradientUnits="userSpaceOnUse" gradientTransform="translate(97.2892 58.7844) rotate(131.792) scale(28.2445 26.1484)">
<stop stop-color="white"/>
<stop offset="1" stop-color="white" stop-opacity="0.12"/>
</radialGradient>
<radialGradient id="paint7_radial_374_5358" cx="0" cy="0" r="1" gradientUnits="userSpaceOnUse" gradientTransform="translate(101.737 52.7276) rotate(139.024) scale(38.164 14.2375)">
<stop offset="0.104014" stop-color="white" stop-opacity="0.8"/>
<stop offset="1" stop-color="white" stop-opacity="0.1"/>
</radialGradient>
<radialGradient id="paint8_radial_374_5358" cx="0" cy="0" r="1" gradientUnits="userSpaceOnUse" gradientTransform="translate(72.9237 77.7532) rotate(-41.0741) scale(38.2211 14.2871)">
<stop offset="0.104014" stop-color="white" stop-opacity="0.6"/>
<stop offset="1" stop-color="white" stop-opacity="0.1"/>
</radialGradient>
</defs>
</svg>
